%TF.GenerationSoftware,KiCad,Pcbnew,7.0.11-7.0.11~ubuntu20.04.1*%
%TF.CreationDate,2026-01-21T02:00:35+01:00*%
%TF.ProjectId,main_board,6d61696e-5f62-46f6-9172-642e6b696361,rev?*%
%TF.SameCoordinates,Original*%
%TF.FileFunction,Copper,L2,Inr*%
%TF.FilePolarity,Positive*%
%FSLAX46Y46*%
G04 Gerber Fmt 4.6, Leading zero omitted, Abs format (unit mm)*
G04 Created by KiCad (PCBNEW 7.0.11-7.0.11~ubuntu20.04.1) date 2026-01-21 02:00:35*
%MOMM*%
%LPD*%
G01*
G04 APERTURE LIST*
G04 Aperture macros list*
%AMRoundRect*
0 Rectangle with rounded corners*
0 $1 Rounding radius*
0 $2 $3 $4 $5 $6 $7 $8 $9 X,Y pos of 4 corners*
0 Add a 4 corners polygon primitive as box body*
4,1,4,$2,$3,$4,$5,$6,$7,$8,$9,$2,$3,0*
0 Add four circle primitives for the rounded corners*
1,1,$1+$1,$2,$3*
1,1,$1+$1,$4,$5*
1,1,$1+$1,$6,$7*
1,1,$1+$1,$8,$9*
0 Add four rect primitives between the rounded corners*
20,1,$1+$1,$2,$3,$4,$5,0*
20,1,$1+$1,$4,$5,$6,$7,0*
20,1,$1+$1,$6,$7,$8,$9,0*
20,1,$1+$1,$8,$9,$2,$3,0*%
G04 Aperture macros list end*
%TA.AperFunction,ComponentPad*%
%ADD10R,1.700000X1.700000*%
%TD*%
%TA.AperFunction,ComponentPad*%
%ADD11O,1.700000X1.700000*%
%TD*%
%TA.AperFunction,ComponentPad*%
%ADD12C,2.000000*%
%TD*%
%TA.AperFunction,ComponentPad*%
%ADD13RoundRect,0.250000X-0.600000X-0.750000X0.600000X-0.750000X0.600000X0.750000X-0.600000X0.750000X0*%
%TD*%
%TA.AperFunction,ComponentPad*%
%ADD14O,1.700000X2.000000*%
%TD*%
%TA.AperFunction,ComponentPad*%
%ADD15O,1.700000X1.100000*%
%TD*%
%TA.AperFunction,ComponentPad*%
%ADD16O,3.500000X2.200000*%
%TD*%
%TA.AperFunction,ComponentPad*%
%ADD17R,2.500000X1.500000*%
%TD*%
%TA.AperFunction,ComponentPad*%
%ADD18O,2.500000X1.500000*%
%TD*%
%TA.AperFunction,ViaPad*%
%ADD19C,0.600000*%
%TD*%
G04 APERTURE END LIST*
D10*
%TO.N,+3.3V*%
%TO.C,J3*%
X157211000Y-95529000D03*
D11*
%TO.N,-Vb*%
X154671000Y-95529000D03*
%TO.N,GPIO11*%
X152131000Y-95529000D03*
%TO.N,GPIO12*%
X149591000Y-95529000D03*
%TO.N,GPIO10*%
X147051000Y-95529000D03*
%TO.N,GPIO8*%
X144511000Y-95529000D03*
%TO.N,GPIO9*%
X141971000Y-95529000D03*
%TO.N,GPIO7*%
X139431000Y-95529000D03*
%TD*%
D12*
%TO.N,GPIO21*%
%TO.C,SW_START1*%
X141224000Y-146558000D03*
X147724000Y-146558000D03*
%TO.N,-Vb*%
X141224000Y-151058000D03*
X147724000Y-151058000D03*
%TD*%
%TO.N,GPIO47*%
%TO.C,SW_SELECT1*%
X128270000Y-146812000D03*
X134770000Y-146812000D03*
%TO.N,-Vb*%
X128270000Y-151312000D03*
X134770000Y-151312000D03*
%TD*%
%TO.N,GPIO5*%
%TO.C,SW_A1*%
X167438000Y-117892000D03*
X173938000Y-117892000D03*
%TO.N,-Vb*%
X167438000Y-122392000D03*
X173938000Y-122392000D03*
%TD*%
%TO.N,GPIO16*%
%TO.C,SW_DOWN1*%
X108002000Y-139990000D03*
X114502000Y-139990000D03*
%TO.N,-Vb*%
X108002000Y-144490000D03*
X114502000Y-144490000D03*
%TD*%
D13*
%TO.N,+Vb*%
%TO.C,J4*%
X105664000Y-70866000D03*
D14*
%TO.N,-Vb*%
X108164000Y-70866000D03*
%TD*%
D12*
%TO.N,GPIO6*%
%TO.C,SW_B1*%
X149606000Y-117928000D03*
X156106000Y-117928000D03*
%TO.N,-Vb*%
X149606000Y-122428000D03*
X156106000Y-122428000D03*
%TD*%
%TO.N,GPIO15*%
%TO.C,SW_UP1*%
X108712000Y-119670000D03*
X115212000Y-119670000D03*
%TO.N,-Vb*%
X108712000Y-124170000D03*
X115212000Y-124170000D03*
%TD*%
D15*
%TO.N,unconnected-(J12-SHIELD-PadS1)*%
%TO.C,J12*%
X94224000Y-110490000D03*
X90424000Y-110490000D03*
X94224000Y-119130000D03*
X90424000Y-119130000D03*
%TD*%
D12*
%TO.N,GPIO18*%
%TO.C,SW_LEFT1*%
X97842000Y-129830000D03*
X104342000Y-129830000D03*
%TO.N,-Vb*%
X97842000Y-134330000D03*
X104342000Y-134330000D03*
%TD*%
%TO.N,GPIO17*%
%TO.C,SW_RIGHT1*%
X118162000Y-129830000D03*
X124662000Y-129830000D03*
%TO.N,-Vb*%
X118162000Y-134330000D03*
X124662000Y-134330000D03*
%TD*%
D16*
%TO.N,*%
%TO.C,SW1*%
X89884000Y-76672000D03*
X89884000Y-84872000D03*
D17*
%TO.N,Vout_reg*%
X89884000Y-78772000D03*
D18*
%TO.N,+3.3V*%
X89884000Y-80772000D03*
%TO.N,unconnected-(SW1-A-Pad3)*%
X89884000Y-82772000D03*
%TD*%
D10*
%TO.N,Vout_reg*%
%TO.C,J6*%
X108966000Y-97282000D03*
D11*
%TO.N,-Vb*%
X106426000Y-97282000D03*
%TO.N,+Vb*%
X103886000Y-97282000D03*
%TD*%
D10*
%TO.N,+3.3V*%
%TO.C,J1*%
X124714000Y-109474000D03*
D11*
%TO.N,unconnected-(J1-Pin_2-Pad2)*%
X127254000Y-109474000D03*
%TO.N,GPIO4*%
X129794000Y-109474000D03*
%TO.N,GPIO5*%
X132334000Y-109474000D03*
%TO.N,GPIO6*%
X134874000Y-109474000D03*
%TO.N,GPIO7*%
X137414000Y-109474000D03*
%TO.N,GPIO15*%
X139954000Y-109474000D03*
%TO.N,GPIO16*%
X142494000Y-109474000D03*
%TO.N,GPIO17*%
X145034000Y-109474000D03*
%TO.N,GPIO18*%
X147574000Y-109474000D03*
%TO.N,GPIO8*%
X150114000Y-109474000D03*
%TO.N,unconnected-(J1-Pin_12-Pad12)*%
X152654000Y-109474000D03*
%TO.N,unconnected-(J1-Pin_13-Pad13)*%
X155194000Y-109474000D03*
%TO.N,GPIO9*%
X157734000Y-109474000D03*
%TO.N,GPIO10*%
X160274000Y-109474000D03*
%TO.N,GPIO11*%
X162814000Y-109474000D03*
%TO.N,GPIO12*%
X165354000Y-109474000D03*
%TO.N,GPIO13*%
X167894000Y-109474000D03*
%TO.N,unconnected-(J1-Pin_19-Pad19)*%
X170434000Y-109474000D03*
%TO.N,+5V*%
X172974000Y-109474000D03*
%TD*%
D10*
%TO.N,unconnected-(J2-Pin_1-Pad1)*%
%TO.C,J2*%
X124714000Y-84074000D03*
D11*
%TO.N,unconnected-(J2-Pin_2-Pad2)*%
X127254000Y-84074000D03*
%TO.N,unconnected-(J2-Pin_3-Pad3)*%
X129794000Y-84074000D03*
%TO.N,unconnected-(J2-Pin_4-Pad4)*%
X132334000Y-84074000D03*
%TO.N,GPIO42*%
X134874000Y-84074000D03*
%TO.N,GPIO41*%
X137414000Y-84074000D03*
%TO.N,unconnected-(J2-Pin_7-Pad7)*%
X139954000Y-84074000D03*
%TO.N,unconnected-(J2-Pin_8-Pad8)*%
X142494000Y-84074000D03*
%TO.N,unconnected-(J2-Pin_9-Pad9)*%
X145034000Y-84074000D03*
%TO.N,unconnected-(J2-Pin_10-Pad10)*%
X147574000Y-84074000D03*
%TO.N,unconnected-(J2-Pin_11-Pad11)*%
X150114000Y-84074000D03*
%TO.N,unconnected-(J2-Pin_12-Pad12)*%
X152654000Y-84074000D03*
%TO.N,unconnected-(J2-Pin_13-Pad13)*%
X155194000Y-84074000D03*
%TO.N,unconnected-(J2-Pin_14-Pad14)*%
X157734000Y-84074000D03*
%TO.N,unconnected-(J2-Pin_15-Pad15)*%
X160274000Y-84074000D03*
%TO.N,GPIO47*%
X162814000Y-84074000D03*
%TO.N,GPIO21*%
X165354000Y-84074000D03*
%TO.N,unconnected-(J2-Pin_18-Pad18)*%
X167894000Y-84074000D03*
%TO.N,unconnected-(J2-Pin_19-Pad19)*%
X170434000Y-84074000D03*
%TO.N,-Vb*%
X172974000Y-84074000D03*
%TD*%
D10*
%TO.N,+VIN_charge*%
%TO.C,J8*%
X111760000Y-110490000D03*
%TD*%
%TO.N,GPIO4*%
%TO.C,J5*%
X184887000Y-91719000D03*
D11*
%TO.N,GPIO12*%
X184887000Y-94259000D03*
%TO.N,GPIO11*%
X184887000Y-96799000D03*
%TO.N,GPIO13*%
X184887000Y-99339000D03*
%TO.N,+3.3V*%
X184887000Y-101879000D03*
%TO.N,-Vb*%
X184887000Y-104419000D03*
%TD*%
D10*
%TO.N,-VIN_charge*%
%TO.C,J9*%
X101600000Y-110490000D03*
%TD*%
%TO.N,+Vb*%
%TO.C,J10*%
X101600000Y-82550000D03*
%TD*%
%TO.N,-Vb*%
%TO.C,J11*%
X111760000Y-82550000D03*
%TD*%
D19*
%TO.N,+3.3V*%
X111506000Y-132334000D03*
X131318000Y-131826000D03*
X133096000Y-138938000D03*
%TO.N,-Vb*%
X118618000Y-78486000D03*
%TO.N,+3.3V*%
X146050000Y-122428000D03*
X138938000Y-139192000D03*
X161036000Y-140462000D03*
X163322000Y-121412000D03*
X102362000Y-121666000D03*
X101092000Y-123190000D03*
%TD*%
%TA.AperFunction,Conductor*%
%TO.N,+3.3V*%
G36*
X184212363Y-38112185D02*
G01*
X184233005Y-38128819D01*
X208505181Y-62400995D01*
X208538666Y-62462318D01*
X208541500Y-62488676D01*
X208541500Y-132837324D01*
X208521815Y-132904363D01*
X208505181Y-132925005D01*
X184233005Y-157197181D01*
X184171682Y-157230666D01*
X184145324Y-157233500D01*
X111510676Y-157233500D01*
X111443637Y-157213815D01*
X111422995Y-157197181D01*
X108535001Y-154309187D01*
X111533500Y-154309187D01*
X111553794Y-154443823D01*
X111572604Y-154568615D01*
X111572605Y-154568617D01*
X111572606Y-154568623D01*
X111649938Y-154819326D01*
X111763767Y-155055696D01*
X111763768Y-155055697D01*
X111763770Y-155055700D01*
X111763772Y-155055704D01*
X111911567Y-155272479D01*
X112090014Y-155464801D01*
X112090018Y-155464804D01*
X112090019Y-155464805D01*
X112295143Y-155628386D01*
X112522357Y-155759568D01*
X112766584Y-155855420D01*
X113022370Y-155913802D01*
X113022376Y-155913802D01*
X113022379Y-155913803D01*
X113218484Y-155928499D01*
X113218503Y-155928499D01*
X113218506Y-155928500D01*
X113218508Y-155928500D01*
X113349492Y-155928500D01*
X113349494Y-155928500D01*
X113349496Y-155928499D01*
X113349515Y-155928499D01*
X113545620Y-155913803D01*
X113545622Y-155913802D01*
X113545630Y-155913802D01*
X113801416Y-155855420D01*
X114045643Y-155759568D01*
X114272857Y-155628386D01*
X114477981Y-155464805D01*
X114656433Y-155272479D01*
X114804228Y-155055704D01*
X114918063Y-154819323D01*
X114995396Y-154568615D01*
X115034500Y-154309182D01*
X115034500Y-154046818D01*
X114995396Y-153787385D01*
X114918063Y-153536677D01*
X114906121Y-153511880D01*
X114804232Y-153300303D01*
X114804231Y-153300302D01*
X114804230Y-153300301D01*
X114804228Y-153300296D01*
X114799381Y-153293187D01*
X180367500Y-153293187D01*
X180368573Y-153300303D01*
X180406604Y-153552615D01*
X180406605Y-153552617D01*
X180406606Y-153552623D01*
X180483938Y-153803326D01*
X180597767Y-154039696D01*
X180597768Y-154039697D01*
X180597770Y-154039700D01*
X180597772Y-154039704D01*
X180745567Y-154256479D01*
X180924014Y-154448801D01*
X180924018Y-154448804D01*
X180924019Y-154448805D01*
X181129143Y-154612386D01*
X181356357Y-154743568D01*
X181600584Y-154839420D01*
X181856370Y-154897802D01*
X181856376Y-154897802D01*
X181856379Y-154897803D01*
X182052484Y-154912499D01*
X182052503Y-154912499D01*
X182052506Y-154912500D01*
X182052508Y-154912500D01*
X182183492Y-154912500D01*
X182183494Y-154912500D01*
X182183496Y-154912499D01*
X182183515Y-154912499D01*
X182379620Y-154897803D01*
X182379622Y-154897802D01*
X182379630Y-154897802D01*
X182635416Y-154839420D01*
X182879643Y-154743568D01*
X183106857Y-154612386D01*
X183311981Y-154448805D01*
X183490433Y-154256479D01*
X183638228Y-154039704D01*
X183752063Y-153803323D01*
X183829396Y-153552615D01*
X183868500Y-153293182D01*
X183868500Y-153030818D01*
X183829396Y-152771385D01*
X183752063Y-152520677D01*
X183714269Y-152442196D01*
X183638232Y-152284303D01*
X183638231Y-152284302D01*
X183638230Y-152284301D01*
X183638228Y-152284296D01*
X183490433Y-152067521D01*
X183411807Y-151982782D01*
X183311985Y-151875198D01*
X183218794Y-151800881D01*
X183106857Y-151711614D01*
X182879643Y-151580432D01*
X182635416Y-151484580D01*
X182635411Y-151484578D01*
X182635402Y-151484576D01*
X182417818Y-151434914D01*
X182379630Y-151426198D01*
X182379629Y-151426197D01*
X182379625Y-151426197D01*
X182379620Y-151426196D01*
X182183515Y-151411500D01*
X182183494Y-151411500D01*
X182052506Y-151411500D01*
X182052484Y-151411500D01*
X181856379Y-151426196D01*
X181856374Y-151426197D01*
X181600597Y-151484576D01*
X181600578Y-151484582D01*
X181356356Y-151580432D01*
X181129143Y-151711614D01*
X180924014Y-151875198D01*
X180745567Y-152067520D01*
X180597768Y-152284302D01*
X180597767Y-152284303D01*
X180483938Y-152520673D01*
X180406606Y-152771376D01*
X180406605Y-152771381D01*
X180406604Y-152771385D01*
X180400407Y-152812500D01*
X180367500Y-153030812D01*
X180367500Y-153293187D01*
X114799381Y-153293187D01*
X114656433Y-153083521D01*
X114607531Y-153030817D01*
X114477985Y-152891198D01*
X114438533Y-152859736D01*
X114272857Y-152727614D01*
X114045643Y-152596432D01*
X113801416Y-152500580D01*
X113801411Y-152500578D01*
X113801402Y-152500576D01*
X113583818Y-152450914D01*
X113545630Y-152442198D01*
X113545629Y-152442197D01*
X113545625Y-152442197D01*
X113545620Y-152442196D01*
X113349515Y-152427500D01*
X113349494Y-152427500D01*
X113218506Y-152427500D01*
X113218484Y-152427500D01*
X113022379Y-152442196D01*
X113022374Y-152442197D01*
X112766597Y-152500576D01*
X112766578Y-152500582D01*
X112522356Y-152596432D01*
X112295143Y-152727614D01*
X112090014Y-152891198D01*
X111911567Y-153083520D01*
X111763768Y-153300302D01*
X111763767Y-153300303D01*
X111649938Y-153536673D01*
X111572606Y-153787376D01*
X111572605Y-153787381D01*
X111572604Y-153787385D01*
X111557853Y-153885247D01*
X111533500Y-154046812D01*
X111533500Y-154309187D01*
X108535001Y-154309187D01*
X105537819Y-151312005D01*
X126764357Y-151312005D01*
X126784890Y-151559812D01*
X126784892Y-151559824D01*
X126845936Y-151800881D01*
X126945826Y-152028606D01*
X127081833Y-152236782D01*
X127081836Y-152236785D01*
X127250256Y-152419738D01*
X127446491Y-152572474D01*
X127665190Y-152690828D01*
X127900386Y-152771571D01*
X128145665Y-152812500D01*
X128394335Y-152812500D01*
X128639614Y-152771571D01*
X128874810Y-152690828D01*
X129093509Y-152572474D01*
X129289744Y-152419738D01*
X129458164Y-152236785D01*
X129594173Y-152028607D01*
X129694063Y-151800881D01*
X129755108Y-151559821D01*
X129756180Y-151546881D01*
X129775643Y-151312005D01*
X133264357Y-151312005D01*
X133284890Y-151559812D01*
X133284892Y-151559824D01*
X133345936Y-151800881D01*
X133445826Y-152028606D01*
X133581833Y-152236782D01*
X133581836Y-152236785D01*
X133750256Y-152419738D01*
X133946491Y-152572474D01*
X134165190Y-152690828D01*
X134400386Y-152771571D01*
X134645665Y-152812500D01*
X134894335Y-152812500D01*
X135139614Y-152771571D01*
X135374810Y-152690828D01*
X135593509Y-152572474D01*
X135789744Y-152419738D01*
X135958164Y-152236785D01*
X136094173Y-152028607D01*
X136194063Y-151800881D01*
X136255108Y-151559821D01*
X136256180Y-151546881D01*
X136275643Y-151312005D01*
X136275643Y-151311994D01*
X136255109Y-151064187D01*
X136255107Y-151064175D01*
X136253545Y-151058005D01*
X139718357Y-151058005D01*
X139738890Y-151305812D01*
X139738892Y-151305824D01*
X139799936Y-151546881D01*
X139899826Y-151774606D01*
X140035833Y-151982782D01*
X140035836Y-151982785D01*
X140204256Y-152165738D01*
X140400491Y-152318474D01*
X140619190Y-152436828D01*
X140854386Y-152517571D01*
X141099665Y-152558500D01*
X141348335Y-152558500D01*
X141593614Y-152517571D01*
X141828810Y-152436828D01*
X142047509Y-152318474D01*
X142243744Y-152165738D01*
X142412164Y-151982785D01*
X142548173Y-151774607D01*
X142648063Y-151546881D01*
X142709108Y-151305821D01*
X142709109Y-151305812D01*
X142729643Y-151058005D01*
X146218357Y-151058005D01*
X146238890Y-151305812D01*
X146238892Y-151305824D01*
X146299936Y-151546881D01*
X146399826Y-151774606D01*
X146535833Y-151982782D01*
X146535836Y-151982785D01*
X146704256Y-152165738D01*
X146900491Y-152318474D01*
X147119190Y-152436828D01*
X147354386Y-152517571D01*
X147599665Y-152558500D01*
X147848335Y-152558500D01*
X148093614Y-152517571D01*
X148328810Y-152436828D01*
X148547509Y-152318474D01*
X148743744Y-152165738D01*
X148912164Y-151982785D01*
X149048173Y-151774607D01*
X149148063Y-151546881D01*
X149209108Y-151305821D01*
X149209109Y-151305812D01*
X149229643Y-151058005D01*
X149229643Y-151057994D01*
X149209109Y-150810187D01*
X149209107Y-150810175D01*
X149148063Y-150569118D01*
X149048173Y-150341393D01*
X148912166Y-150133217D01*
X148836962Y-150051524D01*
X148743744Y-149950262D01*
X148547509Y-149797526D01*
X148547507Y-149797525D01*
X148547506Y-149797524D01*
X148328811Y-149679172D01*
X148328802Y-149679169D01*
X148093616Y-149598429D01*
X147848335Y-149557500D01*
X147599665Y-149557500D01*
X147354383Y-149598429D01*
X147119197Y-149679169D01*
X147119188Y-149679172D01*
X146900493Y-149797524D01*
X146704257Y-149950261D01*
X146535833Y-150133217D01*
X146399826Y-150341393D01*
X146299936Y-150569118D01*
X146238892Y-150810175D01*
X146238890Y-150810187D01*
X146218357Y-151057994D01*
X146218357Y-151058005D01*
X142729643Y-151058005D01*
X142729643Y-151057994D01*
X142709109Y-150810187D01*
X142709107Y-150810175D01*
X142648063Y-150569118D01*
X142548173Y-150341393D01*
X142412166Y-150133217D01*
X142336962Y-150051524D01*
X142243744Y-149950262D01*
X142047509Y-149797526D01*
X142047507Y-149797525D01*
X142047506Y-149797524D01*
X141828811Y-149679172D01*
X141828802Y-149679169D01*
X141593616Y-149598429D01*
X141348335Y-149557500D01*
X141099665Y-149557500D01*
X140854383Y-149598429D01*
X140619197Y-149679169D01*
X140619188Y-149679172D01*
X140400493Y-149797524D01*
X140204257Y-149950261D01*
X140035833Y-150133217D01*
X139899826Y-150341393D01*
X139799936Y-150569118D01*
X139738892Y-150810175D01*
X139738890Y-150810187D01*
X139718357Y-151057994D01*
X139718357Y-151058005D01*
X136253545Y-151058005D01*
X136194063Y-150823118D01*
X136094173Y-150595393D01*
X135958166Y-150387217D01*
X135915982Y-150341393D01*
X135789744Y-150204262D01*
X135593509Y-150051526D01*
X135593507Y-150051525D01*
X135593506Y-150051524D01*
X135374811Y-149933172D01*
X135374802Y-149933169D01*
X135139616Y-149852429D01*
X134894335Y-149811500D01*
X134645665Y-149811500D01*
X134400383Y-149852429D01*
X134165197Y-149933169D01*
X134165188Y-149933172D01*
X133946493Y-150051524D01*
X133750257Y-150204261D01*
X133581833Y-150387217D01*
X133445826Y-150595393D01*
X133345936Y-150823118D01*
X133284892Y-151064175D01*
X133284890Y-151064187D01*
X133264357Y-151311994D01*
X133264357Y-151312005D01*
X129775643Y-151312005D01*
X129775643Y-151311994D01*
X129755109Y-151064187D01*
X129755107Y-151064175D01*
X129694063Y-150823118D01*
X129594173Y-150595393D01*
X129458166Y-150387217D01*
X129415982Y-150341393D01*
X129289744Y-150204262D01*
X129093509Y-150051526D01*
X129093507Y-150051525D01*
X129093506Y-150051524D01*
X128874811Y-149933172D01*
X128874802Y-149933169D01*
X128639616Y-149852429D01*
X128394335Y-149811500D01*
X128145665Y-149811500D01*
X127900383Y-149852429D01*
X127665197Y-149933169D01*
X127665188Y-149933172D01*
X127446493Y-150051524D01*
X127250257Y-150204261D01*
X127081833Y-150387217D01*
X126945826Y-150595393D01*
X126845936Y-150823118D01*
X126784892Y-151064175D01*
X126784890Y-151064187D01*
X126764357Y-151311994D01*
X126764357Y-151312005D01*
X105537819Y-151312005D01*
X101037819Y-146812005D01*
X126764357Y-146812005D01*
X126784890Y-147059812D01*
X126784892Y-147059824D01*
X126845936Y-147300881D01*
X126945826Y-147528606D01*
X127081833Y-147736782D01*
X127081836Y-147736785D01*
X127250256Y-147919738D01*
X127446491Y-148072474D01*
X127665190Y-148190828D01*
X127900386Y-148271571D01*
X128145665Y-148312500D01*
X128394335Y-148312500D01*
X128639614Y-148271571D01*
X128874810Y-148190828D01*
X129093509Y-148072474D01*
X129289744Y-147919738D01*
X129458164Y-147736785D01*
X129594173Y-147528607D01*
X129694063Y-147300881D01*
X129755108Y-147059821D01*
X129775643Y-146812005D01*
X133264357Y-146812005D01*
X133284890Y-147059812D01*
X133284892Y-147059824D01*
X133345936Y-147300881D01*
X133445826Y-147528606D01*
X133581833Y-147736782D01*
X133581836Y-147736785D01*
X133750256Y-147919738D01*
X133946491Y-148072474D01*
X134165190Y-148190828D01*
X134400386Y-148271571D01*
X134645665Y-148312500D01*
X134894335Y-148312500D01*
X135139614Y-148271571D01*
X135374810Y-148190828D01*
X135593509Y-148072474D01*
X135789744Y-147919738D01*
X135958164Y-147736785D01*
X136094173Y-147528607D01*
X136194063Y-147300881D01*
X136255108Y-147059821D01*
X136275643Y-146812000D01*
X136275131Y-146805824D01*
X136255109Y-146564187D01*
X136255107Y-146564175D01*
X136253545Y-146558005D01*
X139718357Y-146558005D01*
X139738890Y-146805812D01*
X139738892Y-146805824D01*
X139799936Y-147046881D01*
X139899826Y-147274606D01*
X140035833Y-147482782D01*
X140035836Y-147482785D01*
X140204256Y-147665738D01*
X140400491Y-147818474D01*
X140619190Y-147936828D01*
X140854386Y-148017571D01*
X141099665Y-148058500D01*
X141348335Y-148058500D01*
X141593614Y-148017571D01*
X141828810Y-147936828D01*
X142047509Y-147818474D01*
X142243744Y-147665738D01*
X142412164Y-147482785D01*
X142548173Y-147274607D01*
X142648063Y-147046881D01*
X142709108Y-146805821D01*
X142709109Y-146805812D01*
X142729643Y-146558005D01*
X146218357Y-146558005D01*
X146238890Y-146805812D01*
X146238892Y-146805824D01*
X146299936Y-147046881D01*
X146399826Y-147274606D01*
X146535833Y-147482782D01*
X146535836Y-147482785D01*
X146704256Y-147665738D01*
X146900491Y-147818474D01*
X147119190Y-147936828D01*
X147354386Y-148017571D01*
X147599665Y-148058500D01*
X147848335Y-148058500D01*
X148093614Y-148017571D01*
X148328810Y-147936828D01*
X148547509Y-147818474D01*
X148743744Y-147665738D01*
X148912164Y-147482785D01*
X149048173Y-147274607D01*
X149148063Y-147046881D01*
X149209108Y-146805821D01*
X149209109Y-146805812D01*
X149229643Y-146558005D01*
X149229643Y-146557994D01*
X149209109Y-146310187D01*
X149209107Y-146310175D01*
X149148063Y-146069118D01*
X149048173Y-145841393D01*
X148912166Y-145633217D01*
X148836962Y-145551524D01*
X148743744Y-145450262D01*
X148547509Y-145297526D01*
X148547507Y-145297525D01*
X148547506Y-145297524D01*
X148328811Y-145179172D01*
X148328802Y-145179169D01*
X148093616Y-145098429D01*
X147848335Y-145057500D01*
X147599665Y-145057500D01*
X147354383Y-145098429D01*
X147119197Y-145179169D01*
X147119188Y-145179172D01*
X146900493Y-145297524D01*
X146704257Y-145450261D01*
X146535833Y-145633217D01*
X146399826Y-145841393D01*
X146299936Y-146069118D01*
X146238892Y-146310175D01*
X146238890Y-146310187D01*
X146218357Y-146557994D01*
X146218357Y-146558005D01*
X142729643Y-146558005D01*
X142729643Y-146557994D01*
X142709109Y-146310187D01*
X142709107Y-146310175D01*
X142648063Y-146069118D01*
X142548173Y-145841393D01*
X142412166Y-145633217D01*
X142336962Y-145551524D01*
X142243744Y-145450262D01*
X142047509Y-145297526D01*
X142047507Y-145297525D01*
X142047506Y-145297524D01*
X141828811Y-145179172D01*
X141828802Y-145179169D01*
X141593616Y-145098429D01*
X141348335Y-145057500D01*
X141099665Y-145057500D01*
X140854383Y-145098429D01*
X140619197Y-145179169D01*
X140619188Y-145179172D01*
X140400493Y-145297524D01*
X140204257Y-145450261D01*
X140035833Y-145633217D01*
X139899826Y-145841393D01*
X139799936Y-146069118D01*
X139738892Y-146310175D01*
X139738890Y-146310187D01*
X139718357Y-146557994D01*
X139718357Y-146558005D01*
X136253545Y-146558005D01*
X136194063Y-146323118D01*
X136094173Y-146095393D01*
X135958166Y-145887217D01*
X135915982Y-145841393D01*
X135789744Y-145704262D01*
X135593509Y-145551526D01*
X135593507Y-145551525D01*
X135593506Y-145551524D01*
X135374811Y-145433172D01*
X135374802Y-145433169D01*
X135139616Y-145352429D01*
X134894335Y-145311500D01*
X134645665Y-145311500D01*
X134400383Y-145352429D01*
X134165197Y-145433169D01*
X134165188Y-145433172D01*
X133946493Y-145551524D01*
X133750257Y-145704261D01*
X133581833Y-145887217D01*
X133445826Y-146095393D01*
X133345936Y-146323118D01*
X133284892Y-146564175D01*
X133284890Y-146564187D01*
X133264357Y-146811994D01*
X133264357Y-146812005D01*
X129775643Y-146812005D01*
X129775643Y-146812000D01*
X129775131Y-146805824D01*
X129755109Y-146564187D01*
X129755107Y-146564175D01*
X129694063Y-146323118D01*
X129594173Y-146095393D01*
X129458166Y-145887217D01*
X129415982Y-145841393D01*
X129289744Y-145704262D01*
X129093509Y-145551526D01*
X129093507Y-145551525D01*
X129093506Y-145551524D01*
X128874811Y-145433172D01*
X128874802Y-145433169D01*
X128639616Y-145352429D01*
X128394335Y-145311500D01*
X128145665Y-145311500D01*
X127900383Y-145352429D01*
X127665197Y-145433169D01*
X127665188Y-145433172D01*
X127446493Y-145551524D01*
X127250257Y-145704261D01*
X127081833Y-145887217D01*
X126945826Y-146095393D01*
X126845936Y-146323118D01*
X126784892Y-146564175D01*
X126784890Y-146564187D01*
X126764357Y-146811994D01*
X126764357Y-146812005D01*
X101037819Y-146812005D01*
X98715819Y-144490005D01*
X106496357Y-144490005D01*
X106516890Y-144737812D01*
X106516892Y-144737824D01*
X106577936Y-144978881D01*
X106677826Y-145206606D01*
X106813833Y-145414782D01*
X106813836Y-145414785D01*
X106982256Y-145597738D01*
X107178491Y-145750474D01*
X107178493Y-145750475D01*
X107346494Y-145841393D01*
X107397190Y-145868828D01*
X107632386Y-145949571D01*
X107877665Y-145990500D01*
X108126335Y-145990500D01*
X108371614Y-145949571D01*
X108606810Y-145868828D01*
X108825509Y-145750474D01*
X109021744Y-145597738D01*
X109190164Y-145414785D01*
X109326173Y-145206607D01*
X109426063Y-144978881D01*
X109487108Y-144737821D01*
X109507643Y-144490005D01*
X112996357Y-144490005D01*
X113016890Y-144737812D01*
X113016892Y-144737824D01*
X113077936Y-144978881D01*
X113177826Y-145206606D01*
X113313833Y-145414782D01*
X113313836Y-145414785D01*
X113482256Y-145597738D01*
X113678491Y-145750474D01*
X113678493Y-145750475D01*
X113846494Y-145841393D01*
X113897190Y-145868828D01*
X114132386Y-145949571D01*
X114377665Y-145990500D01*
X114626335Y-145990500D01*
X114871614Y-145949571D01*
X115106810Y-145868828D01*
X115325509Y-145750474D01*
X115521744Y-145597738D01*
X115690164Y-145414785D01*
X115826173Y-145206607D01*
X115926063Y-144978881D01*
X115987108Y-144737821D01*
X116007643Y-144490000D01*
X115987108Y-144242179D01*
X115926063Y-144001119D01*
X115826173Y-143773393D01*
X115690166Y-143565217D01*
X115668557Y-143541744D01*
X115521744Y-143382262D01*
X115325509Y-143229526D01*
X115325507Y-143229525D01*
X115325506Y-143229524D01*
X115106811Y-143111172D01*
X115106802Y-143111169D01*
X114871616Y-143030429D01*
X114626335Y-142989500D01*
X114377665Y-142989500D01*
X114132383Y-143030429D01*
X113897197Y-143111169D01*
X113897188Y-143111172D01*
X113678493Y-143229524D01*
X113482257Y-143382261D01*
X113313833Y-143565217D01*
X113177826Y-143773393D01*
X113077936Y-144001118D01*
X113016892Y-144242175D01*
X113016890Y-144242187D01*
X112996357Y-144489994D01*
X112996357Y-144490005D01*
X109507643Y-144490005D01*
X109507643Y-144490000D01*
X109487108Y-144242179D01*
X109426063Y-144001119D01*
X109326173Y-143773393D01*
X109190166Y-143565217D01*
X109168557Y-143541744D01*
X109021744Y-143382262D01*
X108825509Y-143229526D01*
X108825507Y-143229525D01*
X108825506Y-143229524D01*
X108606811Y-143111172D01*
X108606802Y-143111169D01*
X108371616Y-143030429D01*
X108126335Y-142989500D01*
X107877665Y-142989500D01*
X107632383Y-143030429D01*
X107397197Y-143111169D01*
X107397188Y-143111172D01*
X107178493Y-143229524D01*
X106982257Y-143382261D01*
X106813833Y-143565217D01*
X106677826Y-143773393D01*
X106577936Y-144001118D01*
X106516892Y-144242175D01*
X106516890Y-144242187D01*
X106496357Y-144489994D01*
X106496357Y-144490005D01*
X98715819Y-144490005D01*
X94215819Y-139990005D01*
X106496357Y-139990005D01*
X106516890Y-140237812D01*
X106516892Y-140237824D01*
X106577936Y-140478881D01*
X106677826Y-140706606D01*
X106813833Y-140914782D01*
X106813836Y-140914785D01*
X106982256Y-141097738D01*
X107178491Y-141250474D01*
X107397190Y-141368828D01*
X107632386Y-141449571D01*
X107877665Y-141490500D01*
X108126335Y-141490500D01*
X108371614Y-141449571D01*
X108606810Y-141368828D01*
X108825509Y-141250474D01*
X109021744Y-141097738D01*
X109190164Y-140914785D01*
X109326173Y-140706607D01*
X109426063Y-140478881D01*
X109487108Y-140237821D01*
X109507643Y-139990005D01*
X112996357Y-139990005D01*
X113016890Y-140237812D01*
X113016892Y-140237824D01*
X113077936Y-140478881D01*
X113177826Y-140706606D01*
X113313833Y-140914782D01*
X113313836Y-140914785D01*
X113482256Y-141097738D01*
X113678491Y-141250474D01*
X113897190Y-141368828D01*
X114132386Y-141449571D01*
X114377665Y-141490500D01*
X114626335Y-141490500D01*
X114871614Y-141449571D01*
X115106810Y-141368828D01*
X115325509Y-141250474D01*
X115521744Y-141097738D01*
X115690164Y-140914785D01*
X115826173Y-140706607D01*
X115926063Y-140478881D01*
X115987108Y-140237821D01*
X116007643Y-139990000D01*
X115987108Y-139742179D01*
X115926063Y-139501119D01*
X115826173Y-139273393D01*
X115690166Y-139065217D01*
X115668557Y-139041744D01*
X115521744Y-138882262D01*
X115325509Y-138729526D01*
X115325507Y-138729525D01*
X115325506Y-138729524D01*
X115106811Y-138611172D01*
X115106802Y-138611169D01*
X114871616Y-138530429D01*
X114626335Y-138489500D01*
X114377665Y-138489500D01*
X114132383Y-138530429D01*
X113897197Y-138611169D01*
X113897188Y-138611172D01*
X113678493Y-138729524D01*
X113482257Y-138882261D01*
X113313833Y-139065217D01*
X113177826Y-139273393D01*
X113077936Y-139501118D01*
X113016892Y-139742175D01*
X113016890Y-139742187D01*
X112996357Y-139989994D01*
X112996357Y-139990005D01*
X109507643Y-139990005D01*
X109507643Y-139990000D01*
X109487108Y-139742179D01*
X109426063Y-139501119D01*
X109326173Y-139273393D01*
X109190166Y-139065217D01*
X109168557Y-139041744D01*
X109021744Y-138882262D01*
X108825509Y-138729526D01*
X108825507Y-138729525D01*
X108825506Y-138729524D01*
X108606811Y-138611172D01*
X108606802Y-138611169D01*
X108371616Y-138530429D01*
X108126335Y-138489500D01*
X107877665Y-138489500D01*
X107632383Y-138530429D01*
X107397197Y-138611169D01*
X107397188Y-138611172D01*
X107178493Y-138729524D01*
X106982257Y-138882261D01*
X106813833Y-139065217D01*
X106677826Y-139273393D01*
X106577936Y-139501118D01*
X106516892Y-139742175D01*
X106516890Y-139742187D01*
X106496357Y-139989994D01*
X106496357Y-139990005D01*
X94215819Y-139990005D01*
X88555819Y-134330005D01*
X96336357Y-134330005D01*
X96356890Y-134577812D01*
X96356892Y-134577824D01*
X96417936Y-134818881D01*
X96517826Y-135046606D01*
X96653833Y-135254782D01*
X96653836Y-135254785D01*
X96822256Y-135437738D01*
X97018491Y-135590474D01*
X97237190Y-135708828D01*
X97472386Y-135789571D01*
X97717665Y-135830500D01*
X97966335Y-135830500D01*
X98211614Y-135789571D01*
X98446810Y-135708828D01*
X98665509Y-135590474D01*
X98861744Y-135437738D01*
X99030164Y-135254785D01*
X99166173Y-135046607D01*
X99266063Y-134818881D01*
X99327108Y-134577821D01*
X99347643Y-134330005D01*
X102836357Y-134330005D01*
X102856890Y-134577812D01*
X102856892Y-134577824D01*
X102917936Y-134818881D01*
X103017826Y-135046606D01*
X103153833Y-135254782D01*
X103153836Y-135254785D01*
X103322256Y-135437738D01*
X103518491Y-135590474D01*
X103737190Y-135708828D01*
X103972386Y-135789571D01*
X104217665Y-135830500D01*
X104466335Y-135830500D01*
X104711614Y-135789571D01*
X104946810Y-135708828D01*
X105165509Y-135590474D01*
X105361744Y-135437738D01*
X105530164Y-135254785D01*
X105666173Y-135046607D01*
X105766063Y-134818881D01*
X105827108Y-134577821D01*
X105847643Y-134330005D01*
X116656357Y-134330005D01*
X116676890Y-134577812D01*
X116676892Y-134577824D01*
X116737936Y-134818881D01*
X116837826Y-135046606D01*
X116973833Y-135254782D01*
X116973836Y-135254785D01*
X117142256Y-135437738D01*
X117338491Y-135590474D01*
X117557190Y-135708828D01*
X117792386Y-135789571D01*
X118037665Y-135830500D01*
X118286335Y-135830500D01*
X118531614Y-135789571D01*
X118766810Y-135708828D01*
X118985509Y-135590474D01*
X119181744Y-135437738D01*
X119350164Y-135254785D01*
X119486173Y-135046607D01*
X119586063Y-134818881D01*
X119647108Y-134577821D01*
X119667643Y-134330005D01*
X123156357Y-134330005D01*
X123176890Y-134577812D01*
X123176892Y-134577824D01*
X123237936Y-134818881D01*
X123337826Y-135046606D01*
X123473833Y-135254782D01*
X123473836Y-135254785D01*
X123642256Y-135437738D01*
X123838491Y-135590474D01*
X124057190Y-135708828D01*
X124292386Y-135789571D01*
X124537665Y-135830500D01*
X124786335Y-135830500D01*
X125031614Y-135789571D01*
X125266810Y-135708828D01*
X125485509Y-135590474D01*
X125681744Y-135437738D01*
X125850164Y-135254785D01*
X125986173Y-135046607D01*
X126086063Y-134818881D01*
X126147108Y-134577821D01*
X126167643Y-134330000D01*
X126147108Y-134082179D01*
X126086063Y-133841119D01*
X125986173Y-133613393D01*
X125904222Y-133487957D01*
X125850166Y-133405217D01*
X125817169Y-133369373D01*
X125681744Y-133222262D01*
X125485509Y-133069526D01*
X125485507Y-133069525D01*
X125485506Y-133069524D01*
X125266811Y-132951172D01*
X125266802Y-132951169D01*
X125031616Y-132870429D01*
X124786335Y-132829500D01*
X124537665Y-132829500D01*
X124292383Y-132870429D01*
X124057197Y-132951169D01*
X124057188Y-132951172D01*
X123838493Y-133069524D01*
X123642257Y-133222261D01*
X123473833Y-133405217D01*
X123337826Y-133613393D01*
X123237936Y-133841118D01*
X123176892Y-134082175D01*
X123176890Y-134082187D01*
X123156357Y-134329994D01*
X123156357Y-134330005D01*
X119667643Y-134330005D01*
X119667643Y-134330000D01*
X119647108Y-134082179D01*
X119586063Y-133841119D01*
X119486173Y-133613393D01*
X119404222Y-133487957D01*
X119350166Y-133405217D01*
X119317169Y-133369373D01*
X119181744Y-133222262D01*
X118985509Y-133069526D01*
X118985507Y-133069525D01*
X118985506Y-133069524D01*
X118766811Y-132951172D01*
X118766802Y-132951169D01*
X118531616Y-132870429D01*
X118286335Y-132829500D01*
X118037665Y-132829500D01*
X117792383Y-132870429D01*
X117557197Y-132951169D01*
X117557188Y-132951172D01*
X117338493Y-133069524D01*
X117142257Y-133222261D01*
X116973833Y-133405217D01*
X116837826Y-133613393D01*
X116737936Y-133841118D01*
X116676892Y-134082175D01*
X116676890Y-134082187D01*
X116656357Y-134329994D01*
X116656357Y-134330005D01*
X105847643Y-134330005D01*
X105847643Y-134330000D01*
X105827108Y-134082179D01*
X105766063Y-133841119D01*
X105666173Y-133613393D01*
X105584222Y-133487957D01*
X105530166Y-133405217D01*
X105497169Y-133369373D01*
X105361744Y-133222262D01*
X105165509Y-133069526D01*
X105165507Y-133069525D01*
X105165506Y-133069524D01*
X104946811Y-132951172D01*
X104946802Y-132951169D01*
X104711616Y-132870429D01*
X104466335Y-132829500D01*
X104217665Y-132829500D01*
X103972383Y-132870429D01*
X103737197Y-132951169D01*
X103737188Y-132951172D01*
X103518493Y-133069524D01*
X103322257Y-133222261D01*
X103153833Y-133405217D01*
X103017826Y-133613393D01*
X102917936Y-133841118D01*
X102856892Y-134082175D01*
X102856890Y-134082187D01*
X102836357Y-134329994D01*
X102836357Y-134330005D01*
X99347643Y-134330005D01*
X99347643Y-134330000D01*
X99327108Y-134082179D01*
X99266063Y-133841119D01*
X99166173Y-133613393D01*
X99084222Y-133487957D01*
X99030166Y-133405217D01*
X98997169Y-133369373D01*
X98861744Y-133222262D01*
X98665509Y-133069526D01*
X98665507Y-133069525D01*
X98665506Y-133069524D01*
X98446811Y-132951172D01*
X98446802Y-132951169D01*
X98211616Y-132870429D01*
X97966335Y-132829500D01*
X97717665Y-132829500D01*
X97472383Y-132870429D01*
X97237197Y-132951169D01*
X97237188Y-132951172D01*
X97018493Y-133069524D01*
X96822257Y-133222261D01*
X96653833Y-133405217D01*
X96517826Y-133613393D01*
X96417936Y-133841118D01*
X96356892Y-134082175D01*
X96356890Y-134082187D01*
X96336357Y-134329994D01*
X96336357Y-134330005D01*
X88555819Y-134330005D01*
X87150819Y-132925005D01*
X87117334Y-132863682D01*
X87114500Y-132837324D01*
X87114500Y-129830005D01*
X96336357Y-129830005D01*
X96356890Y-130077812D01*
X96356892Y-130077824D01*
X96417936Y-130318881D01*
X96517826Y-130546606D01*
X96653833Y-130754782D01*
X96653836Y-130754785D01*
X96822256Y-130937738D01*
X97018491Y-131090474D01*
X97237190Y-131208828D01*
X97472386Y-131289571D01*
X97717665Y-131330500D01*
X97966335Y-131330500D01*
X98211614Y-131289571D01*
X98446810Y-131208828D01*
X98665509Y-131090474D01*
X98861744Y-130937738D01*
X99030164Y-130754785D01*
X99166173Y-130546607D01*
X99266063Y-130318881D01*
X99327108Y-130077821D01*
X99347643Y-129830005D01*
X102836357Y-129830005D01*
X102856890Y-130077812D01*
X102856892Y-130077824D01*
X102917936Y-130318881D01*
X103017826Y-130546606D01*
X103153833Y-130754782D01*
X103153836Y-130754785D01*
X103322256Y-130937738D01*
X103518491Y-131090474D01*
X103737190Y-131208828D01*
X103972386Y-131289571D01*
X104217665Y-131330500D01*
X104466335Y-131330500D01*
X104711614Y-131289571D01*
X104946810Y-131208828D01*
X105165509Y-131090474D01*
X105361744Y-130937738D01*
X105530164Y-130754785D01*
X105666173Y-130546607D01*
X105766063Y-130318881D01*
X105827108Y-130077821D01*
X105847643Y-129830005D01*
X116656357Y-129830005D01*
X116676890Y-130077812D01*
X116676892Y-130077824D01*
X116737936Y-130318881D01*
X116837826Y-130546606D01*
X116973833Y-130754782D01*
X116973836Y-130754785D01*
X117142256Y-130937738D01*
X117338491Y-131090474D01*
X117557190Y-131208828D01*
X117792386Y-131289571D01*
X118037665Y-131330500D01*
X118286335Y-131330500D01*
X118531614Y-131289571D01*
X118766810Y-131208828D01*
X118985509Y-131090474D01*
X119181744Y-130937738D01*
X119350164Y-130754785D01*
X119486173Y-130546607D01*
X119586063Y-130318881D01*
X119647108Y-130077821D01*
X119667643Y-129830005D01*
X123156357Y-129830005D01*
X123176890Y-130077812D01*
X123176892Y-130077824D01*
X123237936Y-130318881D01*
X123337826Y-130546606D01*
X123473833Y-130754782D01*
X123473836Y-130754785D01*
X123642256Y-130937738D01*
X123838491Y-131090474D01*
X124057190Y-131208828D01*
X124292386Y-131289571D01*
X124537665Y-131330500D01*
X124786335Y-131330500D01*
X125031614Y-131289571D01*
X125266810Y-131208828D01*
X125485509Y-131090474D01*
X125681744Y-130937738D01*
X125850164Y-130754785D01*
X125986173Y-130546607D01*
X126086063Y-130318881D01*
X126147108Y-130077821D01*
X126167643Y-129830000D01*
X126147108Y-129582179D01*
X126086063Y-129341119D01*
X125986173Y-129113393D01*
X125850166Y-128905217D01*
X125828557Y-128881744D01*
X125681744Y-128722262D01*
X125485509Y-128569526D01*
X125485507Y-128569525D01*
X125485506Y-128569524D01*
X125266811Y-128451172D01*
X125266802Y-128451169D01*
X125031616Y-128370429D01*
X124786335Y-128329500D01*
X124537665Y-128329500D01*
X124292383Y-128370429D01*
X124057197Y-128451169D01*
X124057188Y-128451172D01*
X123838493Y-128569524D01*
X123642257Y-128722261D01*
X123473833Y-128905217D01*
X123337826Y-129113393D01*
X123237936Y-129341118D01*
X123176892Y-129582175D01*
X123176890Y-129582187D01*
X123156357Y-129829994D01*
X123156357Y-129830005D01*
X119667643Y-129830005D01*
X119667643Y-129830000D01*
X119647108Y-129582179D01*
X119586063Y-129341119D01*
X119486173Y-129113393D01*
X119350166Y-128905217D01*
X119328557Y-128881744D01*
X119181744Y-128722262D01*
X118985509Y-128569526D01*
X118985507Y-128569525D01*
X118985506Y-128569524D01*
X118766811Y-128451172D01*
X118766802Y-128451169D01*
X118531616Y-128370429D01*
X118286335Y-128329500D01*
X118037665Y-128329500D01*
X117792383Y-128370429D01*
X117557197Y-128451169D01*
X117557188Y-128451172D01*
X117338493Y-128569524D01*
X117142257Y-128722261D01*
X116973833Y-128905217D01*
X116837826Y-129113393D01*
X116737936Y-129341118D01*
X116676892Y-129582175D01*
X116676890Y-129582187D01*
X116656357Y-129829994D01*
X116656357Y-129830005D01*
X105847643Y-129830005D01*
X105847643Y-129830000D01*
X105827108Y-129582179D01*
X105766063Y-129341119D01*
X105666173Y-129113393D01*
X105530166Y-128905217D01*
X105508557Y-128881744D01*
X105361744Y-128722262D01*
X105165509Y-128569526D01*
X105165507Y-128569525D01*
X105165506Y-128569524D01*
X104946811Y-128451172D01*
X104946802Y-128451169D01*
X104711616Y-128370429D01*
X104466335Y-128329500D01*
X104217665Y-128329500D01*
X103972383Y-128370429D01*
X103737197Y-128451169D01*
X103737188Y-128451172D01*
X103518493Y-128569524D01*
X103322257Y-128722261D01*
X103153833Y-128905217D01*
X103017826Y-129113393D01*
X102917936Y-129341118D01*
X102856892Y-129582175D01*
X102856890Y-129582187D01*
X102836357Y-129829994D01*
X102836357Y-129830005D01*
X99347643Y-129830005D01*
X99347643Y-129830000D01*
X99327108Y-129582179D01*
X99266063Y-129341119D01*
X99166173Y-129113393D01*
X99030166Y-128905217D01*
X99008557Y-128881744D01*
X98861744Y-128722262D01*
X98665509Y-128569526D01*
X98665507Y-128569525D01*
X98665506Y-128569524D01*
X98446811Y-128451172D01*
X98446802Y-128451169D01*
X98211616Y-128370429D01*
X97966335Y-128329500D01*
X97717665Y-128329500D01*
X97472383Y-128370429D01*
X97237197Y-128451169D01*
X97237188Y-128451172D01*
X97018493Y-128569524D01*
X96822257Y-128722261D01*
X96653833Y-128905217D01*
X96517826Y-129113393D01*
X96417936Y-129341118D01*
X96356892Y-129582175D01*
X96356890Y-129582187D01*
X96336357Y-129829994D01*
X96336357Y-129830005D01*
X87114500Y-129830005D01*
X87114500Y-124170005D01*
X107206357Y-124170005D01*
X107226890Y-124417812D01*
X107226892Y-124417824D01*
X107287936Y-124658881D01*
X107387826Y-124886606D01*
X107523833Y-125094782D01*
X107523836Y-125094785D01*
X107692256Y-125277738D01*
X107888491Y-125430474D01*
X108107190Y-125548828D01*
X108342386Y-125629571D01*
X108587665Y-125670500D01*
X108836335Y-125670500D01*
X109081614Y-125629571D01*
X109316810Y-125548828D01*
X109535509Y-125430474D01*
X109731744Y-125277738D01*
X109900164Y-125094785D01*
X110036173Y-124886607D01*
X110136063Y-124658881D01*
X110197108Y-124417821D01*
X110217643Y-124170005D01*
X113706357Y-124170005D01*
X113726890Y-124417812D01*
X113726892Y-124417824D01*
X113787936Y-124658881D01*
X113887826Y-124886606D01*
X114023833Y-125094782D01*
X114023836Y-125094785D01*
X114192256Y-125277738D01*
X114388491Y-125430474D01*
X114607190Y-125548828D01*
X114842386Y-125629571D01*
X115087665Y-125670500D01*
X115336335Y-125670500D01*
X115581614Y-125629571D01*
X115816810Y-125548828D01*
X116035509Y-125430474D01*
X116231744Y-125277738D01*
X116400164Y-125094785D01*
X116536173Y-124886607D01*
X116636063Y-124658881D01*
X116697108Y-124417821D01*
X116717643Y-124170000D01*
X116697108Y-123922179D01*
X116636063Y-123681119D01*
X116623498Y-123652474D01*
X116536173Y-123453393D01*
X116400166Y-123245217D01*
X116378557Y-123221744D01*
X116231744Y-123062262D01*
X116035509Y-122909526D01*
X116035507Y-122909525D01*
X116035506Y-122909524D01*
X115816811Y-122791172D01*
X115816802Y-122791169D01*
X115581616Y-122710429D01*
X115336335Y-122669500D01*
X115087665Y-122669500D01*
X114842383Y-122710429D01*
X114607197Y-122791169D01*
X114607188Y-122791172D01*
X114388493Y-122909524D01*
X114192257Y-123062261D01*
X114023833Y-123245217D01*
X113887826Y-123453393D01*
X113787936Y-123681118D01*
X113726892Y-123922175D01*
X113726890Y-123922187D01*
X113706357Y-124169994D01*
X113706357Y-124170005D01*
X110217643Y-124170005D01*
X110217643Y-124170000D01*
X110197108Y-123922179D01*
X110136063Y-123681119D01*
X110123498Y-123652474D01*
X110036173Y-123453393D01*
X109900166Y-123245217D01*
X109878557Y-123221744D01*
X109731744Y-123062262D01*
X109535509Y-122909526D01*
X109535507Y-122909525D01*
X109535506Y-122909524D01*
X109316811Y-122791172D01*
X109316802Y-122791169D01*
X109081616Y-122710429D01*
X108836335Y-122669500D01*
X108587665Y-122669500D01*
X108342383Y-122710429D01*
X108107197Y-122791169D01*
X108107188Y-122791172D01*
X107888493Y-122909524D01*
X107692257Y-123062261D01*
X107523833Y-123245217D01*
X107387826Y-123453393D01*
X107287936Y-123681118D01*
X107226892Y-123922175D01*
X107226890Y-123922187D01*
X107206357Y-124169994D01*
X107206357Y-124170005D01*
X87114500Y-124170005D01*
X87114500Y-122428005D01*
X148100357Y-122428005D01*
X148120890Y-122675812D01*
X148120892Y-122675824D01*
X148181936Y-122916881D01*
X148281826Y-123144606D01*
X148417833Y-123352782D01*
X148417836Y-123352785D01*
X148586256Y-123535738D01*
X148782491Y-123688474D01*
X148782493Y-123688475D01*
X148934671Y-123770830D01*
X149001190Y-123806828D01*
X149236386Y-123887571D01*
X149481665Y-123928500D01*
X149730335Y-123928500D01*
X149975614Y-123887571D01*
X150210810Y-123806828D01*
X150429509Y-123688474D01*
X150625744Y-123535738D01*
X150794164Y-123352785D01*
X150930173Y-123144607D01*
X151030063Y-122916881D01*
X151091108Y-122675821D01*
X151111643Y-122428005D01*
X154600357Y-122428005D01*
X154620890Y-122675812D01*
X154620892Y-122675824D01*
X154681936Y-122916881D01*
X154781826Y-123144606D01*
X154917833Y-123352782D01*
X154917836Y-123352785D01*
X155086256Y-123535738D01*
X155282491Y-123688474D01*
X155282493Y-123688475D01*
X155434671Y-123770830D01*
X155501190Y-123806828D01*
X155736386Y-123887571D01*
X155981665Y-123928500D01*
X156230335Y-123928500D01*
X156475614Y-123887571D01*
X156710810Y-123806828D01*
X156929509Y-123688474D01*
X157125744Y-123535738D01*
X157294164Y-123352785D01*
X157430173Y-123144607D01*
X157530063Y-122916881D01*
X157591108Y-122675821D01*
X157611643Y-122428000D01*
X157608660Y-122392005D01*
X165932357Y-122392005D01*
X165952890Y-122639812D01*
X165952892Y-122639824D01*
X166013936Y-122880881D01*
X166113826Y-123108606D01*
X166249833Y-123316782D01*
X166249836Y-123316785D01*
X166418256Y-123499738D01*
X166614491Y-123652474D01*
X166833190Y-123770828D01*
X167068386Y-123851571D01*
X167313665Y-123892500D01*
X167562335Y-123892500D01*
X167807614Y-123851571D01*
X168042810Y-123770828D01*
X168261509Y-123652474D01*
X168457744Y-123499738D01*
X168626164Y-123316785D01*
X168762173Y-123108607D01*
X168862063Y-122880881D01*
X168923108Y-122639821D01*
X168940660Y-122428000D01*
X168943643Y-122392005D01*
X172432357Y-122392005D01*
X172452890Y-122639812D01*
X172452892Y-122639824D01*
X172513936Y-122880881D01*
X172613826Y-123108606D01*
X172749833Y-123316782D01*
X172749836Y-123316785D01*
X172918256Y-123499738D01*
X173114491Y-123652474D01*
X173333190Y-123770828D01*
X173568386Y-123851571D01*
X173813665Y-123892500D01*
X174062335Y-123892500D01*
X174307614Y-123851571D01*
X174542810Y-123770828D01*
X174761509Y-123652474D01*
X174957744Y-123499738D01*
X175126164Y-123316785D01*
X175262173Y-123108607D01*
X175362063Y-122880881D01*
X175423108Y-122639821D01*
X175440660Y-122428000D01*
X175443643Y-122392005D01*
X175443643Y-122391994D01*
X175423109Y-122144187D01*
X175423107Y-122144175D01*
X175362063Y-121903118D01*
X175262173Y-121675393D01*
X175126166Y-121467217D01*
X175104557Y-121443744D01*
X174957744Y-121284262D01*
X174761509Y-121131526D01*
X174761507Y-121131525D01*
X174761506Y-121131524D01*
X174542811Y-121013172D01*
X174542802Y-121013169D01*
X174307616Y-120932429D01*
X174062335Y-120891500D01*
X173813665Y-120891500D01*
X173568383Y-120932429D01*
X173333197Y-121013169D01*
X173333188Y-121013172D01*
X173114493Y-121131524D01*
X172918257Y-121284261D01*
X172749833Y-121467217D01*
X172613826Y-121675393D01*
X172513936Y-121903118D01*
X172452892Y-122144175D01*
X172452890Y-122144187D01*
X172432357Y-122391994D01*
X172432357Y-122392005D01*
X168943643Y-122392005D01*
X168943643Y-122391994D01*
X168923109Y-122144187D01*
X168923107Y-122144175D01*
X168862063Y-121903118D01*
X168762173Y-121675393D01*
X168626166Y-121467217D01*
X168604557Y-121443744D01*
X168457744Y-121284262D01*
X168261509Y-121131526D01*
X168261507Y-121131525D01*
X168261506Y-121131524D01*
X168042811Y-121013172D01*
X168042802Y-121013169D01*
X167807616Y-120932429D01*
X167562335Y-120891500D01*
X167313665Y-120891500D01*
X167068383Y-120932429D01*
X166833197Y-121013169D01*
X166833188Y-121013172D01*
X166614493Y-121131524D01*
X166418257Y-121284261D01*
X166249833Y-121467217D01*
X166113826Y-121675393D01*
X166013936Y-121903118D01*
X165952892Y-122144175D01*
X165952890Y-122144187D01*
X165932357Y-122391994D01*
X165932357Y-122392005D01*
X157608660Y-122392005D01*
X157591109Y-122180187D01*
X157591107Y-122180175D01*
X157530063Y-121939118D01*
X157430173Y-121711393D01*
X157294166Y-121503217D01*
X157272557Y-121479744D01*
X157125744Y-121320262D01*
X156929509Y-121167526D01*
X156929507Y-121167525D01*
X156929506Y-121167524D01*
X156710811Y-121049172D01*
X156710802Y-121049169D01*
X156475616Y-120968429D01*
X156230335Y-120927500D01*
X155981665Y-120927500D01*
X155736383Y-120968429D01*
X155501197Y-121049169D01*
X155501188Y-121049172D01*
X155282493Y-121167524D01*
X155086257Y-121320261D01*
X154917833Y-121503217D01*
X154781826Y-121711393D01*
X154681936Y-121939118D01*
X154620892Y-122180175D01*
X154620890Y-122180187D01*
X154600357Y-122427994D01*
X154600357Y-122428005D01*
X151111643Y-122428005D01*
X151111643Y-122428000D01*
X151108660Y-122392005D01*
X151091109Y-122180187D01*
X151091107Y-122180175D01*
X151030063Y-121939118D01*
X150930173Y-121711393D01*
X150794166Y-121503217D01*
X150772557Y-121479744D01*
X150625744Y-121320262D01*
X150429509Y-121167526D01*
X150429507Y-121167525D01*
X150429506Y-121167524D01*
X150210811Y-121049172D01*
X150210802Y-121049169D01*
X149975616Y-120968429D01*
X149730335Y-120927500D01*
X149481665Y-120927500D01*
X149236383Y-120968429D01*
X149001197Y-121049169D01*
X149001188Y-121049172D01*
X148782493Y-121167524D01*
X148586257Y-121320261D01*
X148417833Y-121503217D01*
X148281826Y-121711393D01*
X148181936Y-121939118D01*
X148120892Y-122180175D01*
X148120890Y-122180187D01*
X148100357Y-122427994D01*
X148100357Y-122428005D01*
X87114500Y-122428005D01*
X87114500Y-119130000D01*
X89068417Y-119130000D01*
X89088699Y-119335932D01*
X89088700Y-119335934D01*
X89148768Y-119533954D01*
X89246315Y-119716450D01*
X89246317Y-119716452D01*
X89377589Y-119876410D01*
X89428053Y-119917824D01*
X89537550Y-120007685D01*
X89720046Y-120105232D01*
X89918066Y-120165300D01*
X89918065Y-120165300D01*
X89956647Y-120169100D01*
X90072392Y-120180500D01*
X90072395Y-120180500D01*
X90775605Y-120180500D01*
X90775608Y-120180500D01*
X90929934Y-120165300D01*
X91127954Y-120105232D01*
X91310450Y-120007685D01*
X91470410Y-119876410D01*
X91601685Y-119716450D01*
X91699232Y-119533954D01*
X91759300Y-119335934D01*
X91779583Y-119130000D01*
X92868417Y-119130000D01*
X92888699Y-119335932D01*
X92888700Y-119335934D01*
X92948768Y-119533954D01*
X93046315Y-119716450D01*
X93046317Y-119716452D01*
X93177589Y-119876410D01*
X93228053Y-119917824D01*
X93337550Y-120007685D01*
X93520046Y-120105232D01*
X93718066Y-120165300D01*
X93718065Y-120165300D01*
X93756647Y-120169100D01*
X93872392Y-120180500D01*
X93872395Y-120180500D01*
X94575605Y-120180500D01*
X94575608Y-120180500D01*
X94729934Y-120165300D01*
X94927954Y-120105232D01*
X95110450Y-120007685D01*
X95270410Y-119876410D01*
X95401685Y-119716450D01*
X95426511Y-119670005D01*
X107206357Y-119670005D01*
X107226890Y-119917812D01*
X107226892Y-119917824D01*
X107287936Y-120158881D01*
X107387826Y-120386606D01*
X107523833Y-120594782D01*
X107523836Y-120594785D01*
X107692256Y-120777738D01*
X107888491Y-120930474D01*
X108107190Y-121048828D01*
X108342386Y-121129571D01*
X108587665Y-121170500D01*
X108836335Y-121170500D01*
X109081614Y-121129571D01*
X109316810Y-121048828D01*
X109535509Y-120930474D01*
X109731744Y-120777738D01*
X109900164Y-120594785D01*
X110036173Y-120386607D01*
X110136063Y-120158881D01*
X110197108Y-119917821D01*
X110197109Y-119917812D01*
X110217643Y-119670005D01*
X113706357Y-119670005D01*
X113726890Y-119917812D01*
X113726892Y-119917824D01*
X113787936Y-120158881D01*
X113887826Y-120386606D01*
X114023833Y-120594782D01*
X114023836Y-120594785D01*
X114192256Y-120777738D01*
X114388491Y-120930474D01*
X114607190Y-121048828D01*
X114842386Y-121129571D01*
X115087665Y-121170500D01*
X115336335Y-121170500D01*
X115581614Y-121129571D01*
X115816810Y-121048828D01*
X116035509Y-120930474D01*
X116231744Y-120777738D01*
X116400164Y-120594785D01*
X116536173Y-120386607D01*
X116636063Y-120158881D01*
X116697108Y-119917821D01*
X116697109Y-119917812D01*
X116717643Y-119670005D01*
X116717643Y-119669994D01*
X116697109Y-119422187D01*
X116697107Y-119422175D01*
X116636063Y-119181118D01*
X116536173Y-118953393D01*
X116400166Y-118745217D01*
X116378557Y-118721744D01*
X116231744Y-118562262D01*
X116035509Y-118409526D01*
X116035507Y-118409525D01*
X116035506Y-118409524D01*
X115816811Y-118291172D01*
X115816802Y-118291169D01*
X115581616Y-118210429D01*
X115336335Y-118169500D01*
X115087665Y-118169500D01*
X114842383Y-118210429D01*
X114607197Y-118291169D01*
X114607188Y-118291172D01*
X114388493Y-118409524D01*
X114192257Y-118562261D01*
X114023833Y-118745217D01*
X113887826Y-118953393D01*
X113787936Y-119181118D01*
X113726892Y-119422175D01*
X113726890Y-119422187D01*
X113706357Y-119669994D01*
X113706357Y-119670005D01*
X110217643Y-119670005D01*
X110217643Y-119669994D01*
X110197109Y-119422187D01*
X110197107Y-119422175D01*
X110136063Y-119181118D01*
X110036173Y-118953393D01*
X109900166Y-118745217D01*
X109878557Y-118721744D01*
X109731744Y-118562262D01*
X109535509Y-118409526D01*
X109535507Y-118409525D01*
X109535506Y-118409524D01*
X109316811Y-118291172D01*
X109316802Y-118291169D01*
X109081616Y-118210429D01*
X108836335Y-118169500D01*
X108587665Y-118169500D01*
X108342383Y-118210429D01*
X108107197Y-118291169D01*
X108107188Y-118291172D01*
X107888493Y-118409524D01*
X107692257Y-118562261D01*
X107523833Y-118745217D01*
X107387826Y-118953393D01*
X107287936Y-119181118D01*
X107226892Y-119422175D01*
X107226890Y-119422187D01*
X107206357Y-119669994D01*
X107206357Y-119670005D01*
X95426511Y-119670005D01*
X95499232Y-119533954D01*
X95559300Y-119335934D01*
X95579583Y-119130000D01*
X95559300Y-118924066D01*
X95499232Y-118726046D01*
X95401685Y-118543550D01*
X95349702Y-118480209D01*
X95270410Y-118383589D01*
X95110452Y-118252317D01*
X95110453Y-118252317D01*
X95110450Y-118252315D01*
X94927954Y-118154768D01*
X94729934Y-118094700D01*
X94729932Y-118094699D01*
X94729934Y-118094699D01*
X94610805Y-118082966D01*
X94575608Y-118079500D01*
X93872392Y-118079500D01*
X93834298Y-118083251D01*
X93718067Y-118094699D01*
X93520043Y-118154769D01*
X93409898Y-118213643D01*
X93337550Y-118252315D01*
X93337548Y-118252316D01*
X93337547Y-118252317D01*
X93177589Y-118383589D01*
X93046317Y-118543547D01*
X92948769Y-118726043D01*
X92888699Y-118924067D01*
X92868417Y-119130000D01*
X91779583Y-119130000D01*
X91759300Y-118924066D01*
X91699232Y-118726046D01*
X91601685Y-118543550D01*
X91549702Y-118480209D01*
X91470410Y-118383589D01*
X91310452Y-118252317D01*
X91310453Y-118252317D01*
X91310450Y-118252315D01*
X91127954Y-118154768D01*
X90929934Y-118094700D01*
X90929932Y-118094699D01*
X90929934Y-118094699D01*
X90810805Y-118082966D01*
X90775608Y-118079500D01*
X90072392Y-118079500D01*
X90034298Y-118083251D01*
X89918067Y-118094699D01*
X89720043Y-118154769D01*
X89609898Y-118213643D01*
X89537550Y-118252315D01*
X89537548Y-118252316D01*
X89537547Y-118252317D01*
X89377589Y-118383589D01*
X89246317Y-118543547D01*
X89148769Y-118726043D01*
X89088699Y-118924067D01*
X89068417Y-119130000D01*
X87114500Y-119130000D01*
X87114500Y-117928005D01*
X148100357Y-117928005D01*
X148120890Y-118175812D01*
X148120892Y-118175824D01*
X148181936Y-118416881D01*
X148281826Y-118644606D01*
X148417833Y-118852782D01*
X148417836Y-118852785D01*
X148586256Y-119035738D01*
X148782491Y-119188474D01*
X148782493Y-119188475D01*
X148934671Y-119270830D01*
X149001190Y-119306828D01*
X149236386Y-119387571D01*
X149481665Y-119428500D01*
X149730335Y-119428500D01*
X149975614Y-119387571D01*
X150210810Y-119306828D01*
X150429509Y-119188474D01*
X150625744Y-119035738D01*
X150794164Y-118852785D01*
X150930173Y-118644607D01*
X151030063Y-118416881D01*
X151091108Y-118175821D01*
X151091632Y-118169500D01*
X151111643Y-117928005D01*
X154600357Y-117928005D01*
X154620890Y-118175812D01*
X154620892Y-118175824D01*
X154681936Y-118416881D01*
X154781826Y-118644606D01*
X154917833Y-118852782D01*
X154917836Y-118852785D01*
X155086256Y-119035738D01*
X155282491Y-119188474D01*
X155282493Y-119188475D01*
X155434671Y-119270830D01*
X155501190Y-119306828D01*
X155736386Y-119387571D01*
X155981665Y-119428500D01*
X156230335Y-119428500D01*
X156475614Y-119387571D01*
X156710810Y-119306828D01*
X156929509Y-119188474D01*
X157125744Y-119035738D01*
X157294164Y-118852785D01*
X157430173Y-118644607D01*
X157530063Y-118416881D01*
X157591108Y-118175821D01*
X157591632Y-118169500D01*
X157611643Y-117928005D01*
X157611643Y-117927994D01*
X157608661Y-117892005D01*
X165932357Y-117892005D01*
X165952890Y-118139812D01*
X165952892Y-118139824D01*
X166013936Y-118380881D01*
X166113826Y-118608606D01*
X166249833Y-118816782D01*
X166249836Y-118816785D01*
X166418256Y-118999738D01*
X166614491Y-119152474D01*
X166833190Y-119270828D01*
X167068386Y-119351571D01*
X167313665Y-119392500D01*
X167562335Y-119392500D01*
X167807614Y-119351571D01*
X168042810Y-119270828D01*
X168261509Y-119152474D01*
X168457744Y-118999738D01*
X168626164Y-118816785D01*
X168762173Y-118608607D01*
X168862063Y-118380881D01*
X168923108Y-118139821D01*
X168926847Y-118094699D01*
X168943643Y-117892005D01*
X172432357Y-117892005D01*
X172452890Y-118139812D01*
X172452892Y-118139824D01*
X172513936Y-118380881D01*
X172613826Y-118608606D01*
X172749833Y-118816782D01*
X172749836Y-118816785D01*
X172918256Y-118999738D01*
X173114491Y-119152474D01*
X173333190Y-119270828D01*
X173568386Y-119351571D01*
X173813665Y-119392500D01*
X174062335Y-119392500D01*
X174307614Y-119351571D01*
X174542810Y-119270828D01*
X174761509Y-119152474D01*
X174957744Y-118999738D01*
X175126164Y-118816785D01*
X175262173Y-118608607D01*
X175362063Y-118380881D01*
X175423108Y-118139821D01*
X175426847Y-118094699D01*
X175443643Y-117892005D01*
X175443643Y-117891994D01*
X175423109Y-117644187D01*
X175423107Y-117644175D01*
X175362063Y-117403118D01*
X175262173Y-117175393D01*
X175126166Y-116967217D01*
X175104557Y-116943744D01*
X174957744Y-116784262D01*
X174761509Y-116631526D01*
X174761507Y-116631525D01*
X174761506Y-116631524D01*
X174542811Y-116513172D01*
X174542802Y-116513169D01*
X174307616Y-116432429D01*
X174062335Y-116391500D01*
X173813665Y-116391500D01*
X173568383Y-116432429D01*
X173333197Y-116513169D01*
X173333188Y-116513172D01*
X173114493Y-116631524D01*
X172918257Y-116784261D01*
X172749833Y-116967217D01*
X172613826Y-117175393D01*
X172513936Y-117403118D01*
X172452892Y-117644175D01*
X172452890Y-117644187D01*
X172432357Y-117891994D01*
X172432357Y-117892005D01*
X168943643Y-117892005D01*
X168943643Y-117891994D01*
X168923109Y-117644187D01*
X168923107Y-117644175D01*
X168862063Y-117403118D01*
X168762173Y-117175393D01*
X168626166Y-116967217D01*
X168604557Y-116943744D01*
X168457744Y-116784262D01*
X168261509Y-116631526D01*
X168261507Y-116631525D01*
X168261506Y-116631524D01*
X168042811Y-116513172D01*
X168042802Y-116513169D01*
X167807616Y-116432429D01*
X167562335Y-116391500D01*
X167313665Y-116391500D01*
X167068383Y-116432429D01*
X166833197Y-116513169D01*
X166833188Y-116513172D01*
X166614493Y-116631524D01*
X166418257Y-116784261D01*
X166249833Y-116967217D01*
X166113826Y-117175393D01*
X166013936Y-117403118D01*
X165952892Y-117644175D01*
X165952890Y-117644187D01*
X165932357Y-117891994D01*
X165932357Y-117892005D01*
X157608661Y-117892005D01*
X157591109Y-117680187D01*
X157591107Y-117680175D01*
X157530063Y-117439118D01*
X157430173Y-117211393D01*
X157294166Y-117003217D01*
X157272557Y-116979744D01*
X157125744Y-116820262D01*
X156929509Y-116667526D01*
X156929507Y-116667525D01*
X156929506Y-116667524D01*
X156710811Y-116549172D01*
X156710802Y-116549169D01*
X156475616Y-116468429D01*
X156230335Y-116427500D01*
X155981665Y-116427500D01*
X155736383Y-116468429D01*
X155501197Y-116549169D01*
X155501188Y-116549172D01*
X155282493Y-116667524D01*
X155086257Y-116820261D01*
X154917833Y-117003217D01*
X154781826Y-117211393D01*
X154681936Y-117439118D01*
X154620892Y-117680175D01*
X154620890Y-117680187D01*
X154600357Y-117927994D01*
X154600357Y-117928005D01*
X151111643Y-117928005D01*
X151111643Y-117927994D01*
X151091109Y-117680187D01*
X151091107Y-117680175D01*
X151030063Y-117439118D01*
X150930173Y-117211393D01*
X150794166Y-117003217D01*
X150772557Y-116979744D01*
X150625744Y-116820262D01*
X150429509Y-116667526D01*
X150429507Y-116667525D01*
X150429506Y-116667524D01*
X150210811Y-116549172D01*
X150210802Y-116549169D01*
X149975616Y-116468429D01*
X149730335Y-116427500D01*
X149481665Y-116427500D01*
X149236383Y-116468429D01*
X149001197Y-116549169D01*
X149001188Y-116549172D01*
X148782493Y-116667524D01*
X148586257Y-116820261D01*
X148417833Y-117003217D01*
X148281826Y-117211393D01*
X148181936Y-117439118D01*
X148120892Y-117680175D01*
X148120890Y-117680187D01*
X148100357Y-117927994D01*
X148100357Y-117928005D01*
X87114500Y-117928005D01*
X87114500Y-110490000D01*
X89068417Y-110490000D01*
X89088699Y-110695932D01*
X89110365Y-110767354D01*
X89148768Y-110893954D01*
X89246315Y-111076450D01*
X89246317Y-111076452D01*
X89377589Y-111236410D01*
X89474209Y-111315702D01*
X89537550Y-111367685D01*
X89720046Y-111465232D01*
X89918066Y-111525300D01*
X89918065Y-111525300D01*
X89956647Y-111529100D01*
X90072392Y-111540500D01*
X90072395Y-111540500D01*
X90775605Y-111540500D01*
X90775608Y-111540500D01*
X90929934Y-111525300D01*
X91127954Y-111465232D01*
X91310450Y-111367685D01*
X91470410Y-111236410D01*
X91601685Y-111076450D01*
X91699232Y-110893954D01*
X91759300Y-110695934D01*
X91779583Y-110490000D01*
X92868417Y-110490000D01*
X92888699Y-110695932D01*
X92910365Y-110767354D01*
X92948768Y-110893954D01*
X93046315Y-111076450D01*
X93046317Y-111076452D01*
X93177589Y-111236410D01*
X93274209Y-111315702D01*
X93337550Y-111367685D01*
X93520046Y-111465232D01*
X93718066Y-111525300D01*
X93718065Y-111525300D01*
X93756647Y-111529100D01*
X93872392Y-111540500D01*
X93872395Y-111540500D01*
X94575605Y-111540500D01*
X94575608Y-111540500D01*
X94729934Y-111525300D01*
X94927954Y-111465232D01*
X95072687Y-111387870D01*
X100249500Y-111387870D01*
X100249501Y-111387876D01*
X100255908Y-111447483D01*
X100306202Y-111582328D01*
X100306206Y-111582335D01*
X100392452Y-111697544D01*
X100392455Y-111697547D01*
X100507664Y-111783793D01*
X100507671Y-111783797D01*
X100642517Y-111834091D01*
X100642516Y-111834091D01*
X100649444Y-111834835D01*
X100702127Y-111840500D01*
X102497872Y-111840499D01*
X102557483Y-111834091D01*
X102692331Y-111783796D01*
X102807546Y-111697546D01*
X102893796Y-111582331D01*
X102944091Y-111447483D01*
X102950500Y-111387873D01*
X102950500Y-111387870D01*
X110409500Y-111387870D01*
X110409501Y-111387876D01*
X110415908Y-111447483D01*
X110466202Y-111582328D01*
X110466206Y-111582335D01*
X110552452Y-111697544D01*
X110552455Y-111697547D01*
X110667664Y-111783793D01*
X110667671Y-111783797D01*
X110802517Y-111834091D01*
X110802516Y-111834091D01*
X110809444Y-111834835D01*
X110862127Y-111840500D01*
X112657872Y-111840499D01*
X112717483Y-111834091D01*
X112852331Y-111783796D01*
X112967546Y-111697546D01*
X113053796Y-111582331D01*
X113104091Y-111447483D01*
X113110500Y-111387873D01*
X113110499Y-110371844D01*
X123364000Y-110371844D01*
X123370401Y-110431372D01*
X123370403Y-110431379D01*
X123420645Y-110566086D01*
X123420649Y-110566093D01*
X123506809Y-110681187D01*
X123506812Y-110681190D01*
X123621906Y-110767350D01*
X123621913Y-110767354D01*
X123756620Y-110817596D01*
X123756627Y-110817598D01*
X123816155Y-110823999D01*
X123816172Y-110824000D01*
X124464000Y-110824000D01*
X124464000Y-109909501D01*
X124571685Y-109958680D01*
X124678237Y-109974000D01*
X124749763Y-109974000D01*
X124856315Y-109958680D01*
X124964000Y-109909501D01*
X124964000Y-110824000D01*
X125611828Y-110824000D01*
X125611844Y-110823999D01*
X125671372Y-110817598D01*
X125671379Y-110817596D01*
X125806086Y-110767354D01*
X125806093Y-110767350D01*
X125921187Y-110681190D01*
X125921190Y-110681187D01*
X126007350Y-110566093D01*
X126007354Y-110566086D01*
X126056422Y-110434529D01*
X126098293Y-110378595D01*
X126163757Y-110354178D01*
X126232030Y-110369030D01*
X126260285Y-110390181D01*
X126382599Y-110512495D01*
X126459135Y-110566086D01*
X126576165Y-110648032D01*
X126576167Y-110648033D01*
X126576170Y-110648035D01*
X126790337Y-110747903D01*
X127018592Y-110809063D01*
X127189319Y-110824000D01*
X127253999Y-110829659D01*
X127254000Y-110829659D01*
X127254001Y-110829659D01*
X127318681Y-110824000D01*
X127489408Y-110809063D01*
X127717663Y-110747903D01*
X127931830Y-110648035D01*
X128125401Y-110512495D01*
X128292495Y-110345401D01*
X128422425Y-110159842D01*
X128477002Y-110116217D01*
X128546500Y-110109023D01*
X128608855Y-110140546D01*
X128625575Y-110159842D01*
X128755500Y-110345395D01*
X128755505Y-110345401D01*
X128922599Y-110512495D01*
X128999135Y-110566086D01*
X129116165Y-110648032D01*
X129116167Y-110648033D01*
X129116170Y-110648035D01*
X129330337Y-110747903D01*
X129558592Y-110809063D01*
X129729319Y-110824000D01*
X129793999Y-110829659D01*
X129794000Y-110829659D01*
X129794001Y-110829659D01*
X129858681Y-110824000D01*
X130029408Y-110809063D01*
X130257663Y-110747903D01*
X130471830Y-110648035D01*
X130665401Y-110512495D01*
X130832495Y-110345401D01*
X130962425Y-110159842D01*
X131017002Y-110116217D01*
X131086500Y-110109023D01*
X131148855Y-110140546D01*
X131165575Y-110159842D01*
X131295500Y-110345395D01*
X131295505Y-110345401D01*
X131462599Y-110512495D01*
X131539135Y-110566086D01*
X131656165Y-110648032D01*
X131656167Y-110648033D01*
X131656170Y-110648035D01*
X131870337Y-110747903D01*
X132098592Y-110809063D01*
X132269319Y-110824000D01*
X132333999Y-110829659D01*
X132334000Y-110829659D01*
X132334001Y-110829659D01*
X132398681Y-110824000D01*
X132569408Y-110809063D01*
X132797663Y-110747903D01*
X133011830Y-110648035D01*
X133205401Y-110512495D01*
X133372495Y-110345401D01*
X133502425Y-110159842D01*
X133557002Y-110116217D01*
X133626500Y-110109023D01*
X133688855Y-110140546D01*
X133705575Y-110159842D01*
X133835500Y-110345395D01*
X133835505Y-110345401D01*
X134002599Y-110512495D01*
X134079135Y-110566086D01*
X134196165Y-110648032D01*
X134196167Y-110648033D01*
X134196170Y-110648035D01*
X134410337Y-110747903D01*
X134638592Y-110809063D01*
X134809319Y-110824000D01*
X134873999Y-110829659D01*
X134874000Y-110829659D01*
X134874001Y-110829659D01*
X134938681Y-110824000D01*
X135109408Y-110809063D01*
X135337663Y-110747903D01*
X135551830Y-110648035D01*
X135745401Y-110512495D01*
X135912495Y-110345401D01*
X136042425Y-110159842D01*
X136097002Y-110116217D01*
X136166500Y-110109023D01*
X136228855Y-110140546D01*
X136245575Y-110159842D01*
X136375500Y-110345395D01*
X136375505Y-110345401D01*
X136542599Y-110512495D01*
X136619135Y-110566086D01*
X136736165Y-110648032D01*
X136736167Y-110648033D01*
X136736170Y-110648035D01*
X136950337Y-110747903D01*
X137178592Y-110809063D01*
X137349319Y-110824000D01*
X137413999Y-110829659D01*
X137414000Y-110829659D01*
X137414001Y-110829659D01*
X137478681Y-110824000D01*
X137649408Y-110809063D01*
X137877663Y-110747903D01*
X138091830Y-110648035D01*
X138285401Y-110512495D01*
X138452495Y-110345401D01*
X138582425Y-110159842D01*
X138637002Y-110116217D01*
X138706500Y-110109023D01*
X138768855Y-110140546D01*
X138785575Y-110159842D01*
X138915500Y-110345395D01*
X138915505Y-110345401D01*
X139082599Y-110512495D01*
X139159135Y-110566086D01*
X139276165Y-110648032D01*
X139276167Y-110648033D01*
X139276170Y-110648035D01*
X139490337Y-110747903D01*
X139718592Y-110809063D01*
X139889319Y-110824000D01*
X139953999Y-110829659D01*
X139954000Y-110829659D01*
X139954001Y-110829659D01*
X140018681Y-110824000D01*
X140189408Y-110809063D01*
X140417663Y-110747903D01*
X140631830Y-110648035D01*
X140825401Y-110512495D01*
X140992495Y-110345401D01*
X141122425Y-110159842D01*
X141177002Y-110116217D01*
X141246500Y-110109023D01*
X141308855Y-110140546D01*
X141325575Y-110159842D01*
X141455500Y-110345395D01*
X141455505Y-110345401D01*
X141622599Y-110512495D01*
X141699135Y-110566086D01*
X141816165Y-110648032D01*
X141816167Y-110648033D01*
X141816170Y-110648035D01*
X142030337Y-110747903D01*
X142258592Y-110809063D01*
X142429319Y-110824000D01*
X142493999Y-110829659D01*
X142494000Y-110829659D01*
X142494001Y-110829659D01*
X142558681Y-110824000D01*
X142729408Y-110809063D01*
X142957663Y-110747903D01*
X143171830Y-110648035D01*
X143365401Y-110512495D01*
X143532495Y-110345401D01*
X143662425Y-110159842D01*
X143717002Y-110116217D01*
X143786500Y-110109023D01*
X143848855Y-110140546D01*
X143865575Y-110159842D01*
X143995500Y-110345395D01*
X143995505Y-110345401D01*
X144162599Y-110512495D01*
X144239135Y-110566086D01*
X144356165Y-110648032D01*
X144356167Y-110648033D01*
X144356170Y-110648035D01*
X144570337Y-110747903D01*
X144798592Y-110809063D01*
X144969319Y-110824000D01*
X145033999Y-110829659D01*
X145034000Y-110829659D01*
X145034001Y-110829659D01*
X145098681Y-110824000D01*
X145269408Y-110809063D01*
X145497663Y-110747903D01*
X145711830Y-110648035D01*
X145905401Y-110512495D01*
X146072495Y-110345401D01*
X146202425Y-110159842D01*
X146257002Y-110116217D01*
X146326500Y-110109023D01*
X146388855Y-110140546D01*
X146405575Y-110159842D01*
X146535500Y-110345395D01*
X146535505Y-110345401D01*
X146702599Y-110512495D01*
X146779135Y-110566086D01*
X146896165Y-110648032D01*
X146896167Y-110648033D01*
X146896170Y-110648035D01*
X147110337Y-110747903D01*
X147338592Y-110809063D01*
X147509319Y-110824000D01*
X147573999Y-110829659D01*
X147574000Y-110829659D01*
X147574001Y-110829659D01*
X147638681Y-110824000D01*
X147809408Y-110809063D01*
X148037663Y-110747903D01*
X148251830Y-110648035D01*
X148445401Y-110512495D01*
X148612495Y-110345401D01*
X148742425Y-110159842D01*
X148797002Y-110116217D01*
X148866500Y-110109023D01*
X148928855Y-110140546D01*
X148945575Y-110159842D01*
X149075500Y-110345395D01*
X149075505Y-110345401D01*
X149242599Y-110512495D01*
X149319135Y-110566086D01*
X149436165Y-110648032D01*
X149436167Y-110648033D01*
X149436170Y-110648035D01*
X149650337Y-110747903D01*
X149878592Y-110809063D01*
X150049319Y-110824000D01*
X150113999Y-110829659D01*
X150114000Y-110829659D01*
X150114001Y-110829659D01*
X150178681Y-110824000D01*
X150349408Y-110809063D01*
X150577663Y-110747903D01*
X150791830Y-110648035D01*
X150985401Y-110512495D01*
X151152495Y-110345401D01*
X151282425Y-110159842D01*
X151337002Y-110116217D01*
X151406500Y-110109023D01*
X151468855Y-110140546D01*
X151485575Y-110159842D01*
X151615500Y-110345395D01*
X151615505Y-110345401D01*
X151782599Y-110512495D01*
X151859135Y-110566086D01*
X151976165Y-110648032D01*
X151976167Y-110648033D01*
X151976170Y-110648035D01*
X152190337Y-110747903D01*
X152418592Y-110809063D01*
X152589319Y-110824000D01*
X152653999Y-110829659D01*
X152654000Y-110829659D01*
X152654001Y-110829659D01*
X152718681Y-110824000D01*
X152889408Y-110809063D01*
X153117663Y-110747903D01*
X153331830Y-110648035D01*
X153525401Y-110512495D01*
X153692495Y-110345401D01*
X153822425Y-110159842D01*
X153877002Y-110116217D01*
X153946500Y-110109023D01*
X154008855Y-110140546D01*
X154025575Y-110159842D01*
X154155500Y-110345395D01*
X154155505Y-110345401D01*
X154322599Y-110512495D01*
X154399135Y-110566086D01*
X154516165Y-110648032D01*
X154516167Y-110648033D01*
X154516170Y-110648035D01*
X154730337Y-110747903D01*
X154958592Y-110809063D01*
X155129319Y-110824000D01*
X155193999Y-110829659D01*
X155194000Y-110829659D01*
X155194001Y-110829659D01*
X155258681Y-110824000D01*
X155429408Y-110809063D01*
X155657663Y-110747903D01*
X155871830Y-110648035D01*
X156065401Y-110512495D01*
X156232495Y-110345401D01*
X156362425Y-110159842D01*
X156417002Y-110116217D01*
X156486500Y-110109023D01*
X156548855Y-110140546D01*
X156565575Y-110159842D01*
X156695500Y-110345395D01*
X156695505Y-110345401D01*
X156862599Y-110512495D01*
X156939135Y-110566086D01*
X157056165Y-110648032D01*
X157056167Y-110648033D01*
X157056170Y-110648035D01*
X157270337Y-110747903D01*
X157498592Y-110809063D01*
X157669319Y-110824000D01*
X157733999Y-110829659D01*
X157734000Y-110829659D01*
X157734001Y-110829659D01*
X157798681Y-110824000D01*
X157969408Y-110809063D01*
X158197663Y-110747903D01*
X158411830Y-110648035D01*
X158605401Y-110512495D01*
X158772495Y-110345401D01*
X158902425Y-110159842D01*
X158957002Y-110116217D01*
X159026500Y-110109023D01*
X159088855Y-110140546D01*
X159105575Y-110159842D01*
X159235500Y-110345395D01*
X159235505Y-110345401D01*
X159402599Y-110512495D01*
X159479135Y-110566086D01*
X159596165Y-110648032D01*
X159596167Y-110648033D01*
X159596170Y-110648035D01*
X159810337Y-110747903D01*
X160038592Y-110809063D01*
X160209319Y-110824000D01*
X160273999Y-110829659D01*
X160274000Y-110829659D01*
X160274001Y-110829659D01*
X160338681Y-110824000D01*
X160509408Y-110809063D01*
X160737663Y-110747903D01*
X160951830Y-110648035D01*
X161145401Y-110512495D01*
X161312495Y-110345401D01*
X161442425Y-110159842D01*
X161497002Y-110116217D01*
X161566500Y-110109023D01*
X161628855Y-110140546D01*
X161645575Y-110159842D01*
X161775500Y-110345395D01*
X161775505Y-110345401D01*
X161942599Y-110512495D01*
X162019135Y-110566086D01*
X162136165Y-110648032D01*
X162136167Y-110648033D01*
X162136170Y-110648035D01*
X162350337Y-110747903D01*
X162578592Y-110809063D01*
X162749319Y-110824000D01*
X162813999Y-110829659D01*
X162814000Y-110829659D01*
X162814001Y-110829659D01*
X162878681Y-110824000D01*
X163049408Y-110809063D01*
X163277663Y-110747903D01*
X163491830Y-110648035D01*
X163685401Y-110512495D01*
X163852495Y-110345401D01*
X163982425Y-110159842D01*
X164037002Y-110116217D01*
X164106500Y-110109023D01*
X164168855Y-110140546D01*
X164185575Y-110159842D01*
X164315500Y-110345395D01*
X164315505Y-110345401D01*
X164482599Y-110512495D01*
X164559135Y-110566086D01*
X164676165Y-110648032D01*
X164676167Y-110648033D01*
X164676170Y-110648035D01*
X164890337Y-110747903D01*
X165118592Y-110809063D01*
X165289319Y-110824000D01*
X165353999Y-110829659D01*
X165354000Y-110829659D01*
X165354001Y-110829659D01*
X165418681Y-110824000D01*
X165589408Y-110809063D01*
X165817663Y-110747903D01*
X166031830Y-110648035D01*
X166225401Y-110512495D01*
X166392495Y-110345401D01*
X166522425Y-110159842D01*
X166577002Y-110116217D01*
X166646500Y-110109023D01*
X166708855Y-110140546D01*
X166725575Y-110159842D01*
X166855500Y-110345395D01*
X166855505Y-110345401D01*
X167022599Y-110512495D01*
X167099135Y-110566086D01*
X167216165Y-110648032D01*
X167216167Y-110648033D01*
X167216170Y-110648035D01*
X167430337Y-110747903D01*
X167658592Y-110809063D01*
X167829319Y-110824000D01*
X167893999Y-110829659D01*
X167894000Y-110829659D01*
X167894001Y-110829659D01*
X167958681Y-110824000D01*
X168129408Y-110809063D01*
X168357663Y-110747903D01*
X168571830Y-110648035D01*
X168765401Y-110512495D01*
X168932495Y-110345401D01*
X169062425Y-110159842D01*
X169117002Y-110116217D01*
X169186500Y-110109023D01*
X169248855Y-110140546D01*
X169265575Y-110159842D01*
X169395500Y-110345395D01*
X169395505Y-110345401D01*
X169562599Y-110512495D01*
X169639135Y-110566086D01*
X169756165Y-110648032D01*
X169756167Y-110648033D01*
X169756170Y-110648035D01*
X169970337Y-110747903D01*
X170198592Y-110809063D01*
X170369319Y-110824000D01*
X170433999Y-110829659D01*
X170434000Y-110829659D01*
X170434001Y-110829659D01*
X170498681Y-110824000D01*
X170669408Y-110809063D01*
X170897663Y-110747903D01*
X171111830Y-110648035D01*
X171305401Y-110512495D01*
X171472495Y-110345401D01*
X171602425Y-110159842D01*
X171657002Y-110116217D01*
X171726500Y-110109023D01*
X171788855Y-110140546D01*
X171805575Y-110159842D01*
X171935500Y-110345395D01*
X171935505Y-110345401D01*
X172102599Y-110512495D01*
X172179135Y-110566086D01*
X172296165Y-110648032D01*
X172296167Y-110648033D01*
X172296170Y-110648035D01*
X172510337Y-110747903D01*
X172738592Y-110809063D01*
X172909319Y-110824000D01*
X172973999Y-110829659D01*
X172974000Y-110829659D01*
X172974001Y-110829659D01*
X173038681Y-110824000D01*
X173209408Y-110809063D01*
X173437663Y-110747903D01*
X173651830Y-110648035D01*
X173845401Y-110512495D01*
X174012495Y-110345401D01*
X174148035Y-110151830D01*
X174247903Y-109937663D01*
X174309063Y-109709408D01*
X174329659Y-109474000D01*
X174309063Y-109238592D01*
X174247903Y-109010337D01*
X174148035Y-108796171D01*
X174142425Y-108788158D01*
X174012494Y-108602597D01*
X173845402Y-108435506D01*
X173845395Y-108435501D01*
X173651834Y-108299967D01*
X173651830Y-108299965D01*
X173580727Y-108266809D01*
X173437663Y-108200097D01*
X173437659Y-108200096D01*
X173437655Y-108200094D01*
X173209413Y-108138938D01*
X173209403Y-108138936D01*
X172974001Y-108118341D01*
X172973999Y-108118341D01*
X172738596Y-108138936D01*
X172738586Y-108138938D01*
X172510344Y-108200094D01*
X172510335Y-108200098D01*
X172296171Y-108299964D01*
X172296169Y-108299965D01*
X172102597Y-108435505D01*
X171935505Y-108602597D01*
X171805575Y-108788158D01*
X171750998Y-108831783D01*
X171681500Y-108838977D01*
X171619145Y-108807454D01*
X171602425Y-108788158D01*
X171472494Y-108602597D01*
X171305402Y-108435506D01*
X171305395Y-108435501D01*
X171111834Y-108299967D01*
X171111830Y-108299965D01*
X171040727Y-108266809D01*
X170897663Y-108200097D01*
X170897659Y-108200096D01*
X170897655Y-108200094D01*
X170669413Y-108138938D01*
X170669403Y-108138936D01*
X170434001Y-108118341D01*
X170433999Y-108118341D01*
X170198596Y-108138936D01*
X170198586Y-108138938D01*
X169970344Y-108200094D01*
X169970335Y-108200098D01*
X169756171Y-108299964D01*
X169756169Y-108299965D01*
X169562597Y-108435505D01*
X169395505Y-108602597D01*
X169265575Y-108788158D01*
X169210998Y-108831783D01*
X169141500Y-108838977D01*
X169079145Y-108807454D01*
X169062425Y-108788158D01*
X168932494Y-108602597D01*
X168765402Y-108435506D01*
X168765395Y-108435501D01*
X168571834Y-108299967D01*
X168571830Y-108299965D01*
X168500727Y-108266809D01*
X168357663Y-108200097D01*
X168357659Y-108200096D01*
X168357655Y-108200094D01*
X168129413Y-108138938D01*
X168129403Y-108138936D01*
X167894001Y-108118341D01*
X167893999Y-108118341D01*
X167658596Y-108138936D01*
X167658586Y-108138938D01*
X167430344Y-108200094D01*
X167430335Y-108200098D01*
X167216171Y-108299964D01*
X167216169Y-108299965D01*
X167022597Y-108435505D01*
X166855505Y-108602597D01*
X166725575Y-108788158D01*
X166670998Y-108831783D01*
X166601500Y-108838977D01*
X166539145Y-108807454D01*
X166522425Y-108788158D01*
X166392494Y-108602597D01*
X166225402Y-108435506D01*
X166225395Y-108435501D01*
X166031834Y-108299967D01*
X166031830Y-108299965D01*
X165960727Y-108266809D01*
X165817663Y-108200097D01*
X165817659Y-108200096D01*
X165817655Y-108200094D01*
X165589413Y-108138938D01*
X165589403Y-108138936D01*
X165354001Y-108118341D01*
X165353999Y-108118341D01*
X165118596Y-108138936D01*
X165118586Y-108138938D01*
X164890344Y-108200094D01*
X164890335Y-108200098D01*
X164676171Y-108299964D01*
X164676169Y-108299965D01*
X164482597Y-108435505D01*
X164315505Y-108602597D01*
X164185575Y-108788158D01*
X164130998Y-108831783D01*
X164061500Y-108838977D01*
X163999145Y-108807454D01*
X163982425Y-108788158D01*
X163852494Y-108602597D01*
X163685402Y-108435506D01*
X163685395Y-108435501D01*
X163491834Y-108299967D01*
X163491830Y-108299965D01*
X163420727Y-108266809D01*
X163277663Y-108200097D01*
X163277659Y-108200096D01*
X163277655Y-108200094D01*
X163049413Y-108138938D01*
X163049403Y-108138936D01*
X162814001Y-108118341D01*
X162813999Y-108118341D01*
X162578596Y-108138936D01*
X162578586Y-108138938D01*
X162350344Y-108200094D01*
X162350335Y-108200098D01*
X162136171Y-108299964D01*
X162136169Y-108299965D01*
X161942597Y-108435505D01*
X161775505Y-108602597D01*
X161645575Y-108788158D01*
X161590998Y-108831783D01*
X161521500Y-108838977D01*
X161459145Y-108807454D01*
X161442425Y-108788158D01*
X161312494Y-108602597D01*
X161145402Y-108435506D01*
X161145395Y-108435501D01*
X160951834Y-108299967D01*
X160951830Y-108299965D01*
X160880727Y-108266809D01*
X160737663Y-108200097D01*
X160737659Y-108200096D01*
X160737655Y-108200094D01*
X160509413Y-108138938D01*
X160509403Y-108138936D01*
X160274001Y-108118341D01*
X160273999Y-108118341D01*
X160038596Y-108138936D01*
X160038586Y-108138938D01*
X159810344Y-108200094D01*
X159810335Y-108200098D01*
X159596171Y-108299964D01*
X159596169Y-108299965D01*
X159402597Y-108435505D01*
X159235505Y-108602597D01*
X159105575Y-108788158D01*
X159050998Y-108831783D01*
X158981500Y-108838977D01*
X158919145Y-108807454D01*
X158902425Y-108788158D01*
X158772494Y-108602597D01*
X158605402Y-108435506D01*
X158605395Y-108435501D01*
X158411834Y-108299967D01*
X158411830Y-108299965D01*
X158340727Y-108266809D01*
X158197663Y-108200097D01*
X158197659Y-108200096D01*
X158197655Y-108200094D01*
X157969413Y-108138938D01*
X157969403Y-108138936D01*
X157734001Y-108118341D01*
X157733999Y-108118341D01*
X157498596Y-108138936D01*
X157498586Y-108138938D01*
X157270344Y-108200094D01*
X157270335Y-108200098D01*
X157056171Y-108299964D01*
X157056169Y-108299965D01*
X156862597Y-108435505D01*
X156695505Y-108602597D01*
X156565575Y-108788158D01*
X156510998Y-108831783D01*
X156441500Y-108838977D01*
X156379145Y-108807454D01*
X156362425Y-108788158D01*
X156232494Y-108602597D01*
X156065402Y-108435506D01*
X156065395Y-108435501D01*
X155871834Y-108299967D01*
X155871830Y-108299965D01*
X155800727Y-108266809D01*
X155657663Y-108200097D01*
X155657659Y-108200096D01*
X155657655Y-108200094D01*
X155429413Y-108138938D01*
X155429403Y-108138936D01*
X155194001Y-108118341D01*
X155193999Y-108118341D01*
X154958596Y-108138936D01*
X154958586Y-108138938D01*
X154730344Y-108200094D01*
X154730335Y-108200098D01*
X154516171Y-108299964D01*
X154516169Y-108299965D01*
X154322597Y-108435505D01*
X154155505Y-108602597D01*
X154025575Y-108788158D01*
X153970998Y-108831783D01*
X153901500Y-108838977D01*
X153839145Y-108807454D01*
X153822425Y-108788158D01*
X153692494Y-108602597D01*
X153525402Y-108435506D01*
X153525395Y-108435501D01*
X153331834Y-108299967D01*
X153331830Y-108299965D01*
X153260727Y-108266809D01*
X153117663Y-108200097D01*
X153117659Y-108200096D01*
X153117655Y-108200094D01*
X152889413Y-108138938D01*
X152889403Y-108138936D01*
X152654001Y-108118341D01*
X152653999Y-108118341D01*
X152418596Y-108138936D01*
X152418586Y-108138938D01*
X152190344Y-108200094D01*
X152190335Y-108200098D01*
X151976171Y-108299964D01*
X151976169Y-108299965D01*
X151782597Y-108435505D01*
X151615505Y-108602597D01*
X151485575Y-108788158D01*
X151430998Y-108831783D01*
X151361500Y-108838977D01*
X151299145Y-108807454D01*
X151282425Y-108788158D01*
X151152494Y-108602597D01*
X150985402Y-108435506D01*
X150985395Y-108435501D01*
X150791834Y-108299967D01*
X150791830Y-108299965D01*
X150720727Y-108266809D01*
X150577663Y-108200097D01*
X150577659Y-108200096D01*
X150577655Y-108200094D01*
X150349413Y-108138938D01*
X150349403Y-108138936D01*
X150114001Y-108118341D01*
X150113999Y-108118341D01*
X149878596Y-108138936D01*
X149878586Y-108138938D01*
X149650344Y-108200094D01*
X149650335Y-108200098D01*
X149436171Y-108299964D01*
X149436169Y-108299965D01*
X149242597Y-108435505D01*
X149075505Y-108602597D01*
X148945575Y-108788158D01*
X148890998Y-108831783D01*
X148821500Y-108838977D01*
X148759145Y-108807454D01*
X148742425Y-108788158D01*
X148612494Y-108602597D01*
X148445402Y-108435506D01*
X148445395Y-108435501D01*
X148251834Y-108299967D01*
X148251830Y-108299965D01*
X148180727Y-108266809D01*
X148037663Y-108200097D01*
X148037659Y-108200096D01*
X148037655Y-108200094D01*
X147809413Y-108138938D01*
X147809403Y-108138936D01*
X147574001Y-108118341D01*
X147573999Y-108118341D01*
X147338596Y-108138936D01*
X147338586Y-108138938D01*
X147110344Y-108200094D01*
X147110335Y-108200098D01*
X146896171Y-108299964D01*
X146896169Y-108299965D01*
X146702597Y-108435505D01*
X146535505Y-108602597D01*
X146405575Y-108788158D01*
X146350998Y-108831783D01*
X146281500Y-108838977D01*
X146219145Y-108807454D01*
X146202425Y-108788158D01*
X146072494Y-108602597D01*
X145905402Y-108435506D01*
X145905395Y-108435501D01*
X145711834Y-108299967D01*
X145711830Y-108299965D01*
X145640727Y-108266809D01*
X145497663Y-108200097D01*
X145497659Y-108200096D01*
X145497655Y-108200094D01*
X145269413Y-108138938D01*
X145269403Y-108138936D01*
X145034001Y-108118341D01*
X145033999Y-108118341D01*
X144798596Y-108138936D01*
X144798586Y-108138938D01*
X144570344Y-108200094D01*
X144570335Y-108200098D01*
X144356171Y-108299964D01*
X144356169Y-108299965D01*
X144162597Y-108435505D01*
X143995505Y-108602597D01*
X143865575Y-108788158D01*
X143810998Y-108831783D01*
X143741500Y-108838977D01*
X143679145Y-108807454D01*
X143662425Y-108788158D01*
X143532494Y-108602597D01*
X143365402Y-108435506D01*
X143365395Y-108435501D01*
X143171834Y-108299967D01*
X143171830Y-108299965D01*
X143100727Y-108266809D01*
X142957663Y-108200097D01*
X142957659Y-108200096D01*
X142957655Y-108200094D01*
X142729413Y-108138938D01*
X142729403Y-108138936D01*
X142494001Y-108118341D01*
X142493999Y-108118341D01*
X142258596Y-108138936D01*
X142258586Y-108138938D01*
X142030344Y-108200094D01*
X142030335Y-108200098D01*
X141816171Y-108299964D01*
X141816169Y-108299965D01*
X141622597Y-108435505D01*
X141455505Y-108602597D01*
X141325575Y-108788158D01*
X141270998Y-108831783D01*
X141201500Y-108838977D01*
X141139145Y-108807454D01*
X141122425Y-108788158D01*
X140992494Y-108602597D01*
X140825402Y-108435506D01*
X140825395Y-108435501D01*
X140631834Y-108299967D01*
X140631830Y-108299965D01*
X140560727Y-108266809D01*
X140417663Y-108200097D01*
X140417659Y-108200096D01*
X140417655Y-108200094D01*
X140189413Y-108138938D01*
X140189403Y-108138936D01*
X139954001Y-108118341D01*
X139953999Y-108118341D01*
X139718596Y-108138936D01*
X139718586Y-108138938D01*
X139490344Y-108200094D01*
X139490335Y-108200098D01*
X139276171Y-108299964D01*
X139276169Y-108299965D01*
X139082597Y-108435505D01*
X138915505Y-108602597D01*
X138785575Y-108788158D01*
X138730998Y-108831783D01*
X138661500Y-108838977D01*
X138599145Y-108807454D01*
X138582425Y-108788158D01*
X138452494Y-108602597D01*
X138285402Y-108435506D01*
X138285395Y-108435501D01*
X138091834Y-108299967D01*
X138091830Y-108299965D01*
X138020727Y-108266809D01*
X137877663Y-108200097D01*
X137877659Y-108200096D01*
X137877655Y-108200094D01*
X137649413Y-108138938D01*
X137649403Y-108138936D01*
X137414001Y-108118341D01*
X137413999Y-108118341D01*
X137178596Y-108138936D01*
X137178586Y-108138938D01*
X136950344Y-108200094D01*
X136950335Y-108200098D01*
X136736171Y-108299964D01*
X136736169Y-108299965D01*
X136542597Y-108435505D01*
X136375505Y-108602597D01*
X136245575Y-108788158D01*
X136190998Y-108831783D01*
X136121500Y-108838977D01*
X136059145Y-108807454D01*
X136042425Y-108788158D01*
X135912494Y-108602597D01*
X135745402Y-108435506D01*
X135745395Y-108435501D01*
X135551834Y-108299967D01*
X135551830Y-108299965D01*
X135480727Y-108266809D01*
X135337663Y-108200097D01*
X135337659Y-108200096D01*
X135337655Y-108200094D01*
X135109413Y-108138938D01*
X135109403Y-108138936D01*
X134874001Y-108118341D01*
X134873999Y-108118341D01*
X134638596Y-108138936D01*
X134638586Y-108138938D01*
X134410344Y-108200094D01*
X134410335Y-108200098D01*
X134196171Y-108299964D01*
X134196169Y-108299965D01*
X134002597Y-108435505D01*
X133835505Y-108602597D01*
X133705575Y-108788158D01*
X133650998Y-108831783D01*
X133581500Y-108838977D01*
X133519145Y-108807454D01*
X133502425Y-108788158D01*
X133372494Y-108602597D01*
X133205402Y-108435506D01*
X133205395Y-108435501D01*
X133011834Y-108299967D01*
X133011830Y-108299965D01*
X132940727Y-108266809D01*
X132797663Y-108200097D01*
X132797659Y-108200096D01*
X132797655Y-108200094D01*
X132569413Y-108138938D01*
X132569403Y-108138936D01*
X132334001Y-108118341D01*
X132333999Y-108118341D01*
X132098596Y-108138936D01*
X132098586Y-108138938D01*
X131870344Y-108200094D01*
X131870335Y-108200098D01*
X131656171Y-108299964D01*
X131656169Y-108299965D01*
X131462597Y-108435505D01*
X131295505Y-108602597D01*
X131165575Y-108788158D01*
X131110998Y-108831783D01*
X131041500Y-108838977D01*
X130979145Y-108807454D01*
X130962425Y-108788158D01*
X130832494Y-108602597D01*
X130665402Y-108435506D01*
X130665395Y-108435501D01*
X130471834Y-108299967D01*
X130471830Y-108299965D01*
X130400727Y-108266809D01*
X130257663Y-108200097D01*
X130257659Y-108200096D01*
X130257655Y-108200094D01*
X130029413Y-108138938D01*
X130029403Y-108138936D01*
X129794001Y-108118341D01*
X129793999Y-108118341D01*
X129558596Y-108138936D01*
X129558586Y-108138938D01*
X129330344Y-108200094D01*
X129330335Y-108200098D01*
X129116171Y-108299964D01*
X129116169Y-108299965D01*
X128922597Y-108435505D01*
X128755505Y-108602597D01*
X128625575Y-108788158D01*
X128570998Y-108831783D01*
X128501500Y-108838977D01*
X128439145Y-108807454D01*
X128422425Y-108788158D01*
X128292494Y-108602597D01*
X128125402Y-108435506D01*
X128125395Y-108435501D01*
X127931834Y-108299967D01*
X127931830Y-108299965D01*
X127860727Y-108266809D01*
X127717663Y-108200097D01*
X127717659Y-108200096D01*
X127717655Y-108200094D01*
X127489413Y-108138938D01*
X127489403Y-108138936D01*
X127254001Y-108118341D01*
X127253999Y-108118341D01*
X127018596Y-108138936D01*
X127018586Y-108138938D01*
X126790344Y-108200094D01*
X126790335Y-108200098D01*
X126576171Y-108299964D01*
X126576169Y-108299965D01*
X126382600Y-108435503D01*
X126260284Y-108557819D01*
X126198961Y-108591303D01*
X126129269Y-108586319D01*
X126073336Y-108544447D01*
X126056421Y-108513470D01*
X126007354Y-108381913D01*
X126007350Y-108381906D01*
X125921190Y-108266812D01*
X125921187Y-108266809D01*
X125806093Y-108180649D01*
X125806086Y-108180645D01*
X125671379Y-108130403D01*
X125671372Y-108130401D01*
X125611844Y-108124000D01*
X124964000Y-108124000D01*
X124964000Y-109038498D01*
X124856315Y-108989320D01*
X124749763Y-108974000D01*
X124678237Y-108974000D01*
X124571685Y-108989320D01*
X124464000Y-109038498D01*
X124464000Y-108124000D01*
X123816155Y-108124000D01*
X123756627Y-108130401D01*
X123756620Y-108130403D01*
X123621913Y-108180645D01*
X123621906Y-108180649D01*
X123506812Y-108266809D01*
X123506809Y-108266812D01*
X123420649Y-108381906D01*
X123420645Y-108381913D01*
X123370403Y-108516620D01*
X123370401Y-108516627D01*
X123364000Y-108576155D01*
X123364000Y-109224000D01*
X124280314Y-109224000D01*
X124254507Y-109264156D01*
X124214000Y-109402111D01*
X124214000Y-109545889D01*
X124254507Y-109683844D01*
X124280314Y-109724000D01*
X123364000Y-109724000D01*
X123364000Y-110371844D01*
X113110499Y-110371844D01*
X113110499Y-109592128D01*
X113104091Y-109532517D01*
X113097471Y-109514769D01*
X113053797Y-109397671D01*
X113053793Y-109397664D01*
X112967547Y-109282455D01*
X112967544Y-109282452D01*
X112852335Y-109196206D01*
X112852328Y-109196202D01*
X112717482Y-109145908D01*
X112717483Y-109145908D01*
X112657883Y-109139501D01*
X112657881Y-109139500D01*
X112657873Y-109139500D01*
X112657864Y-109139500D01*
X110862129Y-109139500D01*
X110862123Y-109139501D01*
X110802516Y-109145908D01*
X110667671Y-109196202D01*
X110667664Y-109196206D01*
X110552455Y-109282452D01*
X110552452Y-109282455D01*
X110466206Y-109397664D01*
X110466202Y-109397671D01*
X110415908Y-109532517D01*
X110409501Y-109592116D01*
X110409501Y-109592123D01*
X110409500Y-109592135D01*
X110409500Y-111387870D01*
X102950500Y-111387870D01*
X102950499Y-109592128D01*
X102944091Y-109532517D01*
X102937471Y-109514769D01*
X102893797Y-109397671D01*
X102893793Y-109397664D01*
X102807547Y-109282455D01*
X102807544Y-109282452D01*
X102692335Y-109196206D01*
X102692328Y-109196202D01*
X102557482Y-109145908D01*
X102557483Y-109145908D01*
X102497883Y-109139501D01*
X102497881Y-109139500D01*
X102497873Y-109139500D01*
X102497864Y-109139500D01*
X100702129Y-109139500D01*
X100702123Y-109139501D01*
X100642516Y-109145908D01*
X100507671Y-109196202D01*
X100507664Y-109196206D01*
X100392455Y-109282452D01*
X100392452Y-109282455D01*
X100306206Y-109397664D01*
X100306202Y-109397671D01*
X100255908Y-109532517D01*
X100249501Y-109592116D01*
X100249501Y-109592123D01*
X100249500Y-109592135D01*
X100249500Y-111387870D01*
X95072687Y-111387870D01*
X95110450Y-111367685D01*
X95270410Y-111236410D01*
X95401685Y-111076450D01*
X95499232Y-110893954D01*
X95559300Y-110695934D01*
X95579583Y-110490000D01*
X95559300Y-110284066D01*
X95499232Y-110086046D01*
X95401685Y-109903550D01*
X95320642Y-109804798D01*
X95270410Y-109743589D01*
X95110452Y-109612317D01*
X95110453Y-109612317D01*
X95110450Y-109612315D01*
X94927954Y-109514768D01*
X94729934Y-109454700D01*
X94729932Y-109454699D01*
X94729934Y-109454699D01*
X94610805Y-109442966D01*
X94575608Y-109439500D01*
X93872392Y-109439500D01*
X93834298Y-109443251D01*
X93718067Y-109454699D01*
X93520043Y-109514769D01*
X93461823Y-109545889D01*
X93337550Y-109612315D01*
X93337548Y-109612316D01*
X93337547Y-109612317D01*
X93177589Y-109743589D01*
X93050088Y-109898952D01*
X93046315Y-109903550D01*
X93028081Y-109937663D01*
X92948769Y-110086043D01*
X92888699Y-110284067D01*
X92868417Y-110490000D01*
X91779583Y-110490000D01*
X91759300Y-110284066D01*
X91699232Y-110086046D01*
X91601685Y-109903550D01*
X91520642Y-109804798D01*
X91470410Y-109743589D01*
X91310452Y-109612317D01*
X91310453Y-109612317D01*
X91310450Y-109612315D01*
X91127954Y-109514768D01*
X90929934Y-109454700D01*
X90929932Y-109454699D01*
X90929934Y-109454699D01*
X90810805Y-109442966D01*
X90775608Y-109439500D01*
X90072392Y-109439500D01*
X90034298Y-109443251D01*
X89918067Y-109454699D01*
X89720043Y-109514769D01*
X89661823Y-109545889D01*
X89537550Y-109612315D01*
X89537548Y-109612316D01*
X89537547Y-109612317D01*
X89377589Y-109743589D01*
X89250088Y-109898952D01*
X89246315Y-109903550D01*
X89228081Y-109937663D01*
X89148769Y-110086043D01*
X89088699Y-110284067D01*
X89068417Y-110490000D01*
X87114500Y-110490000D01*
X87114500Y-104419000D01*
X183531341Y-104419000D01*
X183551936Y-104654403D01*
X183551938Y-104654413D01*
X183613094Y-104882655D01*
X183613096Y-104882659D01*
X183613097Y-104882663D01*
X183712965Y-105096830D01*
X183712967Y-105096834D01*
X183821281Y-105251521D01*
X183848505Y-105290401D01*
X184015599Y-105457495D01*
X184112384Y-105525265D01*
X184209165Y-105593032D01*
X184209167Y-105593033D01*
X184209170Y-105593035D01*
X184423337Y-105692903D01*
X184651592Y-105754063D01*
X184839918Y-105770539D01*
X184886999Y-105774659D01*
X184887000Y-105774659D01*
X184887001Y-105774659D01*
X184926234Y-105771226D01*
X185122408Y-105754063D01*
X185350663Y-105692903D01*
X185564830Y-105593035D01*
X185758401Y-105457495D01*
X185925495Y-105290401D01*
X186061035Y-105096830D01*
X186160903Y-104882663D01*
X186222063Y-104654408D01*
X186242659Y-104419000D01*
X186222063Y-104183592D01*
X186160903Y-103955337D01*
X186061035Y-103741171D01*
X185925495Y-103547599D01*
X185925494Y-103547597D01*
X185758402Y-103380506D01*
X185758401Y-103380505D01*
X185572405Y-103250269D01*
X185528781Y-103195692D01*
X185521588Y-103126193D01*
X185553110Y-103063839D01*
X185572405Y-103047119D01*
X185758082Y-102917105D01*
X185925105Y-102750082D01*
X186060600Y-102556578D01*
X186160429Y-102342492D01*
X186160432Y-102342486D01*
X186217636Y-102129000D01*
X185320686Y-102129000D01*
X185346493Y-102088844D01*
X185387000Y-101950889D01*
X185387000Y-101807111D01*
X185346493Y-101669156D01*
X185320686Y-101629000D01*
X186217636Y-101629000D01*
X186217635Y-101628999D01*
X186160432Y-101415513D01*
X186160429Y-101415507D01*
X186060600Y-101201422D01*
X186060599Y-101201420D01*
X185925113Y-101007926D01*
X185925108Y-101007920D01*
X185758078Y-100840890D01*
X185572405Y-100710879D01*
X185528780Y-100656302D01*
X185521588Y-100586804D01*
X185553110Y-100524449D01*
X185572406Y-100507730D01*
X185758401Y-100377495D01*
X185925495Y-100210401D01*
X186061035Y-100016830D01*
X186160903Y-99802663D01*
X186222063Y-99574408D01*
X186242659Y-99339000D01*
X186222063Y-99103592D01*
X186160903Y-98875337D01*
X186061035Y-98661171D01*
X186040960Y-98632500D01*
X185925494Y-98467597D01*
X185758402Y-98300506D01*
X185758396Y-98300501D01*
X185572842Y-98170575D01*
X185529217Y-98115998D01*
X185522023Y-98046500D01*
X185553546Y-97984145D01*
X185572842Y-97967425D01*
X185644823Y-97917023D01*
X185758401Y-97837495D01*
X185925495Y-97670401D01*
X186061035Y-97476830D01*
X186160903Y-97262663D01*
X186222063Y-97034408D01*
X186242659Y-96799000D01*
X186222063Y-96563592D01*
X186160903Y-96335337D01*
X186061035Y-96121171D01*
X186051790Y-96107967D01*
X185925494Y-95927597D01*
X185758402Y-95760506D01*
X185758396Y-95760501D01*
X185572842Y-95630575D01*
X185529217Y-95575998D01*
X185522023Y-95506500D01*
X185553546Y-95444145D01*
X185572842Y-95427425D01*
X185595026Y-95411891D01*
X185758401Y-95297495D01*
X185925495Y-95130401D01*
X186061035Y-94936830D01*
X186160903Y-94722663D01*
X186222063Y-94494408D01*
X186242659Y-94259000D01*
X186222063Y-94023592D01*
X186160903Y-93795337D01*
X186061035Y-93581171D01*
X185925495Y-93387599D01*
X185803567Y-93265671D01*
X185770084Y-93204351D01*
X185775068Y-93134659D01*
X185816939Y-93078725D01*
X185847915Y-93061810D01*
X185979331Y-93012796D01*
X186094546Y-92926546D01*
X186180796Y-92811331D01*
X186231091Y-92676483D01*
X186237500Y-92616873D01*
X186237499Y-90821128D01*
X186231091Y-90761517D01*
X186180796Y-90626669D01*
X186180795Y-90626668D01*
X186180793Y-90626664D01*
X186094547Y-90511455D01*
X186094544Y-90511452D01*
X185979335Y-90425206D01*
X185979328Y-90425202D01*
X185844482Y-90374908D01*
X185844483Y-90374908D01*
X185784883Y-90368501D01*
X185784881Y-90368500D01*
X185784873Y-90368500D01*
X185784864Y-90368500D01*
X183989129Y-90368500D01*
X183989123Y-90368501D01*
X183929516Y-90374908D01*
X183794671Y-90425202D01*
X183794664Y-90425206D01*
X183679455Y-90511452D01*
X183679452Y-90511455D01*
X183593206Y-90626664D01*
X183593202Y-90626671D01*
X183542908Y-90761517D01*
X183536501Y-90821116D01*
X183536501Y-90821123D01*
X183536500Y-90821135D01*
X183536500Y-92616870D01*
X183536501Y-92616876D01*
X183542908Y-92676483D01*
X183593202Y-92811328D01*
X183593206Y-92811335D01*
X183679452Y-92926544D01*
X183679455Y-92926547D01*
X183794664Y-93012793D01*
X183794671Y-93012797D01*
X183926081Y-93061810D01*
X183982015Y-93103681D01*
X184006432Y-93169145D01*
X183991580Y-93237418D01*
X183970430Y-93265673D01*
X183848503Y-93387600D01*
X183712965Y-93581169D01*
X183712964Y-93581171D01*
X183613098Y-93795335D01*
X183613094Y-93795344D01*
X183551938Y-94023586D01*
X183551936Y-94023596D01*
X183531341Y-94258999D01*
X183531341Y-94259000D01*
X183551936Y-94494403D01*
X183551938Y-94494413D01*
X183613094Y-94722655D01*
X183613096Y-94722659D01*
X183613097Y-94722663D01*
X183678283Y-94862454D01*
X183712965Y-94936830D01*
X183712967Y-94936834D01*
X183848501Y-95130395D01*
X183848506Y-95130402D01*
X184015597Y-95297493D01*
X184015603Y-95297498D01*
X184201158Y-95427425D01*
X184244783Y-95482002D01*
X184251977Y-95551500D01*
X184220454Y-95613855D01*
X184201158Y-95630575D01*
X184015597Y-95760505D01*
X183848505Y-95927597D01*
X183712965Y-96121169D01*
X183712964Y-96121171D01*
X183619744Y-96321083D01*
X183618143Y-96324517D01*
X183613098Y-96335335D01*
X183613094Y-96335344D01*
X183551938Y-96563586D01*
X183551936Y-96563596D01*
X183531341Y-96798999D01*
X183531341Y-96799000D01*
X183551936Y-97034403D01*
X183551938Y-97034413D01*
X183613094Y-97262655D01*
X183613096Y-97262659D01*
X183613097Y-97262663D01*
X183712965Y-97476830D01*
X183712967Y-97476834D01*
X183848501Y-97670395D01*
X183848506Y-97670402D01*
X184015597Y-97837493D01*
X184015603Y-97837498D01*
X184201158Y-97967425D01*
X184244783Y-98022002D01*
X184251977Y-98091500D01*
X184220454Y-98153855D01*
X184201158Y-98170575D01*
X184015597Y-98300505D01*
X183848505Y-98467597D01*
X183712965Y-98661169D01*
X183712964Y-98661171D01*
X183613098Y-98875335D01*
X183613094Y-98875344D01*
X183551938Y-99103586D01*
X183551936Y-99103596D01*
X183531341Y-99338999D01*
X183531341Y-99339000D01*
X183551936Y-99574403D01*
X183551938Y-99574413D01*
X183613094Y-99802655D01*
X183613096Y-99802659D01*
X183613097Y-99802663D01*
X183712965Y-100016830D01*
X183712967Y-100016834D01*
X183848501Y-100210395D01*
X183848506Y-100210402D01*
X184015597Y-100377493D01*
X184015603Y-100377498D01*
X184201594Y-100507730D01*
X184245219Y-100562307D01*
X184252413Y-100631805D01*
X184220890Y-100694160D01*
X184201595Y-100710880D01*
X184015922Y-100840890D01*
X184015920Y-100840891D01*
X183848891Y-101007920D01*
X183848886Y-101007926D01*
X183713400Y-101201420D01*
X183713399Y-101201422D01*
X183613570Y-101415507D01*
X183613567Y-101415513D01*
X183556364Y-101628999D01*
X183556364Y-101629000D01*
X184453314Y-101629000D01*
X184427507Y-101669156D01*
X184387000Y-101807111D01*
X184387000Y-101950889D01*
X184427507Y-102088844D01*
X184453314Y-102129000D01*
X183556364Y-102129000D01*
X183613567Y-102342486D01*
X183613570Y-102342492D01*
X183713399Y-102556578D01*
X183848894Y-102750082D01*
X184015917Y-102917105D01*
X184201595Y-103047119D01*
X184245219Y-103101696D01*
X184252412Y-103171195D01*
X184220890Y-103233549D01*
X184201595Y-103250269D01*
X184015594Y-103380508D01*
X183848505Y-103547597D01*
X183712965Y-103741169D01*
X183712964Y-103741171D01*
X183613098Y-103955335D01*
X183613094Y-103955344D01*
X183551938Y-104183586D01*
X183551936Y-104183596D01*
X183531341Y-104418999D01*
X183531341Y-104419000D01*
X87114500Y-104419000D01*
X87114500Y-97282000D01*
X102530341Y-97282000D01*
X102550936Y-97517403D01*
X102550938Y-97517413D01*
X102612094Y-97745655D01*
X102612096Y-97745659D01*
X102612097Y-97745663D01*
X102692004Y-97917023D01*
X102711965Y-97959830D01*
X102711967Y-97959834D01*
X102804161Y-98091500D01*
X102847505Y-98153401D01*
X103014599Y-98320495D01*
X103111384Y-98388265D01*
X103208165Y-98456032D01*
X103208167Y-98456033D01*
X103208170Y-98456035D01*
X103422337Y-98555903D01*
X103650592Y-98617063D01*
X103827034Y-98632500D01*
X103885999Y-98637659D01*
X103886000Y-98637659D01*
X103886001Y-98637659D01*
X103944966Y-98632500D01*
X104121408Y-98617063D01*
X104349663Y-98555903D01*
X104563830Y-98456035D01*
X104757401Y-98320495D01*
X104924495Y-98153401D01*
X105054425Y-97967842D01*
X105109002Y-97924217D01*
X105178500Y-97917023D01*
X105240855Y-97948546D01*
X105257575Y-97967842D01*
X105387500Y-98153395D01*
X105387505Y-98153401D01*
X105554599Y-98320495D01*
X105651384Y-98388265D01*
X105748165Y-98456032D01*
X105748167Y-98456033D01*
X105748170Y-98456035D01*
X105962337Y-98555903D01*
X106190592Y-98617063D01*
X106367034Y-98632500D01*
X106425999Y-98637659D01*
X106426000Y-98637659D01*
X106426001Y-98637659D01*
X106484966Y-98632500D01*
X106661408Y-98617063D01*
X106889663Y-98555903D01*
X107103830Y-98456035D01*
X107297401Y-98320495D01*
X107419329Y-98198566D01*
X107480648Y-98165084D01*
X107550340Y-98170068D01*
X107606274Y-98211939D01*
X107623189Y-98242917D01*
X107672202Y-98374328D01*
X107672206Y-98374335D01*
X107758452Y-98489544D01*
X107758455Y-98489547D01*
X107873664Y-98575793D01*
X107873671Y-98575797D01*
X108008517Y-98626091D01*
X108008516Y-98626091D01*
X108015444Y-98626835D01*
X108068127Y-98632500D01*
X109863872Y-98632499D01*
X109923483Y-98626091D01*
X110058331Y-98575796D01*
X110173546Y-98489546D01*
X110259796Y-98374331D01*
X110310091Y-98239483D01*
X110316500Y-98179873D01*
X110316499Y-96384128D01*
X110310091Y-96324517D01*
X110308810Y-96321083D01*
X110259797Y-96189671D01*
X110259793Y-96189664D01*
X110173547Y-96074455D01*
X110173544Y-96074452D01*
X110058335Y-95988206D01*
X110058328Y-95988202D01*
X109923482Y-95937908D01*
X109923483Y-95937908D01*
X109863883Y-95931501D01*
X109863881Y-95931500D01*
X109863873Y-95931500D01*
X109863864Y-95931500D01*
X108068129Y-95931500D01*
X108068123Y-95931501D01*
X108008516Y-95937908D01*
X107873671Y-95988202D01*
X107873664Y-95988206D01*
X107758455Y-96074452D01*
X107758452Y-96074455D01*
X107672206Y-96189664D01*
X107672203Y-96189669D01*
X107623189Y-96321083D01*
X107581317Y-96377016D01*
X107515853Y-96401433D01*
X107447580Y-96386581D01*
X107419326Y-96365430D01*
X107297402Y-96243506D01*
X107297395Y-96243501D01*
X107103834Y-96107967D01*
X107103830Y-96107965D01*
X107103828Y-96107964D01*
X106889663Y-96008097D01*
X106889659Y-96008096D01*
X106889655Y-96008094D01*
X106661413Y-95946938D01*
X106661403Y-95946936D01*
X106426001Y-95926341D01*
X106425999Y-95926341D01*
X106190596Y-95946936D01*
X106190586Y-95946938D01*
X105962344Y-96008094D01*
X105962335Y-96008098D01*
X105748171Y-96107964D01*
X105748169Y-96107965D01*
X105554597Y-96243505D01*
X105387505Y-96410597D01*
X105257575Y-96596158D01*
X105202998Y-96639783D01*
X105133500Y-96646977D01*
X105071145Y-96615454D01*
X105054425Y-96596158D01*
X104924494Y-96410597D01*
X104757402Y-96243506D01*
X104757395Y-96243501D01*
X104563834Y-96107967D01*
X104563830Y-96107965D01*
X104563828Y-96107964D01*
X104349663Y-96008097D01*
X104349659Y-96008096D01*
X104349655Y-96008094D01*
X104121413Y-95946938D01*
X104121403Y-95946936D01*
X103886001Y-95926341D01*
X103885999Y-95926341D01*
X103650596Y-95946936D01*
X103650586Y-95946938D01*
X103422344Y-96008094D01*
X103422335Y-96008098D01*
X103208171Y-96107964D01*
X103208169Y-96107965D01*
X103014597Y-96243505D01*
X102847505Y-96410597D01*
X102711965Y-96604169D01*
X102711964Y-96604171D01*
X102612098Y-96818335D01*
X102612094Y-96818344D01*
X102550938Y-97046586D01*
X102550936Y-97046596D01*
X102530341Y-97281999D01*
X102530341Y-97282000D01*
X87114500Y-97282000D01*
X87114500Y-95529000D01*
X138075341Y-95529000D01*
X138095936Y-95764403D01*
X138095938Y-95764413D01*
X138157094Y-95992655D01*
X138157096Y-95992659D01*
X138157097Y-95992663D01*
X138237004Y-96164023D01*
X138256965Y-96206830D01*
X138256967Y-96206834D01*
X138365281Y-96361521D01*
X138392505Y-96400401D01*
X138559599Y-96567495D01*
X138636135Y-96621086D01*
X138753165Y-96703032D01*
X138753167Y-96703033D01*
X138753170Y-96703035D01*
X138967337Y-96802903D01*
X138967343Y-96802904D01*
X138967344Y-96802905D01*
X139022285Y-96817626D01*
X139195592Y-96864063D01*
X139366319Y-96879000D01*
X139430999Y-96884659D01*
X139431000Y-96884659D01*
X139431001Y-96884659D01*
X139495681Y-96879000D01*
X139666408Y-96864063D01*
X139894663Y-96802903D01*
X140108830Y-96703035D01*
X140302401Y-96567495D01*
X140469495Y-96400401D01*
X140599425Y-96214842D01*
X140654002Y-96171217D01*
X140723500Y-96164023D01*
X140785855Y-96195546D01*
X140802575Y-96214842D01*
X140932500Y-96400395D01*
X140932505Y-96400401D01*
X141099599Y-96567495D01*
X141176135Y-96621086D01*
X141293165Y-96703032D01*
X141293167Y-96703033D01*
X141293170Y-96703035D01*
X141507337Y-96802903D01*
X141507343Y-96802904D01*
X141507344Y-96802905D01*
X141562285Y-96817626D01*
X141735592Y-96864063D01*
X141906319Y-96879000D01*
X141970999Y-96884659D01*
X141971000Y-96884659D01*
X141971001Y-96884659D01*
X142035681Y-96879000D01*
X142206408Y-96864063D01*
X142434663Y-96802903D01*
X142648830Y-96703035D01*
X142842401Y-96567495D01*
X143009495Y-96400401D01*
X143139425Y-96214842D01*
X143194002Y-96171217D01*
X143263500Y-96164023D01*
X143325855Y-96195546D01*
X143342575Y-96214842D01*
X143472500Y-96400395D01*
X143472505Y-96400401D01*
X143639599Y-96567495D01*
X143716135Y-96621086D01*
X143833165Y-96703032D01*
X143833167Y-96703033D01*
X143833170Y-96703035D01*
X144047337Y-96802903D01*
X144047343Y-96802904D01*
X144047344Y-96802905D01*
X144102285Y-96817626D01*
X144275592Y-96864063D01*
X144446319Y-96879000D01*
X144510999Y-96884659D01*
X144511000Y-96884659D01*
X144511001Y-96884659D01*
X144575681Y-96879000D01*
X144746408Y-96864063D01*
X144974663Y-96802903D01*
X145188830Y-96703035D01*
X145382401Y-96567495D01*
X145549495Y-96400401D01*
X145679425Y-96214842D01*
X145734002Y-96171217D01*
X145803500Y-96164023D01*
X145865855Y-96195546D01*
X145882575Y-96214842D01*
X146012500Y-96400395D01*
X146012505Y-96400401D01*
X146179599Y-96567495D01*
X146256135Y-96621086D01*
X146373165Y-96703032D01*
X146373167Y-96703033D01*
X146373170Y-96703035D01*
X146587337Y-96802903D01*
X146587343Y-96802904D01*
X146587344Y-96802905D01*
X146642285Y-96817626D01*
X146815592Y-96864063D01*
X146986319Y-96879000D01*
X147050999Y-96884659D01*
X147051000Y-96884659D01*
X147051001Y-96884659D01*
X147115681Y-96879000D01*
X147286408Y-96864063D01*
X147514663Y-96802903D01*
X147728830Y-96703035D01*
X147922401Y-96567495D01*
X148089495Y-96400401D01*
X148219425Y-96214842D01*
X148274002Y-96171217D01*
X148343500Y-96164023D01*
X148405855Y-96195546D01*
X148422575Y-96214842D01*
X148552500Y-96400395D01*
X148552505Y-96400401D01*
X148719599Y-96567495D01*
X148796135Y-96621086D01*
X148913165Y-96703032D01*
X148913167Y-96703033D01*
X148913170Y-96703035D01*
X149127337Y-96802903D01*
X149127343Y-96802904D01*
X149127344Y-96802905D01*
X149182285Y-96817626D01*
X149355592Y-96864063D01*
X149526319Y-96879000D01*
X149590999Y-96884659D01*
X149591000Y-96884659D01*
X149591001Y-96884659D01*
X149655681Y-96879000D01*
X149826408Y-96864063D01*
X150054663Y-96802903D01*
X150268830Y-96703035D01*
X150462401Y-96567495D01*
X150629495Y-96400401D01*
X150759425Y-96214842D01*
X150814002Y-96171217D01*
X150883500Y-96164023D01*
X150945855Y-96195546D01*
X150962575Y-96214842D01*
X151092500Y-96400395D01*
X151092505Y-96400401D01*
X151259599Y-96567495D01*
X151336135Y-96621086D01*
X151453165Y-96703032D01*
X151453167Y-96703033D01*
X151453170Y-96703035D01*
X151667337Y-96802903D01*
X151667343Y-96802904D01*
X151667344Y-96802905D01*
X151722285Y-96817626D01*
X151895592Y-96864063D01*
X152066319Y-96879000D01*
X152130999Y-96884659D01*
X152131000Y-96884659D01*
X152131001Y-96884659D01*
X152195681Y-96879000D01*
X152366408Y-96864063D01*
X152594663Y-96802903D01*
X152808830Y-96703035D01*
X153002401Y-96567495D01*
X153169495Y-96400401D01*
X153299425Y-96214842D01*
X153354002Y-96171217D01*
X153423500Y-96164023D01*
X153485855Y-96195546D01*
X153502575Y-96214842D01*
X153632500Y-96400395D01*
X153632505Y-96400401D01*
X153799599Y-96567495D01*
X153876135Y-96621086D01*
X153993165Y-96703032D01*
X153993167Y-96703033D01*
X153993170Y-96703035D01*
X154207337Y-96802903D01*
X154207343Y-96802904D01*
X154207344Y-96802905D01*
X154262285Y-96817626D01*
X154435592Y-96864063D01*
X154606319Y-96879000D01*
X154670999Y-96884659D01*
X154671000Y-96884659D01*
X154671001Y-96884659D01*
X154735681Y-96879000D01*
X154906408Y-96864063D01*
X155134663Y-96802903D01*
X155348830Y-96703035D01*
X155542401Y-96567495D01*
X155664717Y-96445178D01*
X155726036Y-96411696D01*
X155795728Y-96416680D01*
X155851662Y-96458551D01*
X155868577Y-96489528D01*
X155917646Y-96621088D01*
X155917649Y-96621093D01*
X156003809Y-96736187D01*
X156003812Y-96736190D01*
X156118906Y-96822350D01*
X156118913Y-96822354D01*
X156253620Y-96872596D01*
X156253627Y-96872598D01*
X156313155Y-96878999D01*
X156313172Y-96879000D01*
X156961000Y-96879000D01*
X156961000Y-95964501D01*
X157068685Y-96013680D01*
X157175237Y-96029000D01*
X157246763Y-96029000D01*
X157353315Y-96013680D01*
X157461000Y-95964501D01*
X157461000Y-96879000D01*
X158108828Y-96879000D01*
X158108844Y-96878999D01*
X158168372Y-96872598D01*
X158168379Y-96872596D01*
X158303086Y-96822354D01*
X158303093Y-96822350D01*
X158418187Y-96736190D01*
X158418190Y-96736187D01*
X158504350Y-96621093D01*
X158504354Y-96621086D01*
X158554596Y-96486379D01*
X158554598Y-96486372D01*
X158560999Y-96426844D01*
X158561000Y-96426827D01*
X158561000Y-95779000D01*
X157644686Y-95779000D01*
X157670493Y-95738844D01*
X157711000Y-95600889D01*
X157711000Y-95457111D01*
X157670493Y-95319156D01*
X157644686Y-95279000D01*
X158561000Y-95279000D01*
X158561000Y-94631172D01*
X158560999Y-94631155D01*
X158554598Y-94571627D01*
X158554596Y-94571620D01*
X158504354Y-94436913D01*
X158504350Y-94436906D01*
X158418190Y-94321812D01*
X158418187Y-94321809D01*
X158303093Y-94235649D01*
X158303086Y-94235645D01*
X158168379Y-94185403D01*
X158168372Y-94185401D01*
X158108844Y-94179000D01*
X157461000Y-94179000D01*
X157461000Y-95093498D01*
X157353315Y-95044320D01*
X157246763Y-95029000D01*
X157175237Y-95029000D01*
X157068685Y-95044320D01*
X156961000Y-95093498D01*
X156961000Y-94179000D01*
X156313155Y-94179000D01*
X156253627Y-94185401D01*
X156253620Y-94185403D01*
X156118913Y-94235645D01*
X156118906Y-94235649D01*
X156003812Y-94321809D01*
X156003809Y-94321812D01*
X155917649Y-94436906D01*
X155917645Y-94436913D01*
X155868578Y-94568470D01*
X155826707Y-94624404D01*
X155761242Y-94648821D01*
X155692969Y-94633969D01*
X155664715Y-94612819D01*
X155620366Y-94568470D01*
X155542401Y-94490505D01*
X155542397Y-94490502D01*
X155542396Y-94490501D01*
X155348834Y-94354967D01*
X155348830Y-94354965D01*
X155277727Y-94321809D01*
X155134663Y-94255097D01*
X155134659Y-94255096D01*
X155134655Y-94255094D01*
X154906413Y-94193938D01*
X154906403Y-94193936D01*
X154671001Y-94173341D01*
X154670999Y-94173341D01*
X154435596Y-94193936D01*
X154435586Y-94193938D01*
X154207344Y-94255094D01*
X154207335Y-94255098D01*
X153993171Y-94354964D01*
X153993169Y-94354965D01*
X153799597Y-94490505D01*
X153632505Y-94657597D01*
X153502575Y-94843158D01*
X153447998Y-94886783D01*
X153378500Y-94893977D01*
X153316145Y-94862454D01*
X153299425Y-94843158D01*
X153169494Y-94657597D01*
X153002402Y-94490506D01*
X153002395Y-94490501D01*
X152808834Y-94354967D01*
X152808830Y-94354965D01*
X152737727Y-94321809D01*
X152594663Y-94255097D01*
X152594659Y-94255096D01*
X152594655Y-94255094D01*
X152366413Y-94193938D01*
X152366403Y-94193936D01*
X152131001Y-94173341D01*
X152130999Y-94173341D01*
X151895596Y-94193936D01*
X151895586Y-94193938D01*
X151667344Y-94255094D01*
X151667335Y-94255098D01*
X151453171Y-94354964D01*
X151453169Y-94354965D01*
X151259597Y-94490505D01*
X151092505Y-94657597D01*
X150962575Y-94843158D01*
X150907998Y-94886783D01*
X150838500Y-94893977D01*
X150776145Y-94862454D01*
X150759425Y-94843158D01*
X150629494Y-94657597D01*
X150462402Y-94490506D01*
X150462395Y-94490501D01*
X150268834Y-94354967D01*
X150268830Y-94354965D01*
X150197727Y-94321809D01*
X150054663Y-94255097D01*
X150054659Y-94255096D01*
X150054655Y-94255094D01*
X149826413Y-94193938D01*
X149826403Y-94193936D01*
X149591001Y-94173341D01*
X149590999Y-94173341D01*
X149355596Y-94193936D01*
X149355586Y-94193938D01*
X149127344Y-94255094D01*
X149127335Y-94255098D01*
X148913171Y-94354964D01*
X148913169Y-94354965D01*
X148719597Y-94490505D01*
X148552505Y-94657597D01*
X148422575Y-94843158D01*
X148367998Y-94886783D01*
X148298500Y-94893977D01*
X148236145Y-94862454D01*
X148219425Y-94843158D01*
X148089494Y-94657597D01*
X147922402Y-94490506D01*
X147922395Y-94490501D01*
X147728834Y-94354967D01*
X147728830Y-94354965D01*
X147657727Y-94321809D01*
X147514663Y-94255097D01*
X147514659Y-94255096D01*
X147514655Y-94255094D01*
X147286413Y-94193938D01*
X147286403Y-94193936D01*
X147051001Y-94173341D01*
X147050999Y-94173341D01*
X146815596Y-94193936D01*
X146815586Y-94193938D01*
X146587344Y-94255094D01*
X146587335Y-94255098D01*
X146373171Y-94354964D01*
X146373169Y-94354965D01*
X146179597Y-94490505D01*
X146012505Y-94657597D01*
X145882575Y-94843158D01*
X145827998Y-94886783D01*
X145758500Y-94893977D01*
X145696145Y-94862454D01*
X145679425Y-94843158D01*
X145549494Y-94657597D01*
X145382402Y-94490506D01*
X145382395Y-94490501D01*
X145188834Y-94354967D01*
X145188830Y-94354965D01*
X145117727Y-94321809D01*
X144974663Y-94255097D01*
X144974659Y-94255096D01*
X144974655Y-94255094D01*
X144746413Y-94193938D01*
X144746403Y-94193936D01*
X144511001Y-94173341D01*
X144510999Y-94173341D01*
X144275596Y-94193936D01*
X144275586Y-94193938D01*
X144047344Y-94255094D01*
X144047335Y-94255098D01*
X143833171Y-94354964D01*
X143833169Y-94354965D01*
X143639597Y-94490505D01*
X143472505Y-94657597D01*
X143342575Y-94843158D01*
X143287998Y-94886783D01*
X143218500Y-94893977D01*
X143156145Y-94862454D01*
X143139425Y-94843158D01*
X143009494Y-94657597D01*
X142842402Y-94490506D01*
X142842395Y-94490501D01*
X142648834Y-94354967D01*
X142648830Y-94354965D01*
X142577727Y-94321809D01*
X142434663Y-94255097D01*
X142434659Y-94255096D01*
X142434655Y-94255094D01*
X142206413Y-94193938D01*
X142206403Y-94193936D01*
X141971001Y-94173341D01*
X141970999Y-94173341D01*
X141735596Y-94193936D01*
X141735586Y-94193938D01*
X141507344Y-94255094D01*
X141507335Y-94255098D01*
X141293171Y-94354964D01*
X141293169Y-94354965D01*
X141099597Y-94490505D01*
X140932505Y-94657597D01*
X140802575Y-94843158D01*
X140747998Y-94886783D01*
X140678500Y-94893977D01*
X140616145Y-94862454D01*
X140599425Y-94843158D01*
X140469494Y-94657597D01*
X140302402Y-94490506D01*
X140302395Y-94490501D01*
X140108834Y-94354967D01*
X140108830Y-94354965D01*
X140037727Y-94321809D01*
X139894663Y-94255097D01*
X139894659Y-94255096D01*
X139894655Y-94255094D01*
X139666413Y-94193938D01*
X139666403Y-94193936D01*
X139431001Y-94173341D01*
X139430999Y-94173341D01*
X139195596Y-94193936D01*
X139195586Y-94193938D01*
X138967344Y-94255094D01*
X138967335Y-94255098D01*
X138753171Y-94354964D01*
X138753169Y-94354965D01*
X138559597Y-94490505D01*
X138392505Y-94657597D01*
X138256965Y-94851169D01*
X138256964Y-94851171D01*
X138157098Y-95065335D01*
X138157094Y-95065344D01*
X138095938Y-95293586D01*
X138095936Y-95293596D01*
X138075341Y-95528999D01*
X138075341Y-95529000D01*
X87114500Y-95529000D01*
X87114500Y-84872000D01*
X87628551Y-84872000D01*
X87648317Y-85123151D01*
X87707126Y-85368110D01*
X87803533Y-85600859D01*
X87935160Y-85815653D01*
X87935161Y-85815656D01*
X87935164Y-85815659D01*
X88098776Y-86007224D01*
X88247066Y-86133875D01*
X88290343Y-86170838D01*
X88290346Y-86170839D01*
X88505140Y-86302466D01*
X88737889Y-86398873D01*
X88982852Y-86457683D01*
X89171118Y-86472500D01*
X89171126Y-86472500D01*
X90596874Y-86472500D01*
X90596882Y-86472500D01*
X90785148Y-86457683D01*
X91030111Y-86398873D01*
X91262859Y-86302466D01*
X91477659Y-86170836D01*
X91669224Y-86007224D01*
X91832836Y-85815659D01*
X91964466Y-85600859D01*
X92060873Y-85368111D01*
X92119683Y-85123148D01*
X92131589Y-84971870D01*
X123363500Y-84971870D01*
X123363501Y-84971876D01*
X123369908Y-85031483D01*
X123420202Y-85166328D01*
X123420206Y-85166335D01*
X123506452Y-85281544D01*
X123506455Y-85281547D01*
X123621664Y-85367793D01*
X123621671Y-85367797D01*
X123756517Y-85418091D01*
X123756516Y-85418091D01*
X123763444Y-85418835D01*
X123816127Y-85424500D01*
X125611872Y-85424499D01*
X125671483Y-85418091D01*
X125806331Y-85367796D01*
X125921546Y-85281546D01*
X126007796Y-85166331D01*
X126056810Y-85034916D01*
X126098681Y-84978984D01*
X126164145Y-84954566D01*
X126232418Y-84969417D01*
X126260673Y-84990569D01*
X126382599Y-85112495D01*
X126479384Y-85180265D01*
X126576165Y-85248032D01*
X126576167Y-85248033D01*
X126576170Y-85248035D01*
X126790337Y-85347903D01*
X127018592Y-85409063D01*
X127195034Y-85424500D01*
X127253999Y-85429659D01*
X127254000Y-85429659D01*
X127254001Y-85429659D01*
X127312966Y-85424500D01*
X127489408Y-85409063D01*
X127717663Y-85347903D01*
X127931830Y-85248035D01*
X128125401Y-85112495D01*
X128292495Y-84945401D01*
X128422425Y-84759842D01*
X128477002Y-84716217D01*
X128546500Y-84709023D01*
X128608855Y-84740546D01*
X128625575Y-84759842D01*
X128755500Y-84945395D01*
X128755505Y-84945401D01*
X128922599Y-85112495D01*
X129019384Y-85180265D01*
X129116165Y-85248032D01*
X129116167Y-85248033D01*
X129116170Y-85248035D01*
X129330337Y-85347903D01*
X129558592Y-85409063D01*
X129735034Y-85424500D01*
X129793999Y-85429659D01*
X129794000Y-85429659D01*
X129794001Y-85429659D01*
X129852966Y-85424500D01*
X130029408Y-85409063D01*
X130257663Y-85347903D01*
X130471830Y-85248035D01*
X130665401Y-85112495D01*
X130832495Y-84945401D01*
X130962425Y-84759842D01*
X131017002Y-84716217D01*
X131086500Y-84709023D01*
X131148855Y-84740546D01*
X131165575Y-84759842D01*
X131295500Y-84945395D01*
X131295505Y-84945401D01*
X131462599Y-85112495D01*
X131559384Y-85180265D01*
X131656165Y-85248032D01*
X131656167Y-85248033D01*
X131656170Y-85248035D01*
X131870337Y-85347903D01*
X132098592Y-85409063D01*
X132275034Y-85424500D01*
X132333999Y-85429659D01*
X132334000Y-85429659D01*
X132334001Y-85429659D01*
X132392966Y-85424500D01*
X132569408Y-85409063D01*
X132797663Y-85347903D01*
X133011830Y-85248035D01*
X133205401Y-85112495D01*
X133372495Y-84945401D01*
X133502425Y-84759842D01*
X133557002Y-84716217D01*
X133626500Y-84709023D01*
X133688855Y-84740546D01*
X133705575Y-84759842D01*
X133835500Y-84945395D01*
X133835505Y-84945401D01*
X134002599Y-85112495D01*
X134099384Y-85180265D01*
X134196165Y-85248032D01*
X134196167Y-85248033D01*
X134196170Y-85248035D01*
X134410337Y-85347903D01*
X134638592Y-85409063D01*
X134815034Y-85424500D01*
X134873999Y-85429659D01*
X134874000Y-85429659D01*
X134874001Y-85429659D01*
X134932966Y-85424500D01*
X135109408Y-85409063D01*
X135337663Y-85347903D01*
X135551830Y-85248035D01*
X135745401Y-85112495D01*
X135912495Y-84945401D01*
X136042425Y-84759842D01*
X136097002Y-84716217D01*
X136166500Y-84709023D01*
X136228855Y-84740546D01*
X136245575Y-84759842D01*
X136375500Y-84945395D01*
X136375505Y-84945401D01*
X136542599Y-85112495D01*
X136639384Y-85180265D01*
X136736165Y-85248032D01*
X136736167Y-85248033D01*
X136736170Y-85248035D01*
X136950337Y-85347903D01*
X137178592Y-85409063D01*
X137355034Y-85424500D01*
X137413999Y-85429659D01*
X137414000Y-85429659D01*
X137414001Y-85429659D01*
X137472966Y-85424500D01*
X137649408Y-85409063D01*
X137877663Y-85347903D01*
X138091830Y-85248035D01*
X138285401Y-85112495D01*
X138452495Y-84945401D01*
X138582425Y-84759842D01*
X138637002Y-84716217D01*
X138706500Y-84709023D01*
X138768855Y-84740546D01*
X138785575Y-84759842D01*
X138915500Y-84945395D01*
X138915505Y-84945401D01*
X139082599Y-85112495D01*
X139179384Y-85180265D01*
X139276165Y-85248032D01*
X139276167Y-85248033D01*
X139276170Y-85248035D01*
X139490337Y-85347903D01*
X139718592Y-85409063D01*
X139895034Y-85424500D01*
X139953999Y-85429659D01*
X139954000Y-85429659D01*
X139954001Y-85429659D01*
X140012966Y-85424500D01*
X140189408Y-85409063D01*
X140417663Y-85347903D01*
X140631830Y-85248035D01*
X140825401Y-85112495D01*
X140992495Y-84945401D01*
X141122425Y-84759842D01*
X141177002Y-84716217D01*
X141246500Y-84709023D01*
X141308855Y-84740546D01*
X141325575Y-84759842D01*
X141455500Y-84945395D01*
X141455505Y-84945401D01*
X141622599Y-85112495D01*
X141719384Y-85180265D01*
X141816165Y-85248032D01*
X141816167Y-85248033D01*
X141816170Y-85248035D01*
X142030337Y-85347903D01*
X142258592Y-85409063D01*
X142435034Y-85424500D01*
X142493999Y-85429659D01*
X142494000Y-85429659D01*
X142494001Y-85429659D01*
X142552966Y-85424500D01*
X142729408Y-85409063D01*
X142957663Y-85347903D01*
X143171830Y-85248035D01*
X143365401Y-85112495D01*
X143532495Y-84945401D01*
X143662425Y-84759842D01*
X143717002Y-84716217D01*
X143786500Y-84709023D01*
X143848855Y-84740546D01*
X143865575Y-84759842D01*
X143995500Y-84945395D01*
X143995505Y-84945401D01*
X144162599Y-85112495D01*
X144259384Y-85180265D01*
X144356165Y-85248032D01*
X144356167Y-85248033D01*
X144356170Y-85248035D01*
X144570337Y-85347903D01*
X144798592Y-85409063D01*
X144975034Y-85424500D01*
X145033999Y-85429659D01*
X145034000Y-85429659D01*
X145034001Y-85429659D01*
X145092966Y-85424500D01*
X145269408Y-85409063D01*
X145497663Y-85347903D01*
X145711830Y-85248035D01*
X145905401Y-85112495D01*
X146072495Y-84945401D01*
X146202425Y-84759842D01*
X146257002Y-84716217D01*
X146326500Y-84709023D01*
X146388855Y-84740546D01*
X146405575Y-84759842D01*
X146535500Y-84945395D01*
X146535505Y-84945401D01*
X146702599Y-85112495D01*
X146799384Y-85180265D01*
X146896165Y-85248032D01*
X146896167Y-85248033D01*
X146896170Y-85248035D01*
X147110337Y-85347903D01*
X147338592Y-85409063D01*
X147515034Y-85424500D01*
X147573999Y-85429659D01*
X147574000Y-85429659D01*
X147574001Y-85429659D01*
X147632966Y-85424500D01*
X147809408Y-85409063D01*
X148037663Y-85347903D01*
X148251830Y-85248035D01*
X148445401Y-85112495D01*
X148612495Y-84945401D01*
X148742425Y-84759842D01*
X148797002Y-84716217D01*
X148866500Y-84709023D01*
X148928855Y-84740546D01*
X148945575Y-84759842D01*
X149075500Y-84945395D01*
X149075505Y-84945401D01*
X149242599Y-85112495D01*
X149339384Y-85180265D01*
X149436165Y-85248032D01*
X149436167Y-85248033D01*
X149436170Y-85248035D01*
X149650337Y-85347903D01*
X149878592Y-85409063D01*
X150055034Y-85424500D01*
X150113999Y-85429659D01*
X150114000Y-85429659D01*
X150114001Y-85429659D01*
X150172966Y-85424500D01*
X150349408Y-85409063D01*
X150577663Y-85347903D01*
X150791830Y-85248035D01*
X150985401Y-85112495D01*
X151152495Y-84945401D01*
X151282425Y-84759842D01*
X151337002Y-84716217D01*
X151406500Y-84709023D01*
X151468855Y-84740546D01*
X151485575Y-84759842D01*
X151615500Y-84945395D01*
X151615505Y-84945401D01*
X151782599Y-85112495D01*
X151879384Y-85180265D01*
X151976165Y-85248032D01*
X151976167Y-85248033D01*
X151976170Y-85248035D01*
X152190337Y-85347903D01*
X152418592Y-85409063D01*
X152595034Y-85424500D01*
X152653999Y-85429659D01*
X152654000Y-85429659D01*
X152654001Y-85429659D01*
X152712966Y-85424500D01*
X152889408Y-85409063D01*
X153117663Y-85347903D01*
X153331830Y-85248035D01*
X153525401Y-85112495D01*
X153692495Y-84945401D01*
X153822425Y-84759842D01*
X153877002Y-84716217D01*
X153946500Y-84709023D01*
X154008855Y-84740546D01*
X154025575Y-84759842D01*
X154155500Y-84945395D01*
X154155505Y-84945401D01*
X154322599Y-85112495D01*
X154419384Y-85180265D01*
X154516165Y-85248032D01*
X154516167Y-85248033D01*
X154516170Y-85248035D01*
X154730337Y-85347903D01*
X154958592Y-85409063D01*
X155135034Y-85424500D01*
X155193999Y-85429659D01*
X155194000Y-85429659D01*
X155194001Y-85429659D01*
X155252966Y-85424500D01*
X155429408Y-85409063D01*
X155657663Y-85347903D01*
X155871830Y-85248035D01*
X156065401Y-85112495D01*
X156232495Y-84945401D01*
X156362425Y-84759842D01*
X156417002Y-84716217D01*
X156486500Y-84709023D01*
X156548855Y-84740546D01*
X156565575Y-84759842D01*
X156695500Y-84945395D01*
X156695505Y-84945401D01*
X156862599Y-85112495D01*
X156959384Y-85180265D01*
X157056165Y-85248032D01*
X157056167Y-85248033D01*
X157056170Y-85248035D01*
X157270337Y-85347903D01*
X157498592Y-85409063D01*
X157675034Y-85424500D01*
X157733999Y-85429659D01*
X157734000Y-85429659D01*
X157734001Y-85429659D01*
X157792966Y-85424500D01*
X157969408Y-85409063D01*
X158197663Y-85347903D01*
X158411830Y-85248035D01*
X158605401Y-85112495D01*
X158772495Y-84945401D01*
X158902425Y-84759842D01*
X158957002Y-84716217D01*
X159026500Y-84709023D01*
X159088855Y-84740546D01*
X159105575Y-84759842D01*
X159235500Y-84945395D01*
X159235505Y-84945401D01*
X159402599Y-85112495D01*
X159499384Y-85180265D01*
X159596165Y-85248032D01*
X159596167Y-85248033D01*
X159596170Y-85248035D01*
X159810337Y-85347903D01*
X160038592Y-85409063D01*
X160215034Y-85424500D01*
X160273999Y-85429659D01*
X160274000Y-85429659D01*
X160274001Y-85429659D01*
X160332966Y-85424500D01*
X160509408Y-85409063D01*
X160737663Y-85347903D01*
X160951830Y-85248035D01*
X161145401Y-85112495D01*
X161312495Y-84945401D01*
X161442425Y-84759842D01*
X161497002Y-84716217D01*
X161566500Y-84709023D01*
X161628855Y-84740546D01*
X161645575Y-84759842D01*
X161775500Y-84945395D01*
X161775505Y-84945401D01*
X161942599Y-85112495D01*
X162039384Y-85180265D01*
X162136165Y-85248032D01*
X162136167Y-85248033D01*
X162136170Y-85248035D01*
X162350337Y-85347903D01*
X162578592Y-85409063D01*
X162755034Y-85424500D01*
X162813999Y-85429659D01*
X162814000Y-85429659D01*
X162814001Y-85429659D01*
X162872966Y-85424500D01*
X163049408Y-85409063D01*
X163277663Y-85347903D01*
X163491830Y-85248035D01*
X163685401Y-85112495D01*
X163852495Y-84945401D01*
X163982425Y-84759842D01*
X164037002Y-84716217D01*
X164106500Y-84709023D01*
X164168855Y-84740546D01*
X164185575Y-84759842D01*
X164315500Y-84945395D01*
X164315505Y-84945401D01*
X164482599Y-85112495D01*
X164579384Y-85180265D01*
X164676165Y-85248032D01*
X164676167Y-85248033D01*
X164676170Y-85248035D01*
X164890337Y-85347903D01*
X165118592Y-85409063D01*
X165295034Y-85424500D01*
X165353999Y-85429659D01*
X165354000Y-85429659D01*
X165354001Y-85429659D01*
X165412966Y-85424500D01*
X165589408Y-85409063D01*
X165817663Y-85347903D01*
X166031830Y-85248035D01*
X166225401Y-85112495D01*
X166392495Y-84945401D01*
X166522425Y-84759842D01*
X166577002Y-84716217D01*
X166646500Y-84709023D01*
X166708855Y-84740546D01*
X166725575Y-84759842D01*
X166855500Y-84945395D01*
X166855505Y-84945401D01*
X167022599Y-85112495D01*
X167119384Y-85180265D01*
X167216165Y-85248032D01*
X167216167Y-85248033D01*
X167216170Y-85248035D01*
X167430337Y-85347903D01*
X167658592Y-85409063D01*
X167835034Y-85424500D01*
X167893999Y-85429659D01*
X167894000Y-85429659D01*
X167894001Y-85429659D01*
X167952966Y-85424500D01*
X168129408Y-85409063D01*
X168357663Y-85347903D01*
X168571830Y-85248035D01*
X168765401Y-85112495D01*
X168932495Y-84945401D01*
X169062425Y-84759842D01*
X169117002Y-84716217D01*
X169186500Y-84709023D01*
X169248855Y-84740546D01*
X169265575Y-84759842D01*
X169395500Y-84945395D01*
X169395505Y-84945401D01*
X169562599Y-85112495D01*
X169659384Y-85180265D01*
X169756165Y-85248032D01*
X169756167Y-85248033D01*
X169756170Y-85248035D01*
X169970337Y-85347903D01*
X170198592Y-85409063D01*
X170375034Y-85424500D01*
X170433999Y-85429659D01*
X170434000Y-85429659D01*
X170434001Y-85429659D01*
X170492966Y-85424500D01*
X170669408Y-85409063D01*
X170897663Y-85347903D01*
X171111830Y-85248035D01*
X171305401Y-85112495D01*
X171472495Y-84945401D01*
X171602425Y-84759842D01*
X171657002Y-84716217D01*
X171726500Y-84709023D01*
X171788855Y-84740546D01*
X171805575Y-84759842D01*
X171935500Y-84945395D01*
X171935505Y-84945401D01*
X172102599Y-85112495D01*
X172199384Y-85180265D01*
X172296165Y-85248032D01*
X172296167Y-85248033D01*
X172296170Y-85248035D01*
X172510337Y-85347903D01*
X172738592Y-85409063D01*
X172915034Y-85424500D01*
X172973999Y-85429659D01*
X172974000Y-85429659D01*
X172974001Y-85429659D01*
X173032966Y-85424500D01*
X173209408Y-85409063D01*
X173437663Y-85347903D01*
X173651830Y-85248035D01*
X173845401Y-85112495D01*
X174012495Y-84945401D01*
X174148035Y-84751830D01*
X174247903Y-84537663D01*
X174309063Y-84309408D01*
X174329659Y-84074000D01*
X174309063Y-83838592D01*
X174247903Y-83610337D01*
X174148035Y-83396171D01*
X174142425Y-83388158D01*
X174012494Y-83202597D01*
X173845402Y-83035506D01*
X173845395Y-83035501D01*
X173651834Y-82899967D01*
X173651830Y-82899965D01*
X173651828Y-82899964D01*
X173437663Y-82800097D01*
X173437659Y-82800096D01*
X173437655Y-82800094D01*
X173209413Y-82738938D01*
X173209403Y-82738936D01*
X172974001Y-82718341D01*
X172973999Y-82718341D01*
X172738596Y-82738936D01*
X172738586Y-82738938D01*
X172510344Y-82800094D01*
X172510335Y-82800098D01*
X172296171Y-82899964D01*
X172296169Y-82899965D01*
X172102597Y-83035505D01*
X171935505Y-83202597D01*
X171805575Y-83388158D01*
X171750998Y-83431783D01*
X171681500Y-83438977D01*
X171619145Y-83407454D01*
X171602425Y-83388158D01*
X171472494Y-83202597D01*
X171305402Y-83035506D01*
X171305395Y-83035501D01*
X171111834Y-82899967D01*
X171111830Y-82899965D01*
X171111828Y-82899964D01*
X170897663Y-82800097D01*
X170897659Y-82800096D01*
X170897655Y-82800094D01*
X170669413Y-82738938D01*
X170669403Y-82738936D01*
X170434001Y-82718341D01*
X170433999Y-82718341D01*
X170198596Y-82738936D01*
X170198586Y-82738938D01*
X169970344Y-82800094D01*
X169970335Y-82800098D01*
X169756171Y-82899964D01*
X169756169Y-82899965D01*
X169562597Y-83035505D01*
X169395505Y-83202597D01*
X169265575Y-83388158D01*
X169210998Y-83431783D01*
X169141500Y-83438977D01*
X169079145Y-83407454D01*
X169062425Y-83388158D01*
X168932494Y-83202597D01*
X168765402Y-83035506D01*
X168765395Y-83035501D01*
X168571834Y-82899967D01*
X168571830Y-82899965D01*
X168571828Y-82899964D01*
X168357663Y-82800097D01*
X168357659Y-82800096D01*
X168357655Y-82800094D01*
X168129413Y-82738938D01*
X168129403Y-82738936D01*
X167894001Y-82718341D01*
X167893999Y-82718341D01*
X167658596Y-82738936D01*
X167658586Y-82738938D01*
X167430344Y-82800094D01*
X167430335Y-82800098D01*
X167216171Y-82899964D01*
X167216169Y-82899965D01*
X167022597Y-83035505D01*
X166855505Y-83202597D01*
X166725575Y-83388158D01*
X166670998Y-83431783D01*
X166601500Y-83438977D01*
X166539145Y-83407454D01*
X166522425Y-83388158D01*
X166392494Y-83202597D01*
X166225402Y-83035506D01*
X166225395Y-83035501D01*
X166031834Y-82899967D01*
X166031830Y-82899965D01*
X166031828Y-82899964D01*
X165817663Y-82800097D01*
X165817659Y-82800096D01*
X165817655Y-82800094D01*
X165589413Y-82738938D01*
X165589403Y-82738936D01*
X165354001Y-82718341D01*
X165353999Y-82718341D01*
X165118596Y-82738936D01*
X165118586Y-82738938D01*
X164890344Y-82800094D01*
X164890335Y-82800098D01*
X164676171Y-82899964D01*
X164676169Y-82899965D01*
X164482597Y-83035505D01*
X164315505Y-83202597D01*
X164185575Y-83388158D01*
X164130998Y-83431783D01*
X164061500Y-83438977D01*
X163999145Y-83407454D01*
X163982425Y-83388158D01*
X163852494Y-83202597D01*
X163685402Y-83035506D01*
X163685395Y-83035501D01*
X163491834Y-82899967D01*
X163491830Y-82899965D01*
X163491828Y-82899964D01*
X163277663Y-82800097D01*
X163277659Y-82800096D01*
X163277655Y-82800094D01*
X163049413Y-82738938D01*
X163049403Y-82738936D01*
X162814001Y-82718341D01*
X162813999Y-82718341D01*
X162578596Y-82738936D01*
X162578586Y-82738938D01*
X162350344Y-82800094D01*
X162350335Y-82800098D01*
X162136171Y-82899964D01*
X162136169Y-82899965D01*
X161942597Y-83035505D01*
X161775505Y-83202597D01*
X161645575Y-83388158D01*
X161590998Y-83431783D01*
X161521500Y-83438977D01*
X161459145Y-83407454D01*
X161442425Y-83388158D01*
X161312494Y-83202597D01*
X161145402Y-83035506D01*
X161145395Y-83035501D01*
X160951834Y-82899967D01*
X160951830Y-82899965D01*
X160951828Y-82899964D01*
X160737663Y-82800097D01*
X160737659Y-82800096D01*
X160737655Y-82800094D01*
X160509413Y-82738938D01*
X160509403Y-82738936D01*
X160274001Y-82718341D01*
X160273999Y-82718341D01*
X160038596Y-82738936D01*
X160038586Y-82738938D01*
X159810344Y-82800094D01*
X159810335Y-82800098D01*
X159596171Y-82899964D01*
X159596169Y-82899965D01*
X159402597Y-83035505D01*
X159235505Y-83202597D01*
X159105575Y-83388158D01*
X159050998Y-83431783D01*
X158981500Y-83438977D01*
X158919145Y-83407454D01*
X158902425Y-83388158D01*
X158772494Y-83202597D01*
X158605402Y-83035506D01*
X158605395Y-83035501D01*
X158411834Y-82899967D01*
X158411830Y-82899965D01*
X158411828Y-82899964D01*
X158197663Y-82800097D01*
X158197659Y-82800096D01*
X158197655Y-82800094D01*
X157969413Y-82738938D01*
X157969403Y-82738936D01*
X157734001Y-82718341D01*
X157733999Y-82718341D01*
X157498596Y-82738936D01*
X157498586Y-82738938D01*
X157270344Y-82800094D01*
X157270335Y-82800098D01*
X157056171Y-82899964D01*
X157056169Y-82899965D01*
X156862597Y-83035505D01*
X156695505Y-83202597D01*
X156565575Y-83388158D01*
X156510998Y-83431783D01*
X156441500Y-83438977D01*
X156379145Y-83407454D01*
X156362425Y-83388158D01*
X156232494Y-83202597D01*
X156065402Y-83035506D01*
X156065395Y-83035501D01*
X155871834Y-82899967D01*
X155871830Y-82899965D01*
X155871828Y-82899964D01*
X155657663Y-82800097D01*
X155657659Y-82800096D01*
X155657655Y-82800094D01*
X155429413Y-82738938D01*
X155429403Y-82738936D01*
X155194001Y-82718341D01*
X155193999Y-82718341D01*
X154958596Y-82738936D01*
X154958586Y-82738938D01*
X154730344Y-82800094D01*
X154730335Y-82800098D01*
X154516171Y-82899964D01*
X154516169Y-82899965D01*
X154322597Y-83035505D01*
X154155505Y-83202597D01*
X154025575Y-83388158D01*
X153970998Y-83431783D01*
X153901500Y-83438977D01*
X153839145Y-83407454D01*
X153822425Y-83388158D01*
X153692494Y-83202597D01*
X153525402Y-83035506D01*
X153525395Y-83035501D01*
X153331834Y-82899967D01*
X153331830Y-82899965D01*
X153331828Y-82899964D01*
X153117663Y-82800097D01*
X153117659Y-82800096D01*
X153117655Y-82800094D01*
X152889413Y-82738938D01*
X152889403Y-82738936D01*
X152654001Y-82718341D01*
X152653999Y-82718341D01*
X152418596Y-82738936D01*
X152418586Y-82738938D01*
X152190344Y-82800094D01*
X152190335Y-82800098D01*
X151976171Y-82899964D01*
X151976169Y-82899965D01*
X151782597Y-83035505D01*
X151615505Y-83202597D01*
X151485575Y-83388158D01*
X151430998Y-83431783D01*
X151361500Y-83438977D01*
X151299145Y-83407454D01*
X151282425Y-83388158D01*
X151152494Y-83202597D01*
X150985402Y-83035506D01*
X150985395Y-83035501D01*
X150791834Y-82899967D01*
X150791830Y-82899965D01*
X150791828Y-82899964D01*
X150577663Y-82800097D01*
X150577659Y-82800096D01*
X150577655Y-82800094D01*
X150349413Y-82738938D01*
X150349403Y-82738936D01*
X150114001Y-82718341D01*
X150113999Y-82718341D01*
X149878596Y-82738936D01*
X149878586Y-82738938D01*
X149650344Y-82800094D01*
X149650335Y-82800098D01*
X149436171Y-82899964D01*
X149436169Y-82899965D01*
X149242597Y-83035505D01*
X149075505Y-83202597D01*
X148945575Y-83388158D01*
X148890998Y-83431783D01*
X148821500Y-83438977D01*
X148759145Y-83407454D01*
X148742425Y-83388158D01*
X148612494Y-83202597D01*
X148445402Y-83035506D01*
X148445395Y-83035501D01*
X148251834Y-82899967D01*
X148251830Y-82899965D01*
X148251828Y-82899964D01*
X148037663Y-82800097D01*
X148037659Y-82800096D01*
X148037655Y-82800094D01*
X147809413Y-82738938D01*
X147809403Y-82738936D01*
X147574001Y-82718341D01*
X147573999Y-82718341D01*
X147338596Y-82738936D01*
X147338586Y-82738938D01*
X147110344Y-82800094D01*
X147110335Y-82800098D01*
X146896171Y-82899964D01*
X146896169Y-82899965D01*
X146702597Y-83035505D01*
X146535505Y-83202597D01*
X146405575Y-83388158D01*
X146350998Y-83431783D01*
X146281500Y-83438977D01*
X146219145Y-83407454D01*
X146202425Y-83388158D01*
X146072494Y-83202597D01*
X145905402Y-83035506D01*
X145905395Y-83035501D01*
X145711834Y-82899967D01*
X145711830Y-82899965D01*
X145711828Y-82899964D01*
X145497663Y-82800097D01*
X145497659Y-82800096D01*
X145497655Y-82800094D01*
X145269413Y-82738938D01*
X145269403Y-82738936D01*
X145034001Y-82718341D01*
X145033999Y-82718341D01*
X144798596Y-82738936D01*
X144798586Y-82738938D01*
X144570344Y-82800094D01*
X144570335Y-82800098D01*
X144356171Y-82899964D01*
X144356169Y-82899965D01*
X144162597Y-83035505D01*
X143995505Y-83202597D01*
X143865575Y-83388158D01*
X143810998Y-83431783D01*
X143741500Y-83438977D01*
X143679145Y-83407454D01*
X143662425Y-83388158D01*
X143532494Y-83202597D01*
X143365402Y-83035506D01*
X143365395Y-83035501D01*
X143171834Y-82899967D01*
X143171830Y-82899965D01*
X143171828Y-82899964D01*
X142957663Y-82800097D01*
X142957659Y-82800096D01*
X142957655Y-82800094D01*
X142729413Y-82738938D01*
X142729403Y-82738936D01*
X142494001Y-82718341D01*
X142493999Y-82718341D01*
X142258596Y-82738936D01*
X142258586Y-82738938D01*
X142030344Y-82800094D01*
X142030335Y-82800098D01*
X141816171Y-82899964D01*
X141816169Y-82899965D01*
X141622597Y-83035505D01*
X141455505Y-83202597D01*
X141325575Y-83388158D01*
X141270998Y-83431783D01*
X141201500Y-83438977D01*
X141139145Y-83407454D01*
X141122425Y-83388158D01*
X140992494Y-83202597D01*
X140825402Y-83035506D01*
X140825395Y-83035501D01*
X140631834Y-82899967D01*
X140631830Y-82899965D01*
X140631828Y-82899964D01*
X140417663Y-82800097D01*
X140417659Y-82800096D01*
X140417655Y-82800094D01*
X140189413Y-82738938D01*
X140189403Y-82738936D01*
X139954001Y-82718341D01*
X139953999Y-82718341D01*
X139718596Y-82738936D01*
X139718586Y-82738938D01*
X139490344Y-82800094D01*
X139490335Y-82800098D01*
X139276171Y-82899964D01*
X139276169Y-82899965D01*
X139082597Y-83035505D01*
X138915505Y-83202597D01*
X138785575Y-83388158D01*
X138730998Y-83431783D01*
X138661500Y-83438977D01*
X138599145Y-83407454D01*
X138582425Y-83388158D01*
X138452494Y-83202597D01*
X138285402Y-83035506D01*
X138285395Y-83035501D01*
X138091834Y-82899967D01*
X138091830Y-82899965D01*
X138091828Y-82899964D01*
X137877663Y-82800097D01*
X137877659Y-82800096D01*
X137877655Y-82800094D01*
X137649413Y-82738938D01*
X137649403Y-82738936D01*
X137414001Y-82718341D01*
X137413999Y-82718341D01*
X137178596Y-82738936D01*
X137178586Y-82738938D01*
X136950344Y-82800094D01*
X136950335Y-82800098D01*
X136736171Y-82899964D01*
X136736169Y-82899965D01*
X136542597Y-83035505D01*
X136375505Y-83202597D01*
X136245575Y-83388158D01*
X136190998Y-83431783D01*
X136121500Y-83438977D01*
X136059145Y-83407454D01*
X136042425Y-83388158D01*
X135912494Y-83202597D01*
X135745402Y-83035506D01*
X135745395Y-83035501D01*
X135551834Y-82899967D01*
X135551830Y-82899965D01*
X135551828Y-82899964D01*
X135337663Y-82800097D01*
X135337659Y-82800096D01*
X135337655Y-82800094D01*
X135109413Y-82738938D01*
X135109403Y-82738936D01*
X134874001Y-82718341D01*
X134873999Y-82718341D01*
X134638596Y-82738936D01*
X134638586Y-82738938D01*
X134410344Y-82800094D01*
X134410335Y-82800098D01*
X134196171Y-82899964D01*
X134196169Y-82899965D01*
X134002597Y-83035505D01*
X133835505Y-83202597D01*
X133705575Y-83388158D01*
X133650998Y-83431783D01*
X133581500Y-83438977D01*
X133519145Y-83407454D01*
X133502425Y-83388158D01*
X133372494Y-83202597D01*
X133205402Y-83035506D01*
X133205395Y-83035501D01*
X133011834Y-82899967D01*
X133011830Y-82899965D01*
X133011828Y-82899964D01*
X132797663Y-82800097D01*
X132797659Y-82800096D01*
X132797655Y-82800094D01*
X132569413Y-82738938D01*
X132569403Y-82738936D01*
X132334001Y-82718341D01*
X132333999Y-82718341D01*
X132098596Y-82738936D01*
X132098586Y-82738938D01*
X131870344Y-82800094D01*
X131870335Y-82800098D01*
X131656171Y-82899964D01*
X131656169Y-82899965D01*
X131462597Y-83035505D01*
X131295505Y-83202597D01*
X131165575Y-83388158D01*
X131110998Y-83431783D01*
X131041500Y-83438977D01*
X130979145Y-83407454D01*
X130962425Y-83388158D01*
X130832494Y-83202597D01*
X130665402Y-83035506D01*
X130665395Y-83035501D01*
X130471834Y-82899967D01*
X130471830Y-82899965D01*
X130471828Y-82899964D01*
X130257663Y-82800097D01*
X130257659Y-82800096D01*
X130257655Y-82800094D01*
X130029413Y-82738938D01*
X130029403Y-82738936D01*
X129794001Y-82718341D01*
X129793999Y-82718341D01*
X129558596Y-82738936D01*
X129558586Y-82738938D01*
X129330344Y-82800094D01*
X129330335Y-82800098D01*
X129116171Y-82899964D01*
X129116169Y-82899965D01*
X128922597Y-83035505D01*
X128755505Y-83202597D01*
X128625575Y-83388158D01*
X128570998Y-83431783D01*
X128501500Y-83438977D01*
X128439145Y-83407454D01*
X128422425Y-83388158D01*
X128292494Y-83202597D01*
X128125402Y-83035506D01*
X128125395Y-83035501D01*
X127931834Y-82899967D01*
X127931830Y-82899965D01*
X127931828Y-82899964D01*
X127717663Y-82800097D01*
X127717659Y-82800096D01*
X127717655Y-82800094D01*
X127489413Y-82738938D01*
X127489403Y-82738936D01*
X127254001Y-82718341D01*
X127253999Y-82718341D01*
X127018596Y-82738936D01*
X127018586Y-82738938D01*
X126790344Y-82800094D01*
X126790335Y-82800098D01*
X126576171Y-82899964D01*
X126576169Y-82899965D01*
X126382600Y-83035503D01*
X126260673Y-83157430D01*
X126199350Y-83190914D01*
X126129658Y-83185930D01*
X126073725Y-83144058D01*
X126056810Y-83113081D01*
X126007797Y-82981671D01*
X126007793Y-82981664D01*
X125921547Y-82866455D01*
X125921544Y-82866452D01*
X125806335Y-82780206D01*
X125806328Y-82780202D01*
X125671482Y-82729908D01*
X125671483Y-82729908D01*
X125611883Y-82723501D01*
X125611881Y-82723500D01*
X125611873Y-82723500D01*
X125611864Y-82723500D01*
X123816129Y-82723500D01*
X123816123Y-82723501D01*
X123756516Y-82729908D01*
X123621671Y-82780202D01*
X123621664Y-82780206D01*
X123506455Y-82866452D01*
X123506452Y-82866455D01*
X123420206Y-82981664D01*
X123420202Y-82981671D01*
X123369908Y-83116517D01*
X123363501Y-83176116D01*
X123363500Y-83176135D01*
X123363500Y-84971870D01*
X92131589Y-84971870D01*
X92139449Y-84872000D01*
X92119683Y-84620852D01*
X92060873Y-84375889D01*
X91964466Y-84143141D01*
X91964466Y-84143140D01*
X91832839Y-83928346D01*
X91832838Y-83928343D01*
X91795875Y-83885066D01*
X91669224Y-83736776D01*
X91481593Y-83576524D01*
X91443401Y-83518018D01*
X91442903Y-83448150D01*
X91443032Y-83447870D01*
X100249500Y-83447870D01*
X100249501Y-83447876D01*
X100255908Y-83507483D01*
X100306202Y-83642328D01*
X100306206Y-83642335D01*
X100392452Y-83757544D01*
X100392455Y-83757547D01*
X100507664Y-83843793D01*
X100507671Y-83843797D01*
X100642517Y-83894091D01*
X100642516Y-83894091D01*
X100649444Y-83894835D01*
X100702127Y-83900500D01*
X102497872Y-83900499D01*
X102557483Y-83894091D01*
X102692331Y-83843796D01*
X102807546Y-83757546D01*
X102893796Y-83642331D01*
X102944091Y-83507483D01*
X102950500Y-83447873D01*
X102950500Y-83447870D01*
X110409500Y-83447870D01*
X110409501Y-83447876D01*
X110415908Y-83507483D01*
X110466202Y-83642328D01*
X110466206Y-83642335D01*
X110552452Y-83757544D01*
X110552455Y-83757547D01*
X110667664Y-83843793D01*
X110667671Y-83843797D01*
X110802517Y-83894091D01*
X110802516Y-83894091D01*
X110809444Y-83894835D01*
X110862127Y-83900500D01*
X112657872Y-83900499D01*
X112717483Y-83894091D01*
X112852331Y-83843796D01*
X112967546Y-83757546D01*
X113053796Y-83642331D01*
X113104091Y-83507483D01*
X113110500Y-83447873D01*
X113110499Y-81652128D01*
X113104091Y-81592517D01*
X113092594Y-81561693D01*
X113053797Y-81457671D01*
X113053793Y-81457664D01*
X112967547Y-81342455D01*
X112967544Y-81342452D01*
X112852335Y-81256206D01*
X112852328Y-81256202D01*
X112717482Y-81205908D01*
X112717483Y-81205908D01*
X112657883Y-81199501D01*
X112657881Y-81199500D01*
X112657873Y-81199500D01*
X112657864Y-81199500D01*
X110862129Y-81199500D01*
X110862123Y-81199501D01*
X110802516Y-81205908D01*
X110667671Y-81256202D01*
X110667664Y-81256206D01*
X110552455Y-81342452D01*
X110552452Y-81342455D01*
X110466206Y-81457664D01*
X110466202Y-81457671D01*
X110415908Y-81592517D01*
X110410877Y-81639319D01*
X110409501Y-81652123D01*
X110409500Y-81652135D01*
X110409500Y-83447870D01*
X102950500Y-83447870D01*
X102950499Y-81652128D01*
X102944091Y-81592517D01*
X102932594Y-81561693D01*
X102893797Y-81457671D01*
X102893793Y-81457664D01*
X102807547Y-81342455D01*
X102807544Y-81342452D01*
X102692335Y-81256206D01*
X102692328Y-81256202D01*
X102557482Y-81205908D01*
X102557483Y-81205908D01*
X102497883Y-81199501D01*
X102497881Y-81199500D01*
X102497873Y-81199500D01*
X102497864Y-81199500D01*
X100702129Y-81199500D01*
X100702123Y-81199501D01*
X100642516Y-81205908D01*
X100507671Y-81256202D01*
X100507664Y-81256206D01*
X100392455Y-81342452D01*
X100392452Y-81342455D01*
X100306206Y-81457664D01*
X100306202Y-81457671D01*
X100255908Y-81592517D01*
X100250877Y-81639319D01*
X100249501Y-81652123D01*
X100249500Y-81652135D01*
X100249500Y-83447870D01*
X91443032Y-83447870D01*
X91458638Y-83413925D01*
X91489635Y-83366968D01*
X91578103Y-83159988D01*
X91628191Y-82940537D01*
X91638290Y-82715670D01*
X91608075Y-82492613D01*
X91538517Y-82278536D01*
X91431852Y-82080319D01*
X91291508Y-81904334D01*
X91247111Y-81865545D01*
X91209578Y-81806613D01*
X91209864Y-81736744D01*
X91239071Y-81686473D01*
X91365237Y-81554513D01*
X91489191Y-81366733D01*
X91577624Y-81159830D01*
X91577627Y-81159821D01*
X91609084Y-81022000D01*
X90259278Y-81022000D01*
X90307625Y-80938260D01*
X90337810Y-80806008D01*
X90327673Y-80670735D01*
X90278113Y-80544459D01*
X90260203Y-80522000D01*
X91611550Y-80522000D01*
X91611550Y-80521999D01*
X91607584Y-80492721D01*
X91538054Y-80278731D01*
X91431434Y-80080598D01*
X91428367Y-80075952D01*
X91429978Y-80074888D01*
X91406815Y-80018165D01*
X91419564Y-79949468D01*
X91455856Y-79906263D01*
X91491546Y-79879546D01*
X91577796Y-79764331D01*
X91628091Y-79629483D01*
X91634500Y-79569873D01*
X91634499Y-78486003D01*
X117812435Y-78486003D01*
X117832630Y-78665249D01*
X117832631Y-78665254D01*
X117892211Y-78835523D01*
X117988184Y-78988262D01*
X118115738Y-79115816D01*
X118268478Y-79211789D01*
X118438745Y-79271368D01*
X118438750Y-79271369D01*
X118617996Y-79291565D01*
X118618000Y-79291565D01*
X118618004Y-79291565D01*
X118797249Y-79271369D01*
X118797252Y-79271368D01*
X118797255Y-79271368D01*
X118967522Y-79211789D01*
X119120262Y-79115816D01*
X119247816Y-78988262D01*
X119343789Y-78835522D01*
X119403368Y-78665255D01*
X119423565Y-78486000D01*
X119403368Y-78306745D01*
X119343789Y-78136478D01*
X119247816Y-77983738D01*
X119120262Y-77856184D01*
X119049624Y-77811799D01*
X118967523Y-77760211D01*
X118797254Y-77700631D01*
X118797249Y-77700630D01*
X118618004Y-77680435D01*
X118617996Y-77680435D01*
X118438750Y-77700630D01*
X118438745Y-77700631D01*
X118268476Y-77760211D01*
X118115737Y-77856184D01*
X117988184Y-77983737D01*
X117892211Y-78136476D01*
X117832631Y-78306745D01*
X117832630Y-78306750D01*
X117812435Y-78485996D01*
X117812435Y-78486003D01*
X91634499Y-78486003D01*
X91634499Y-77974128D01*
X91628091Y-77914517D01*
X91627979Y-77913474D01*
X91640386Y-77844715D01*
X91666486Y-77811365D01*
X91665784Y-77810663D01*
X91669220Y-77807227D01*
X91669224Y-77807224D01*
X91832836Y-77615659D01*
X91964466Y-77400859D01*
X92060873Y-77168111D01*
X92119683Y-76923148D01*
X92139449Y-76672000D01*
X92119683Y-76420852D01*
X92060873Y-76175889D01*
X91964466Y-75943141D01*
X91964466Y-75943140D01*
X91832839Y-75728346D01*
X91832838Y-75728343D01*
X91795875Y-75685066D01*
X91669224Y-75536776D01*
X91542571Y-75428604D01*
X91477656Y-75373161D01*
X91477653Y-75373160D01*
X91262859Y-75241533D01*
X91030110Y-75145126D01*
X90785151Y-75086317D01*
X90596887Y-75071500D01*
X90596882Y-75071500D01*
X89171118Y-75071500D01*
X89171112Y-75071500D01*
X88982848Y-75086317D01*
X88737889Y-75145126D01*
X88505140Y-75241533D01*
X88290346Y-75373160D01*
X88290343Y-75373161D01*
X88098776Y-75536776D01*
X87935161Y-75728343D01*
X87935160Y-75728346D01*
X87803533Y-75943140D01*
X87707126Y-76175889D01*
X87648317Y-76420848D01*
X87628551Y-76672000D01*
X87648317Y-76923151D01*
X87707126Y-77168110D01*
X87803533Y-77400859D01*
X87935160Y-77615653D01*
X87935161Y-77615656D01*
X88098779Y-77807227D01*
X88102221Y-77810669D01*
X88101090Y-77811799D01*
X88135453Y-77864428D01*
X88140021Y-77913475D01*
X88139909Y-77914517D01*
X88133500Y-77974127D01*
X88133500Y-77974128D01*
X88133500Y-77974132D01*
X88133500Y-79569870D01*
X88133501Y-79569876D01*
X88139908Y-79629483D01*
X88190202Y-79764328D01*
X88190206Y-79764335D01*
X88259358Y-79856709D01*
X88276454Y-79879546D01*
X88315999Y-79909149D01*
X88357869Y-79965082D01*
X88362853Y-80034774D01*
X88345175Y-80076726D01*
X88278806Y-80177270D01*
X88190375Y-80384169D01*
X88190372Y-80384178D01*
X88158915Y-80521999D01*
X88158916Y-80522000D01*
X89508722Y-80522000D01*
X89460375Y-80605740D01*
X89430190Y-80737992D01*
X89440327Y-80873265D01*
X89489887Y-80999541D01*
X89507797Y-81022000D01*
X88156449Y-81022000D01*
X88160415Y-81051278D01*
X88229945Y-81265268D01*
X88336565Y-81463401D01*
X88336567Y-81463404D01*
X88476854Y-81639319D01*
X88520854Y-81677760D01*
X88558389Y-81736692D01*
X88558105Y-81806561D01*
X88528898Y-81856833D01*
X88402369Y-81989173D01*
X88278363Y-82177033D01*
X88189899Y-82384004D01*
X88189895Y-82384017D01*
X88139810Y-82603457D01*
X88139808Y-82603468D01*
X88131871Y-82780202D01*
X88129710Y-82828330D01*
X88159925Y-83051387D01*
X88159926Y-83051390D01*
X88229483Y-83265465D01*
X88314687Y-83423800D01*
X88329121Y-83492163D01*
X88304303Y-83557477D01*
X88286025Y-83576850D01*
X88098776Y-83736776D01*
X87935161Y-83928343D01*
X87935160Y-83928346D01*
X87803533Y-84143140D01*
X87707126Y-84375889D01*
X87648317Y-84620848D01*
X87628551Y-84872000D01*
X87114500Y-84872000D01*
X87114500Y-72459042D01*
X87114514Y-72457195D01*
X87123000Y-71887402D01*
X87126297Y-71666001D01*
X104313500Y-71666001D01*
X104313501Y-71666018D01*
X104324000Y-71768796D01*
X104324001Y-71768799D01*
X104369894Y-71907294D01*
X104379186Y-71935334D01*
X104471288Y-72084656D01*
X104595344Y-72208712D01*
X104744666Y-72300814D01*
X104911203Y-72355999D01*
X105013991Y-72366500D01*
X106314008Y-72366499D01*
X106416797Y-72355999D01*
X106583334Y-72300814D01*
X106732656Y-72208712D01*
X106856712Y-72084656D01*
X106948814Y-71935334D01*
X106948814Y-71935331D01*
X106952178Y-71929879D01*
X107004126Y-71883154D01*
X107073088Y-71871931D01*
X107137170Y-71899774D01*
X107145398Y-71907294D01*
X107292599Y-72054495D01*
X107335675Y-72084657D01*
X107486165Y-72190032D01*
X107486167Y-72190033D01*
X107486170Y-72190035D01*
X107700337Y-72289903D01*
X107928592Y-72351063D01*
X108105034Y-72366500D01*
X108163999Y-72371659D01*
X108164000Y-72371659D01*
X108164001Y-72371659D01*
X108222966Y-72366500D01*
X108399408Y-72351063D01*
X108627663Y-72289903D01*
X108841829Y-72190035D01*
X109035401Y-72054495D01*
X109202495Y-71887401D01*
X109338035Y-71693829D01*
X109437903Y-71479663D01*
X109499063Y-71251408D01*
X109514500Y-71074966D01*
X109514500Y-70657034D01*
X109499063Y-70480592D01*
X109437903Y-70252337D01*
X109338035Y-70038171D01*
X109319105Y-70011135D01*
X109202494Y-69844597D01*
X109035402Y-69677506D01*
X109035395Y-69677501D01*
X108841834Y-69541967D01*
X108841830Y-69541965D01*
X108801777Y-69523288D01*
X108627663Y-69442097D01*
X108627659Y-69442096D01*
X108627655Y-69442094D01*
X108399413Y-69380938D01*
X108399403Y-69380936D01*
X108164001Y-69360341D01*
X108163999Y-69360341D01*
X107928596Y-69380936D01*
X107928586Y-69380938D01*
X107700344Y-69442094D01*
X107700335Y-69442098D01*
X107486171Y-69541964D01*
X107486169Y-69541965D01*
X107292597Y-69677505D01*
X107145398Y-69824705D01*
X107084075Y-69858190D01*
X107014383Y-69853206D01*
X106958450Y-69811334D01*
X106952178Y-69802120D01*
X106856712Y-69647344D01*
X106732657Y-69523289D01*
X106732656Y-69523288D01*
X106639888Y-69466069D01*
X106583336Y-69431187D01*
X106583331Y-69431185D01*
X106581862Y-69430698D01*
X106416797Y-69376001D01*
X106416795Y-69376000D01*
X106314010Y-69365500D01*
X105013998Y-69365500D01*
X105013981Y-69365501D01*
X104911203Y-69376000D01*
X104911200Y-69376001D01*
X104744668Y-69431185D01*
X104744663Y-69431187D01*
X104595342Y-69523289D01*
X104471289Y-69647342D01*
X104379187Y-69796663D01*
X104379185Y-69796668D01*
X104360450Y-69853206D01*
X104324001Y-69963203D01*
X104324001Y-69963204D01*
X104324000Y-69963204D01*
X104313500Y-70065983D01*
X104313500Y-71666001D01*
X87126297Y-71666001D01*
X87265253Y-62336084D01*
X87285933Y-62269350D01*
X87301548Y-62250265D01*
X96588626Y-52963187D01*
X101373500Y-52963187D01*
X101393794Y-53097823D01*
X101412604Y-53222615D01*
X101412605Y-53222617D01*
X101412606Y-53222623D01*
X101489938Y-53473326D01*
X101603767Y-53709696D01*
X101603768Y-53709697D01*
X101603770Y-53709700D01*
X101603772Y-53709704D01*
X101647871Y-53774385D01*
X101751567Y-53926479D01*
X101930014Y-54118801D01*
X101930018Y-54118804D01*
X101930019Y-54118805D01*
X102135143Y-54282386D01*
X102362357Y-54413568D01*
X102606584Y-54509420D01*
X102862370Y-54567802D01*
X102862376Y-54567802D01*
X102862379Y-54567803D01*
X103058484Y-54582499D01*
X103058503Y-54582499D01*
X103058506Y-54582500D01*
X103058508Y-54582500D01*
X103189492Y-54582500D01*
X103189494Y-54582500D01*
X103189496Y-54582499D01*
X103189515Y-54582499D01*
X103385620Y-54567803D01*
X103385622Y-54567802D01*
X103385630Y-54567802D01*
X103641416Y-54509420D01*
X103885643Y-54413568D01*
X104112857Y-54282386D01*
X104317981Y-54118805D01*
X104496433Y-53926479D01*
X104644228Y-53709704D01*
X104758063Y-53473323D01*
X104835396Y-53222615D01*
X104874500Y-52963182D01*
X104874500Y-52700818D01*
X104837476Y-52455187D01*
X191797500Y-52455187D01*
X191817794Y-52589823D01*
X191836604Y-52714615D01*
X191836605Y-52714617D01*
X191836606Y-52714623D01*
X191913938Y-52965326D01*
X192027767Y-53201696D01*
X192027768Y-53201697D01*
X192027770Y-53201700D01*
X192027772Y-53201704D01*
X192175567Y-53418479D01*
X192354014Y-53610801D01*
X192354018Y-53610804D01*
X192354019Y-53610805D01*
X192559143Y-53774386D01*
X192786357Y-53905568D01*
X193030584Y-54001420D01*
X193286370Y-54059802D01*
X193286376Y-54059802D01*
X193286379Y-54059803D01*
X193482484Y-54074499D01*
X193482503Y-54074499D01*
X193482506Y-54074500D01*
X193482508Y-54074500D01*
X193613492Y-54074500D01*
X193613494Y-54074500D01*
X193613496Y-54074499D01*
X193613515Y-54074499D01*
X193809620Y-54059803D01*
X193809622Y-54059802D01*
X193809630Y-54059802D01*
X194065416Y-54001420D01*
X194309643Y-53905568D01*
X194536857Y-53774386D01*
X194741981Y-53610805D01*
X194920433Y-53418479D01*
X195068228Y-53201704D01*
X195182063Y-52965323D01*
X195259396Y-52714615D01*
X195298500Y-52455182D01*
X195298500Y-52192818D01*
X195259396Y-51933385D01*
X195182063Y-51682677D01*
X195115857Y-51545198D01*
X195068232Y-51446303D01*
X195068231Y-51446302D01*
X195068230Y-51446301D01*
X195068228Y-51446296D01*
X194920433Y-51229521D01*
X194850900Y-51154582D01*
X194741985Y-51037198D01*
X194702533Y-51005736D01*
X194536857Y-50873614D01*
X194309643Y-50742432D01*
X194065416Y-50646580D01*
X194065411Y-50646578D01*
X194065402Y-50646576D01*
X193847818Y-50596914D01*
X193809630Y-50588198D01*
X193809629Y-50588197D01*
X193809625Y-50588197D01*
X193809620Y-50588196D01*
X193613515Y-50573500D01*
X193613494Y-50573500D01*
X193482506Y-50573500D01*
X193482484Y-50573500D01*
X193286379Y-50588196D01*
X193286374Y-50588197D01*
X193030597Y-50646576D01*
X193030578Y-50646582D01*
X192786356Y-50742432D01*
X192559143Y-50873614D01*
X192354014Y-51037198D01*
X192175567Y-51229520D01*
X192027768Y-51446302D01*
X192027767Y-51446303D01*
X191913938Y-51682673D01*
X191836606Y-51933376D01*
X191836605Y-51933381D01*
X191836604Y-51933385D01*
X191833451Y-51954303D01*
X191797500Y-52192812D01*
X191797500Y-52455187D01*
X104837476Y-52455187D01*
X104835396Y-52441385D01*
X104758063Y-52190677D01*
X104746121Y-52165880D01*
X104644232Y-51954303D01*
X104644231Y-51954302D01*
X104644230Y-51954301D01*
X104644228Y-51954296D01*
X104496433Y-51737521D01*
X104486441Y-51726753D01*
X104317985Y-51545198D01*
X104193973Y-51446302D01*
X104112857Y-51381614D01*
X103885643Y-51250432D01*
X103641416Y-51154580D01*
X103641411Y-51154578D01*
X103641402Y-51154576D01*
X103423818Y-51104914D01*
X103385630Y-51096198D01*
X103385629Y-51096197D01*
X103385625Y-51096197D01*
X103385620Y-51096196D01*
X103189515Y-51081500D01*
X103189494Y-51081500D01*
X103058506Y-51081500D01*
X103058484Y-51081500D01*
X102862379Y-51096196D01*
X102862374Y-51096197D01*
X102606597Y-51154576D01*
X102606578Y-51154582D01*
X102362356Y-51250432D01*
X102135143Y-51381614D01*
X101930014Y-51545198D01*
X101751567Y-51737520D01*
X101603768Y-51954302D01*
X101603767Y-51954303D01*
X101489938Y-52190673D01*
X101412606Y-52441376D01*
X101412605Y-52441381D01*
X101412604Y-52441385D01*
X101410524Y-52455187D01*
X101373500Y-52700812D01*
X101373500Y-52963187D01*
X96588626Y-52963187D01*
X111422995Y-38128819D01*
X111484318Y-38095334D01*
X111510676Y-38092500D01*
X184145324Y-38092500D01*
X184212363Y-38112185D01*
G37*
%TD.AperFunction*%
%TD*%
M02*
