%TF.GenerationSoftware,KiCad,Pcbnew,7.0.11-7.0.11~ubuntu20.04.1*%
%TF.CreationDate,2026-01-21T02:00:35+01:00*%
%TF.ProjectId,main_board,6d61696e-5f62-46f6-9172-642e6b696361,rev?*%
%TF.SameCoordinates,Original*%
%TF.FileFunction,Copper,L4,Bot*%
%TF.FilePolarity,Positive*%
%FSLAX46Y46*%
G04 Gerber Fmt 4.6, Leading zero omitted, Abs format (unit mm)*
G04 Created by KiCad (PCBNEW 7.0.11-7.0.11~ubuntu20.04.1) date 2026-01-21 02:00:35*
%MOMM*%
%LPD*%
G01*
G04 APERTURE LIST*
G04 Aperture macros list*
%AMRoundRect*
0 Rectangle with rounded corners*
0 $1 Rounding radius*
0 $2 $3 $4 $5 $6 $7 $8 $9 X,Y pos of 4 corners*
0 Add a 4 corners polygon primitive as box body*
4,1,4,$2,$3,$4,$5,$6,$7,$8,$9,$2,$3,0*
0 Add four circle primitives for the rounded corners*
1,1,$1+$1,$2,$3*
1,1,$1+$1,$4,$5*
1,1,$1+$1,$6,$7*
1,1,$1+$1,$8,$9*
0 Add four rect primitives between the rounded corners*
20,1,$1+$1,$2,$3,$4,$5,0*
20,1,$1+$1,$4,$5,$6,$7,0*
20,1,$1+$1,$6,$7,$8,$9,0*
20,1,$1+$1,$8,$9,$2,$3,0*%
G04 Aperture macros list end*
%TA.AperFunction,ComponentPad*%
%ADD10R,1.700000X1.700000*%
%TD*%
%TA.AperFunction,ComponentPad*%
%ADD11O,1.700000X1.700000*%
%TD*%
%TA.AperFunction,ComponentPad*%
%ADD12C,2.000000*%
%TD*%
%TA.AperFunction,ComponentPad*%
%ADD13RoundRect,0.250000X-0.600000X-0.750000X0.600000X-0.750000X0.600000X0.750000X-0.600000X0.750000X0*%
%TD*%
%TA.AperFunction,ComponentPad*%
%ADD14O,1.700000X2.000000*%
%TD*%
%TA.AperFunction,ComponentPad*%
%ADD15O,1.700000X1.100000*%
%TD*%
%TA.AperFunction,ComponentPad*%
%ADD16O,3.500000X2.200000*%
%TD*%
%TA.AperFunction,ComponentPad*%
%ADD17R,2.500000X1.500000*%
%TD*%
%TA.AperFunction,ComponentPad*%
%ADD18O,2.500000X1.500000*%
%TD*%
%TA.AperFunction,ViaPad*%
%ADD19C,0.600000*%
%TD*%
%TA.AperFunction,Conductor*%
%ADD20C,0.500000*%
%TD*%
G04 APERTURE END LIST*
D10*
%TO.P,J3,1,Pin_1*%
%TO.N,+3.3V*%
X157211000Y-95529000D03*
D11*
%TO.P,J3,2,Pin_2*%
%TO.N,-Vb*%
X154671000Y-95529000D03*
%TO.P,J3,3,Pin_3*%
%TO.N,GPIO11*%
X152131000Y-95529000D03*
%TO.P,J3,4,Pin_4*%
%TO.N,GPIO12*%
X149591000Y-95529000D03*
%TO.P,J3,5,Pin_5*%
%TO.N,GPIO10*%
X147051000Y-95529000D03*
%TO.P,J3,6,Pin_6*%
%TO.N,GPIO8*%
X144511000Y-95529000D03*
%TO.P,J3,7,Pin_7*%
%TO.N,GPIO9*%
X141971000Y-95529000D03*
%TO.P,J3,8,Pin_8*%
%TO.N,GPIO7*%
X139431000Y-95529000D03*
%TD*%
D12*
%TO.P,SW_START1,1,1*%
%TO.N,GPIO21*%
X141224000Y-146558000D03*
X147724000Y-146558000D03*
%TO.P,SW_START1,2,2*%
%TO.N,-Vb*%
X141224000Y-151058000D03*
X147724000Y-151058000D03*
%TD*%
%TO.P,SW_SELECT1,1,1*%
%TO.N,GPIO47*%
X128270000Y-146812000D03*
X134770000Y-146812000D03*
%TO.P,SW_SELECT1,2,2*%
%TO.N,-Vb*%
X128270000Y-151312000D03*
X134770000Y-151312000D03*
%TD*%
%TO.P,SW_A1,1,1*%
%TO.N,GPIO5*%
X167438000Y-117892000D03*
X173938000Y-117892000D03*
%TO.P,SW_A1,2,2*%
%TO.N,-Vb*%
X167438000Y-122392000D03*
X173938000Y-122392000D03*
%TD*%
%TO.P,SW_DOWN1,1,1*%
%TO.N,GPIO16*%
X108002000Y-139990000D03*
X114502000Y-139990000D03*
%TO.P,SW_DOWN1,2,2*%
%TO.N,-Vb*%
X108002000Y-144490000D03*
X114502000Y-144490000D03*
%TD*%
D13*
%TO.P,J4,1,Pin_1*%
%TO.N,+Vb*%
X105664000Y-70866000D03*
D14*
%TO.P,J4,2,Pin_2*%
%TO.N,-Vb*%
X108164000Y-70866000D03*
%TD*%
D12*
%TO.P,SW_B1,1,1*%
%TO.N,GPIO6*%
X149606000Y-117928000D03*
X156106000Y-117928000D03*
%TO.P,SW_B1,2,2*%
%TO.N,-Vb*%
X149606000Y-122428000D03*
X156106000Y-122428000D03*
%TD*%
%TO.P,SW_UP1,1,1*%
%TO.N,GPIO15*%
X108712000Y-119670000D03*
X115212000Y-119670000D03*
%TO.P,SW_UP1,2,2*%
%TO.N,-Vb*%
X108712000Y-124170000D03*
X115212000Y-124170000D03*
%TD*%
D15*
%TO.P,J12,S1,SHIELD*%
%TO.N,unconnected-(J12-SHIELD-PadS1)*%
X94224000Y-110490000D03*
X90424000Y-110490000D03*
X94224000Y-119130000D03*
X90424000Y-119130000D03*
%TD*%
D12*
%TO.P,SW_LEFT1,1,1*%
%TO.N,GPIO18*%
X97842000Y-129830000D03*
X104342000Y-129830000D03*
%TO.P,SW_LEFT1,2,2*%
%TO.N,-Vb*%
X97842000Y-134330000D03*
X104342000Y-134330000D03*
%TD*%
%TO.P,SW_RIGHT1,1,1*%
%TO.N,GPIO17*%
X118162000Y-129830000D03*
X124662000Y-129830000D03*
%TO.P,SW_RIGHT1,2,2*%
%TO.N,-Vb*%
X118162000Y-134330000D03*
X124662000Y-134330000D03*
%TD*%
D16*
%TO.P,SW1,*%
%TO.N,*%
X89884000Y-76672000D03*
X89884000Y-84872000D03*
D17*
%TO.P,SW1,1,B*%
%TO.N,Vout_reg*%
X89884000Y-78772000D03*
D18*
%TO.P,SW1,2,C*%
%TO.N,+3.3V*%
X89884000Y-80772000D03*
%TO.P,SW1,3,A*%
%TO.N,unconnected-(SW1-A-Pad3)*%
X89884000Y-82772000D03*
%TD*%
D10*
%TO.P,J6,1,Pin_1*%
%TO.N,Vout_reg*%
X108966000Y-97282000D03*
D11*
%TO.P,J6,2,Pin_2*%
%TO.N,-Vb*%
X106426000Y-97282000D03*
%TO.P,J6,3,Pin_3*%
%TO.N,+Vb*%
X103886000Y-97282000D03*
%TD*%
D10*
%TO.P,J1,1,Pin_1*%
%TO.N,+3.3V*%
X124714000Y-109474000D03*
D11*
%TO.P,J1,2,Pin_2*%
%TO.N,unconnected-(J1-Pin_2-Pad2)*%
X127254000Y-109474000D03*
%TO.P,J1,3,Pin_3*%
%TO.N,GPIO4*%
X129794000Y-109474000D03*
%TO.P,J1,4,Pin_4*%
%TO.N,GPIO5*%
X132334000Y-109474000D03*
%TO.P,J1,5,Pin_5*%
%TO.N,GPIO6*%
X134874000Y-109474000D03*
%TO.P,J1,6,Pin_6*%
%TO.N,GPIO7*%
X137414000Y-109474000D03*
%TO.P,J1,7,Pin_7*%
%TO.N,GPIO15*%
X139954000Y-109474000D03*
%TO.P,J1,8,Pin_8*%
%TO.N,GPIO16*%
X142494000Y-109474000D03*
%TO.P,J1,9,Pin_9*%
%TO.N,GPIO17*%
X145034000Y-109474000D03*
%TO.P,J1,10,Pin_10*%
%TO.N,GPIO18*%
X147574000Y-109474000D03*
%TO.P,J1,11,Pin_11*%
%TO.N,GPIO8*%
X150114000Y-109474000D03*
%TO.P,J1,12,Pin_12*%
%TO.N,unconnected-(J1-Pin_12-Pad12)*%
X152654000Y-109474000D03*
%TO.P,J1,13,Pin_13*%
%TO.N,unconnected-(J1-Pin_13-Pad13)*%
X155194000Y-109474000D03*
%TO.P,J1,14,Pin_14*%
%TO.N,GPIO9*%
X157734000Y-109474000D03*
%TO.P,J1,15,Pin_15*%
%TO.N,GPIO10*%
X160274000Y-109474000D03*
%TO.P,J1,16,Pin_16*%
%TO.N,GPIO11*%
X162814000Y-109474000D03*
%TO.P,J1,17,Pin_17*%
%TO.N,GPIO12*%
X165354000Y-109474000D03*
%TO.P,J1,18,Pin_18*%
%TO.N,GPIO13*%
X167894000Y-109474000D03*
%TO.P,J1,19,Pin_19*%
%TO.N,unconnected-(J1-Pin_19-Pad19)*%
X170434000Y-109474000D03*
%TO.P,J1,20,Pin_20*%
%TO.N,+5V*%
X172974000Y-109474000D03*
%TD*%
D10*
%TO.P,J2,1,Pin_1*%
%TO.N,unconnected-(J2-Pin_1-Pad1)*%
X124714000Y-84074000D03*
D11*
%TO.P,J2,2,Pin_2*%
%TO.N,unconnected-(J2-Pin_2-Pad2)*%
X127254000Y-84074000D03*
%TO.P,J2,3,Pin_3*%
%TO.N,unconnected-(J2-Pin_3-Pad3)*%
X129794000Y-84074000D03*
%TO.P,J2,4,Pin_4*%
%TO.N,unconnected-(J2-Pin_4-Pad4)*%
X132334000Y-84074000D03*
%TO.P,J2,5,Pin_5*%
%TO.N,GPIO42*%
X134874000Y-84074000D03*
%TO.P,J2,6,Pin_6*%
%TO.N,GPIO41*%
X137414000Y-84074000D03*
%TO.P,J2,7,Pin_7*%
%TO.N,unconnected-(J2-Pin_7-Pad7)*%
X139954000Y-84074000D03*
%TO.P,J2,8,Pin_8*%
%TO.N,unconnected-(J2-Pin_8-Pad8)*%
X142494000Y-84074000D03*
%TO.P,J2,9,Pin_9*%
%TO.N,unconnected-(J2-Pin_9-Pad9)*%
X145034000Y-84074000D03*
%TO.P,J2,10,Pin_10*%
%TO.N,unconnected-(J2-Pin_10-Pad10)*%
X147574000Y-84074000D03*
%TO.P,J2,11,Pin_11*%
%TO.N,unconnected-(J2-Pin_11-Pad11)*%
X150114000Y-84074000D03*
%TO.P,J2,12,Pin_12*%
%TO.N,unconnected-(J2-Pin_12-Pad12)*%
X152654000Y-84074000D03*
%TO.P,J2,13,Pin_13*%
%TO.N,unconnected-(J2-Pin_13-Pad13)*%
X155194000Y-84074000D03*
%TO.P,J2,14,Pin_14*%
%TO.N,unconnected-(J2-Pin_14-Pad14)*%
X157734000Y-84074000D03*
%TO.P,J2,15,Pin_15*%
%TO.N,unconnected-(J2-Pin_15-Pad15)*%
X160274000Y-84074000D03*
%TO.P,J2,16,Pin_16*%
%TO.N,GPIO47*%
X162814000Y-84074000D03*
%TO.P,J2,17,Pin_17*%
%TO.N,GPIO21*%
X165354000Y-84074000D03*
%TO.P,J2,18,Pin_18*%
%TO.N,unconnected-(J2-Pin_18-Pad18)*%
X167894000Y-84074000D03*
%TO.P,J2,19,Pin_19*%
%TO.N,unconnected-(J2-Pin_19-Pad19)*%
X170434000Y-84074000D03*
%TO.P,J2,20,Pin_20*%
%TO.N,-Vb*%
X172974000Y-84074000D03*
%TD*%
D10*
%TO.P,J8,1,Pin_1*%
%TO.N,+VIN_charge*%
X111760000Y-110490000D03*
%TD*%
%TO.P,J5,1,Pin_1*%
%TO.N,GPIO4*%
X184887000Y-91719000D03*
D11*
%TO.P,J5,2,Pin_2*%
%TO.N,GPIO12*%
X184887000Y-94259000D03*
%TO.P,J5,3,Pin_3*%
%TO.N,GPIO11*%
X184887000Y-96799000D03*
%TO.P,J5,4,Pin_4*%
%TO.N,GPIO13*%
X184887000Y-99339000D03*
%TO.P,J5,5,Pin_5*%
%TO.N,+3.3V*%
X184887000Y-101879000D03*
%TO.P,J5,6,Pin_6*%
%TO.N,-Vb*%
X184887000Y-104419000D03*
%TD*%
D10*
%TO.P,J9,1,Pin_1*%
%TO.N,-VIN_charge*%
X101600000Y-110490000D03*
%TD*%
%TO.P,J10,1,Pin_1*%
%TO.N,+Vb*%
X101600000Y-82550000D03*
%TD*%
%TO.P,J11,1,Pin_1*%
%TO.N,-Vb*%
X111760000Y-82550000D03*
%TD*%
D19*
%TO.N,+3.3V*%
X111506000Y-132334000D03*
X131318000Y-131826000D03*
X133096000Y-138938000D03*
%TO.N,-Vb*%
X118618000Y-78486000D03*
%TO.N,+3.3V*%
X146050000Y-122428000D03*
X138938000Y-139192000D03*
X161036000Y-140462000D03*
X163322000Y-121412000D03*
X102362000Y-121666000D03*
X101092000Y-123190000D03*
%TD*%
D20*
%TO.N,unconnected-(J12-SHIELD-PadS1)*%
X90424000Y-119130000D02*
X94224000Y-119130000D01*
X90424000Y-110490000D02*
X90424000Y-119130000D01*
X90424000Y-110490000D02*
X94224000Y-110490000D01*
%TO.N,GPIO5*%
X167438000Y-117892000D02*
X165370000Y-115824000D01*
X165370000Y-115824000D02*
X160528000Y-115824000D01*
X160528000Y-115824000D02*
X159004000Y-117348000D01*
X159004000Y-117348000D02*
X159004000Y-124460000D01*
X132334000Y-114046000D02*
X132334000Y-109474000D01*
X159004000Y-124460000D02*
X157734000Y-125730000D01*
X157734000Y-125730000D02*
X144018000Y-125730000D01*
X144018000Y-125730000D02*
X132334000Y-114046000D01*
%TO.N,GPIO18*%
X115316000Y-114046000D02*
X122174000Y-107188000D01*
X105918000Y-114046000D02*
X115316000Y-114046000D01*
X97842000Y-129830000D02*
X97842000Y-122122000D01*
X97842000Y-122122000D02*
X105918000Y-114046000D01*
X122174000Y-107188000D02*
X145288000Y-107188000D01*
X145288000Y-107188000D02*
X147574000Y-109474000D01*
%TO.N,GPIO6*%
X149606000Y-117928000D02*
X143328000Y-117928000D01*
X143328000Y-117928000D02*
X134874000Y-109474000D01*
%TO.N,GPIO9*%
X141971000Y-95529000D02*
X141971000Y-102855000D01*
X145542000Y-106426000D02*
X156718000Y-106426000D01*
X141971000Y-102855000D02*
X145542000Y-106426000D01*
X156718000Y-106426000D02*
X157480000Y-107188000D01*
X157480000Y-107188000D02*
X157734000Y-107188000D01*
X157734000Y-107188000D02*
X157734000Y-109474000D01*
%TO.N,+3.3V*%
X88900000Y-80772000D02*
X89884000Y-80772000D01*
%TO.N,GPIO15*%
X108712000Y-119670000D02*
X115212000Y-119670000D01*
%TO.N,GPIO11*%
X152131000Y-95529000D02*
X152131000Y-96251000D01*
%TO.N,-Vb*%
X149606000Y-122428000D02*
X156106000Y-122428000D01*
X167402000Y-122428000D02*
X167438000Y-122392000D01*
X140970000Y-151312000D02*
X141224000Y-151058000D01*
%TO.N,+Vb*%
X101600000Y-82550000D02*
X101600000Y-94996000D01*
X101600000Y-74930000D02*
X105664000Y-70866000D01*
X101600000Y-94996000D02*
X103886000Y-97282000D01*
X101600000Y-82550000D02*
X101600000Y-74930000D01*
%TO.N,Vout_reg*%
X108966000Y-97282000D02*
X108966000Y-89154000D01*
X111760000Y-68834000D02*
X101092000Y-68834000D01*
X113792000Y-84328000D02*
X113792000Y-70866000D01*
X101092000Y-68834000D02*
X91154000Y-78772000D01*
X91154000Y-78772000D02*
X89884000Y-78772000D01*
X108966000Y-89154000D02*
X113792000Y-84328000D01*
X113792000Y-70866000D02*
X111760000Y-68834000D01*
%TD*%
M02*
