M48
; DRILL file {KiCad 7.0.11-7.0.11~ubuntu20.04.1} date mer. 21 janv. 2026 02:01:50
; FORMAT={-:-/ absolute / inch / decimal}
; #@! TF.CreationDate,2026-01-21T02:01:50+01:00
; #@! TF.GenerationSoftware,Kicad,Pcbnew,7.0.11-7.0.11~ubuntu20.04.1
; #@! TF.FileFunction,Plated,1,4,PTH
FMAT,2
INCH
; #@! TA.AperFunction,Plated,PTH,ViaDrill
T1C0.0118
; #@! TA.AperFunction,Plated,PTH,ComponentDrill
T2C0.0236
; #@! TA.AperFunction,Plated,PTH,ComponentDrill
T3C0.0354
; #@! TA.AperFunction,Plated,PTH,ComponentDrill
T4C0.0394
; #@! TA.AperFunction,Plated,PTH,ComponentDrill
T5C0.0433
; #@! TA.AperFunction,Plated,PTH,ComponentDrill
T6C0.0591
%
G90
G05
T1
X3.98Y-4.85
X4.03Y-4.79
X4.39Y-5.21
X4.67Y-3.09
X5.17Y-5.19
X5.24Y-5.47
X5.47Y-5.48
X5.75Y-4.82
X6.34Y-5.53
X6.43Y-4.78
T3
X3.5387Y-3.1013
X3.5387Y-3.18
X3.5387Y-3.2587
T4
X4.0Y-3.25
X4.0Y-4.35
X4.09Y-3.83
X4.16Y-2.79
X4.19Y-3.83
X4.2584Y-2.79
X4.29Y-3.83
X4.4Y-3.25
X4.4Y-4.35
X4.91Y-3.31
X4.91Y-4.31
X5.01Y-3.31
X5.01Y-4.31
X5.11Y-3.31
X5.11Y-4.31
X5.21Y-3.31
X5.21Y-4.31
X5.31Y-3.31
X5.31Y-4.31
X5.41Y-3.31
X5.41Y-4.31
X5.4894Y-3.761
X5.51Y-3.31
X5.51Y-4.31
X5.5894Y-3.761
X5.61Y-3.31
X5.61Y-4.31
X5.6894Y-3.761
X5.71Y-3.31
X5.71Y-4.31
X5.7894Y-3.761
X5.81Y-3.31
X5.81Y-4.31
X5.8894Y-3.761
X5.91Y-3.31
X5.91Y-4.31
X5.9894Y-3.761
X6.01Y-3.31
X6.01Y-4.31
X6.0894Y-3.761
X6.11Y-3.31
X6.11Y-4.31
X6.1894Y-3.761
X6.21Y-3.31
X6.21Y-4.31
X6.31Y-3.31
X6.31Y-4.31
X6.41Y-3.31
X6.41Y-4.31
X6.51Y-3.31
X6.51Y-4.31
X6.61Y-3.31
X6.61Y-4.31
X6.71Y-3.31
X6.71Y-4.31
X6.81Y-3.31
X6.81Y-4.31
X7.279Y-3.611
X7.279Y-3.711
X7.279Y-3.811
X7.279Y-3.911
X7.279Y-4.011
X7.279Y-4.111
T5
X3.852Y-5.1114
X3.852Y-5.2886
X4.108Y-5.1114
X4.108Y-5.2886
X4.252Y-5.5114
X4.252Y-5.6886
X4.28Y-4.7114
X4.28Y-4.8886
X4.508Y-5.5114
X4.508Y-5.6886
X4.5359Y-4.7114
X4.5359Y-4.8886
X4.652Y-5.1114
X4.652Y-5.2886
X4.908Y-5.1114
X4.908Y-5.2886
X5.05Y-5.78
X5.05Y-5.9572
X5.3059Y-5.78
X5.3059Y-5.9572
X5.56Y-5.77
X5.56Y-5.9472
X5.8159Y-5.77
X5.8159Y-5.9472
X5.89Y-4.6428
X5.89Y-4.82
X6.1459Y-4.6428
X6.1459Y-4.82
X6.592Y-4.6414
X6.592Y-4.8186
X6.848Y-4.6414
X6.848Y-4.8186
T6
X3.5387Y-3.0186
X3.5387Y-3.3414
T2
G00X3.5718Y-4.35
M15
G01X3.5482Y-4.35
M16
G05
G00X3.5718Y-4.6902
M15
G01X3.5482Y-4.6902
M16
G05
G00X3.7214Y-4.35
M15
G01X3.6978Y-4.35
M16
G05
G00X3.7214Y-4.6902
M15
G01X3.6978Y-4.6902
M16
G05
M30
