%TF.GenerationSoftware,KiCad,Pcbnew,7.0.11-7.0.11~ubuntu20.04.1*%
%TF.CreationDate,2026-01-21T02:02:30+01:00*%
%TF.ProjectId,main_board,6d61696e-5f62-46f6-9172-642e6b696361,rev?*%
%TF.SameCoordinates,Original*%
%TF.FileFunction,Soldermask,Bot*%
%TF.FilePolarity,Negative*%
%FSLAX46Y46*%
G04 Gerber Fmt 4.6, Leading zero omitted, Abs format (unit mm)*
G04 Created by KiCad (PCBNEW 7.0.11-7.0.11~ubuntu20.04.1) date 2026-01-21 02:02:30*
%MOMM*%
%LPD*%
G01*
G04 APERTURE LIST*
G04 Aperture macros list*
%AMRoundRect*
0 Rectangle with rounded corners*
0 $1 Rounding radius*
0 $2 $3 $4 $5 $6 $7 $8 $9 X,Y pos of 4 corners*
0 Add a 4 corners polygon primitive as box body*
4,1,4,$2,$3,$4,$5,$6,$7,$8,$9,$2,$3,0*
0 Add four circle primitives for the rounded corners*
1,1,$1+$1,$2,$3*
1,1,$1+$1,$4,$5*
1,1,$1+$1,$6,$7*
1,1,$1+$1,$8,$9*
0 Add four rect primitives between the rounded corners*
20,1,$1+$1,$2,$3,$4,$5,0*
20,1,$1+$1,$4,$5,$6,$7,0*
20,1,$1+$1,$6,$7,$8,$9,0*
20,1,$1+$1,$8,$9,$2,$3,0*%
G04 Aperture macros list end*
%ADD10C,3.000000*%
%ADD11R,1.700000X1.700000*%
%ADD12O,1.700000X1.700000*%
%ADD13C,2.000000*%
%ADD14RoundRect,0.250000X-0.600000X-0.750000X0.600000X-0.750000X0.600000X0.750000X-0.600000X0.750000X0*%
%ADD15O,1.700000X2.000000*%
%ADD16O,1.700000X1.100000*%
%ADD17O,3.500000X2.200000*%
%ADD18R,2.500000X1.500000*%
%ADD19O,2.500000X1.500000*%
G04 APERTURE END LIST*
D10*
%TO.C,REF\u002A\u002A*%
X182118000Y-153162000D03*
%TD*%
%TO.C,REF\u002A\u002A*%
X113284000Y-154178000D03*
%TD*%
%TO.C,REF\u002A\u002A*%
X193548000Y-52324000D03*
%TD*%
%TO.C,REF\u002A\u002A*%
X103124000Y-52832000D03*
%TD*%
D11*
%TO.C,J3*%
X157211000Y-95529000D03*
D12*
X154671000Y-95529000D03*
X152131000Y-95529000D03*
X149591000Y-95529000D03*
X147051000Y-95529000D03*
X144511000Y-95529000D03*
X141971000Y-95529000D03*
X139431000Y-95529000D03*
%TD*%
D13*
%TO.C,SW_START1*%
X141224000Y-146558000D03*
X147724000Y-146558000D03*
X141224000Y-151058000D03*
X147724000Y-151058000D03*
%TD*%
%TO.C,SW_SELECT1*%
X128270000Y-146812000D03*
X134770000Y-146812000D03*
X128270000Y-151312000D03*
X134770000Y-151312000D03*
%TD*%
%TO.C,SW_A1*%
X167438000Y-117892000D03*
X173938000Y-117892000D03*
X167438000Y-122392000D03*
X173938000Y-122392000D03*
%TD*%
%TO.C,SW_DOWN1*%
X108002000Y-139990000D03*
X114502000Y-139990000D03*
X108002000Y-144490000D03*
X114502000Y-144490000D03*
%TD*%
D14*
%TO.C,J4*%
X105664000Y-70866000D03*
D15*
X108164000Y-70866000D03*
%TD*%
D13*
%TO.C,SW_B1*%
X149606000Y-117928000D03*
X156106000Y-117928000D03*
X149606000Y-122428000D03*
X156106000Y-122428000D03*
%TD*%
%TO.C,SW_UP1*%
X108712000Y-119670000D03*
X115212000Y-119670000D03*
X108712000Y-124170000D03*
X115212000Y-124170000D03*
%TD*%
D16*
%TO.C,J12*%
X94224000Y-110490000D03*
X90424000Y-110490000D03*
X94224000Y-119130000D03*
X90424000Y-119130000D03*
%TD*%
D13*
%TO.C,SW_LEFT1*%
X97842000Y-129830000D03*
X104342000Y-129830000D03*
X97842000Y-134330000D03*
X104342000Y-134330000D03*
%TD*%
%TO.C,SW_RIGHT1*%
X118162000Y-129830000D03*
X124662000Y-129830000D03*
X118162000Y-134330000D03*
X124662000Y-134330000D03*
%TD*%
D17*
%TO.C,SW1*%
X89884000Y-76672000D03*
X89884000Y-84872000D03*
D18*
X89884000Y-78772000D03*
D19*
X89884000Y-80772000D03*
X89884000Y-82772000D03*
%TD*%
D11*
%TO.C,J6*%
X108966000Y-97282000D03*
D12*
X106426000Y-97282000D03*
X103886000Y-97282000D03*
%TD*%
D11*
%TO.C,J1*%
X124714000Y-109474000D03*
D12*
X127254000Y-109474000D03*
X129794000Y-109474000D03*
X132334000Y-109474000D03*
X134874000Y-109474000D03*
X137414000Y-109474000D03*
X139954000Y-109474000D03*
X142494000Y-109474000D03*
X145034000Y-109474000D03*
X147574000Y-109474000D03*
X150114000Y-109474000D03*
X152654000Y-109474000D03*
X155194000Y-109474000D03*
X157734000Y-109474000D03*
X160274000Y-109474000D03*
X162814000Y-109474000D03*
X165354000Y-109474000D03*
X167894000Y-109474000D03*
X170434000Y-109474000D03*
X172974000Y-109474000D03*
%TD*%
D11*
%TO.C,J2*%
X124714000Y-84074000D03*
D12*
X127254000Y-84074000D03*
X129794000Y-84074000D03*
X132334000Y-84074000D03*
X134874000Y-84074000D03*
X137414000Y-84074000D03*
X139954000Y-84074000D03*
X142494000Y-84074000D03*
X145034000Y-84074000D03*
X147574000Y-84074000D03*
X150114000Y-84074000D03*
X152654000Y-84074000D03*
X155194000Y-84074000D03*
X157734000Y-84074000D03*
X160274000Y-84074000D03*
X162814000Y-84074000D03*
X165354000Y-84074000D03*
X167894000Y-84074000D03*
X170434000Y-84074000D03*
X172974000Y-84074000D03*
%TD*%
D11*
%TO.C,J8*%
X111760000Y-110490000D03*
%TD*%
%TO.C,J5*%
X184887000Y-91719000D03*
D12*
X184887000Y-94259000D03*
X184887000Y-96799000D03*
X184887000Y-99339000D03*
X184887000Y-101879000D03*
X184887000Y-104419000D03*
%TD*%
D11*
%TO.C,J9*%
X101600000Y-110490000D03*
%TD*%
%TO.C,J10*%
X101600000Y-82550000D03*
%TD*%
%TO.C,J11*%
X111760000Y-82550000D03*
%TD*%
M02*
