%TF.GenerationSoftware,KiCad,Pcbnew,7.0.11-7.0.11~ubuntu20.04.1*%
%TF.CreationDate,2026-01-21T02:02:30+01:00*%
%TF.ProjectId,main_board,6d61696e-5f62-46f6-9172-642e6b696361,rev?*%
%TF.SameCoordinates,Original*%
%TF.FileFunction,Legend,Top*%
%TF.FilePolarity,Positive*%
%FSLAX46Y46*%
G04 Gerber Fmt 4.6, Leading zero omitted, Abs format (unit mm)*
G04 Created by KiCad (PCBNEW 7.0.11-7.0.11~ubuntu20.04.1) date 2026-01-21 02:02:30*
%MOMM*%
%LPD*%
G01*
G04 APERTURE LIST*
%ADD10C,0.150000*%
%ADD11C,0.250000*%
%ADD12C,0.500000*%
%ADD13C,0.120000*%
G04 APERTURE END LIST*
D10*
X139100112Y-67214200D02*
X139528684Y-67452295D01*
X139528684Y-67452295D02*
X140242969Y-67452295D01*
X140242969Y-67452295D02*
X140528684Y-67214200D01*
X140528684Y-67214200D02*
X140671541Y-66976104D01*
X140671541Y-66976104D02*
X140814398Y-66499914D01*
X140814398Y-66499914D02*
X140814398Y-66023723D01*
X140814398Y-66023723D02*
X140671541Y-65547533D01*
X140671541Y-65547533D02*
X140528684Y-65309438D01*
X140528684Y-65309438D02*
X140242969Y-65071342D01*
X140242969Y-65071342D02*
X139671541Y-64833247D01*
X139671541Y-64833247D02*
X139385826Y-64595152D01*
X139385826Y-64595152D02*
X139242969Y-64357057D01*
X139242969Y-64357057D02*
X139100112Y-63880866D01*
X139100112Y-63880866D02*
X139100112Y-63404676D01*
X139100112Y-63404676D02*
X139242969Y-62928485D01*
X139242969Y-62928485D02*
X139385826Y-62690390D01*
X139385826Y-62690390D02*
X139671541Y-62452295D01*
X139671541Y-62452295D02*
X140385826Y-62452295D01*
X140385826Y-62452295D02*
X140814398Y-62690390D01*
X143814398Y-66976104D02*
X143671541Y-67214200D01*
X143671541Y-67214200D02*
X143242969Y-67452295D01*
X143242969Y-67452295D02*
X142957255Y-67452295D01*
X142957255Y-67452295D02*
X142528684Y-67214200D01*
X142528684Y-67214200D02*
X142242969Y-66738009D01*
X142242969Y-66738009D02*
X142100112Y-66261819D01*
X142100112Y-66261819D02*
X141957255Y-65309438D01*
X141957255Y-65309438D02*
X141957255Y-64595152D01*
X141957255Y-64595152D02*
X142100112Y-63642771D01*
X142100112Y-63642771D02*
X142242969Y-63166580D01*
X142242969Y-63166580D02*
X142528684Y-62690390D01*
X142528684Y-62690390D02*
X142957255Y-62452295D01*
X142957255Y-62452295D02*
X143242969Y-62452295D01*
X143242969Y-62452295D02*
X143671541Y-62690390D01*
X143671541Y-62690390D02*
X143814398Y-62928485D01*
X146814398Y-67452295D02*
X145814398Y-65071342D01*
X145100112Y-67452295D02*
X145100112Y-62452295D01*
X145100112Y-62452295D02*
X146242969Y-62452295D01*
X146242969Y-62452295D02*
X146528684Y-62690390D01*
X146528684Y-62690390D02*
X146671541Y-62928485D01*
X146671541Y-62928485D02*
X146814398Y-63404676D01*
X146814398Y-63404676D02*
X146814398Y-64118961D01*
X146814398Y-64118961D02*
X146671541Y-64595152D01*
X146671541Y-64595152D02*
X146528684Y-64833247D01*
X146528684Y-64833247D02*
X146242969Y-65071342D01*
X146242969Y-65071342D02*
X145100112Y-65071342D01*
X148100112Y-64833247D02*
X149100112Y-64833247D01*
X149528684Y-67452295D02*
X148100112Y-67452295D01*
X148100112Y-67452295D02*
X148100112Y-62452295D01*
X148100112Y-62452295D02*
X149528684Y-62452295D01*
X150814398Y-64833247D02*
X151814398Y-64833247D01*
X152242970Y-67452295D02*
X150814398Y-67452295D01*
X150814398Y-67452295D02*
X150814398Y-62452295D01*
X150814398Y-62452295D02*
X152242970Y-62452295D01*
X153528684Y-67452295D02*
X153528684Y-62452295D01*
X153528684Y-62452295D02*
X155242970Y-67452295D01*
X155242970Y-67452295D02*
X155242970Y-62452295D01*
D11*
X199200714Y-120739717D02*
X199057857Y-120930193D01*
X199057857Y-120930193D02*
X199057857Y-121215907D01*
X199057857Y-121215907D02*
X199200714Y-121501622D01*
X199200714Y-121501622D02*
X199486428Y-121692098D01*
X199486428Y-121692098D02*
X199772142Y-121787336D01*
X199772142Y-121787336D02*
X200343571Y-121882574D01*
X200343571Y-121882574D02*
X200772142Y-121882574D01*
X200772142Y-121882574D02*
X201343571Y-121787336D01*
X201343571Y-121787336D02*
X201629285Y-121692098D01*
X201629285Y-121692098D02*
X201915000Y-121501622D01*
X201915000Y-121501622D02*
X202057857Y-121215907D01*
X202057857Y-121215907D02*
X202057857Y-121025431D01*
X202057857Y-121025431D02*
X201915000Y-120739717D01*
X201915000Y-120739717D02*
X201772142Y-120644479D01*
X201772142Y-120644479D02*
X200772142Y-120644479D01*
X200772142Y-120644479D02*
X200772142Y-121025431D01*
X201200714Y-119882574D02*
X201200714Y-118930193D01*
X202057857Y-120073050D02*
X199057857Y-119406384D01*
X199057857Y-119406384D02*
X202057857Y-118739717D01*
X202057857Y-118073050D02*
X199057857Y-118073050D01*
X199057857Y-118073050D02*
X201200714Y-117406383D01*
X201200714Y-117406383D02*
X199057857Y-116739717D01*
X199057857Y-116739717D02*
X202057857Y-116739717D01*
X200486428Y-115787336D02*
X200486428Y-115120669D01*
X202057857Y-114834955D02*
X202057857Y-115787336D01*
X202057857Y-115787336D02*
X199057857Y-115787336D01*
X199057857Y-115787336D02*
X199057857Y-114834955D01*
X200486428Y-113311145D02*
X200629285Y-113025431D01*
X200629285Y-113025431D02*
X200772142Y-112930193D01*
X200772142Y-112930193D02*
X201057857Y-112834955D01*
X201057857Y-112834955D02*
X201486428Y-112834955D01*
X201486428Y-112834955D02*
X201772142Y-112930193D01*
X201772142Y-112930193D02*
X201915000Y-113025431D01*
X201915000Y-113025431D02*
X202057857Y-113215907D01*
X202057857Y-113215907D02*
X202057857Y-113977812D01*
X202057857Y-113977812D02*
X199057857Y-113977812D01*
X199057857Y-113977812D02*
X199057857Y-113311145D01*
X199057857Y-113311145D02*
X199200714Y-113120669D01*
X199200714Y-113120669D02*
X199343571Y-113025431D01*
X199343571Y-113025431D02*
X199629285Y-112930193D01*
X199629285Y-112930193D02*
X199915000Y-112930193D01*
X199915000Y-112930193D02*
X200200714Y-113025431D01*
X200200714Y-113025431D02*
X200343571Y-113120669D01*
X200343571Y-113120669D02*
X200486428Y-113311145D01*
X200486428Y-113311145D02*
X200486428Y-113977812D01*
X199057857Y-111596860D02*
X199057857Y-111215907D01*
X199057857Y-111215907D02*
X199200714Y-111025431D01*
X199200714Y-111025431D02*
X199486428Y-110834955D01*
X199486428Y-110834955D02*
X200057857Y-110739717D01*
X200057857Y-110739717D02*
X201057857Y-110739717D01*
X201057857Y-110739717D02*
X201629285Y-110834955D01*
X201629285Y-110834955D02*
X201915000Y-111025431D01*
X201915000Y-111025431D02*
X202057857Y-111215907D01*
X202057857Y-111215907D02*
X202057857Y-111596860D01*
X202057857Y-111596860D02*
X201915000Y-111787336D01*
X201915000Y-111787336D02*
X201629285Y-111977812D01*
X201629285Y-111977812D02*
X201057857Y-112073050D01*
X201057857Y-112073050D02*
X200057857Y-112073050D01*
X200057857Y-112073050D02*
X199486428Y-111977812D01*
X199486428Y-111977812D02*
X199200714Y-111787336D01*
X199200714Y-111787336D02*
X199057857Y-111596860D01*
X200629285Y-109501622D02*
X202057857Y-109501622D01*
X199057857Y-110168288D02*
X200629285Y-109501622D01*
X200629285Y-109501622D02*
X199057857Y-108834955D01*
X200915000Y-106644478D02*
X200915000Y-105120669D01*
X200915000Y-104168288D02*
X200915000Y-102644479D01*
X200629285Y-99787336D02*
X202057857Y-99787336D01*
X199057857Y-100454002D02*
X200629285Y-99787336D01*
X200629285Y-99787336D02*
X199057857Y-99120669D01*
X199057857Y-98073050D02*
X199057857Y-97692097D01*
X199057857Y-97692097D02*
X199200714Y-97501621D01*
X199200714Y-97501621D02*
X199486428Y-97311145D01*
X199486428Y-97311145D02*
X200057857Y-97215907D01*
X200057857Y-97215907D02*
X201057857Y-97215907D01*
X201057857Y-97215907D02*
X201629285Y-97311145D01*
X201629285Y-97311145D02*
X201915000Y-97501621D01*
X201915000Y-97501621D02*
X202057857Y-97692097D01*
X202057857Y-97692097D02*
X202057857Y-98073050D01*
X202057857Y-98073050D02*
X201915000Y-98263526D01*
X201915000Y-98263526D02*
X201629285Y-98454002D01*
X201629285Y-98454002D02*
X201057857Y-98549240D01*
X201057857Y-98549240D02*
X200057857Y-98549240D01*
X200057857Y-98549240D02*
X199486428Y-98454002D01*
X199486428Y-98454002D02*
X199200714Y-98263526D01*
X199200714Y-98263526D02*
X199057857Y-98073050D01*
X199057857Y-96358764D02*
X201486428Y-96358764D01*
X201486428Y-96358764D02*
X201772142Y-96263526D01*
X201772142Y-96263526D02*
X201915000Y-96168288D01*
X201915000Y-96168288D02*
X202057857Y-95977812D01*
X202057857Y-95977812D02*
X202057857Y-95596859D01*
X202057857Y-95596859D02*
X201915000Y-95406383D01*
X201915000Y-95406383D02*
X201772142Y-95311145D01*
X201772142Y-95311145D02*
X201486428Y-95215907D01*
X201486428Y-95215907D02*
X199057857Y-95215907D01*
X201915000Y-94358764D02*
X202057857Y-94073050D01*
X202057857Y-94073050D02*
X202057857Y-93596859D01*
X202057857Y-93596859D02*
X201915000Y-93406383D01*
X201915000Y-93406383D02*
X201772142Y-93311145D01*
X201772142Y-93311145D02*
X201486428Y-93215907D01*
X201486428Y-93215907D02*
X201200714Y-93215907D01*
X201200714Y-93215907D02*
X200915000Y-93311145D01*
X200915000Y-93311145D02*
X200772142Y-93406383D01*
X200772142Y-93406383D02*
X200629285Y-93596859D01*
X200629285Y-93596859D02*
X200486428Y-93977812D01*
X200486428Y-93977812D02*
X200343571Y-94168288D01*
X200343571Y-94168288D02*
X200200714Y-94263526D01*
X200200714Y-94263526D02*
X199915000Y-94358764D01*
X199915000Y-94358764D02*
X199629285Y-94358764D01*
X199629285Y-94358764D02*
X199343571Y-94263526D01*
X199343571Y-94263526D02*
X199200714Y-94168288D01*
X199200714Y-94168288D02*
X199057857Y-93977812D01*
X199057857Y-93977812D02*
X199057857Y-93501621D01*
X199057857Y-93501621D02*
X199200714Y-93215907D01*
X201915000Y-92454002D02*
X202057857Y-92168288D01*
X202057857Y-92168288D02*
X202057857Y-91692097D01*
X202057857Y-91692097D02*
X201915000Y-91501621D01*
X201915000Y-91501621D02*
X201772142Y-91406383D01*
X201772142Y-91406383D02*
X201486428Y-91311145D01*
X201486428Y-91311145D02*
X201200714Y-91311145D01*
X201200714Y-91311145D02*
X200915000Y-91406383D01*
X200915000Y-91406383D02*
X200772142Y-91501621D01*
X200772142Y-91501621D02*
X200629285Y-91692097D01*
X200629285Y-91692097D02*
X200486428Y-92073050D01*
X200486428Y-92073050D02*
X200343571Y-92263526D01*
X200343571Y-92263526D02*
X200200714Y-92358764D01*
X200200714Y-92358764D02*
X199915000Y-92454002D01*
X199915000Y-92454002D02*
X199629285Y-92454002D01*
X199629285Y-92454002D02*
X199343571Y-92358764D01*
X199343571Y-92358764D02*
X199200714Y-92263526D01*
X199200714Y-92263526D02*
X199057857Y-92073050D01*
X199057857Y-92073050D02*
X199057857Y-91596859D01*
X199057857Y-91596859D02*
X199200714Y-91311145D01*
X199057857Y-90073050D02*
X199057857Y-89692097D01*
X199057857Y-89692097D02*
X199200714Y-89501621D01*
X199200714Y-89501621D02*
X199486428Y-89311145D01*
X199486428Y-89311145D02*
X200057857Y-89215907D01*
X200057857Y-89215907D02*
X201057857Y-89215907D01*
X201057857Y-89215907D02*
X201629285Y-89311145D01*
X201629285Y-89311145D02*
X201915000Y-89501621D01*
X201915000Y-89501621D02*
X202057857Y-89692097D01*
X202057857Y-89692097D02*
X202057857Y-90073050D01*
X202057857Y-90073050D02*
X201915000Y-90263526D01*
X201915000Y-90263526D02*
X201629285Y-90454002D01*
X201629285Y-90454002D02*
X201057857Y-90549240D01*
X201057857Y-90549240D02*
X200057857Y-90549240D01*
X200057857Y-90549240D02*
X199486428Y-90454002D01*
X199486428Y-90454002D02*
X199200714Y-90263526D01*
X199200714Y-90263526D02*
X199057857Y-90073050D01*
X199057857Y-88358764D02*
X201486428Y-88358764D01*
X201486428Y-88358764D02*
X201772142Y-88263526D01*
X201772142Y-88263526D02*
X201915000Y-88168288D01*
X201915000Y-88168288D02*
X202057857Y-87977812D01*
X202057857Y-87977812D02*
X202057857Y-87596859D01*
X202057857Y-87596859D02*
X201915000Y-87406383D01*
X201915000Y-87406383D02*
X201772142Y-87311145D01*
X201772142Y-87311145D02*
X201486428Y-87215907D01*
X201486428Y-87215907D02*
X199057857Y-87215907D01*
X200486428Y-85596859D02*
X200486428Y-86263526D01*
X202057857Y-86263526D02*
X199057857Y-86263526D01*
X199057857Y-86263526D02*
X199057857Y-85311145D01*
X202057857Y-81406382D02*
X202057857Y-81501621D01*
X202057857Y-81501621D02*
X201915000Y-81692097D01*
X201915000Y-81692097D02*
X201486428Y-81977811D01*
X201486428Y-81977811D02*
X200629285Y-82454001D01*
X200629285Y-82454001D02*
X200200714Y-82644478D01*
X200200714Y-82644478D02*
X199772142Y-82739716D01*
X199772142Y-82739716D02*
X199486428Y-82739716D01*
X199486428Y-82739716D02*
X199200714Y-82644478D01*
X199200714Y-82644478D02*
X199057857Y-82454001D01*
X199057857Y-82454001D02*
X199057857Y-82358763D01*
X199057857Y-82358763D02*
X199200714Y-82168287D01*
X199200714Y-82168287D02*
X199486428Y-82073049D01*
X199486428Y-82073049D02*
X199629285Y-82073049D01*
X199629285Y-82073049D02*
X199915000Y-82168287D01*
X199915000Y-82168287D02*
X200057857Y-82263525D01*
X200057857Y-82263525D02*
X200629285Y-82834954D01*
X200629285Y-82834954D02*
X200772142Y-82930192D01*
X200772142Y-82930192D02*
X201057857Y-83025430D01*
X201057857Y-83025430D02*
X201486428Y-83025430D01*
X201486428Y-83025430D02*
X201772142Y-82930192D01*
X201772142Y-82930192D02*
X201915000Y-82834954D01*
X201915000Y-82834954D02*
X202057857Y-82644478D01*
X202057857Y-82644478D02*
X202057857Y-82358763D01*
X202057857Y-82358763D02*
X201915000Y-82168287D01*
X201915000Y-82168287D02*
X201772142Y-82073049D01*
X201772142Y-82073049D02*
X201200714Y-81787335D01*
X201200714Y-81787335D02*
X200772142Y-81692097D01*
X200772142Y-81692097D02*
X200486428Y-81692097D01*
X202057857Y-79025430D02*
X199057857Y-79025430D01*
X201915000Y-78168287D02*
X202057857Y-77882573D01*
X202057857Y-77882573D02*
X202057857Y-77406382D01*
X202057857Y-77406382D02*
X201915000Y-77215906D01*
X201915000Y-77215906D02*
X201772142Y-77120668D01*
X201772142Y-77120668D02*
X201486428Y-77025430D01*
X201486428Y-77025430D02*
X201200714Y-77025430D01*
X201200714Y-77025430D02*
X200915000Y-77120668D01*
X200915000Y-77120668D02*
X200772142Y-77215906D01*
X200772142Y-77215906D02*
X200629285Y-77406382D01*
X200629285Y-77406382D02*
X200486428Y-77787335D01*
X200486428Y-77787335D02*
X200343571Y-77977811D01*
X200343571Y-77977811D02*
X200200714Y-78073049D01*
X200200714Y-78073049D02*
X199915000Y-78168287D01*
X199915000Y-78168287D02*
X199629285Y-78168287D01*
X199629285Y-78168287D02*
X199343571Y-78073049D01*
X199343571Y-78073049D02*
X199200714Y-77977811D01*
X199200714Y-77977811D02*
X199057857Y-77787335D01*
X199057857Y-77787335D02*
X199057857Y-77311144D01*
X199057857Y-77311144D02*
X199200714Y-77025430D01*
X202057857Y-76168287D02*
X199057857Y-76168287D01*
X199057857Y-76168287D02*
X201200714Y-75501620D01*
X201200714Y-75501620D02*
X199057857Y-74834954D01*
X199057857Y-74834954D02*
X202057857Y-74834954D01*
X201200714Y-73977811D02*
X201200714Y-73025430D01*
X202057857Y-74168287D02*
X199057857Y-73501621D01*
X199057857Y-73501621D02*
X202057857Y-72834954D01*
X202057857Y-72168287D02*
X199057857Y-72168287D01*
X202057857Y-70263525D02*
X202057857Y-71215906D01*
X202057857Y-71215906D02*
X199057857Y-71215906D01*
D12*
X128524000Y-38862000D02*
X165608000Y-38862000D01*
X165608000Y-99314000D01*
X128524000Y-99314000D01*
X128524000Y-38862000D01*
D10*
X147479666Y-104381819D02*
X147479666Y-105096104D01*
X147479666Y-105096104D02*
X147432047Y-105238961D01*
X147432047Y-105238961D02*
X147336809Y-105334200D01*
X147336809Y-105334200D02*
X147193952Y-105381819D01*
X147193952Y-105381819D02*
X147098714Y-105381819D01*
X147860619Y-104381819D02*
X148479666Y-104381819D01*
X148479666Y-104381819D02*
X148146333Y-104762771D01*
X148146333Y-104762771D02*
X148289190Y-104762771D01*
X148289190Y-104762771D02*
X148384428Y-104810390D01*
X148384428Y-104810390D02*
X148432047Y-104858009D01*
X148432047Y-104858009D02*
X148479666Y-104953247D01*
X148479666Y-104953247D02*
X148479666Y-105191342D01*
X148479666Y-105191342D02*
X148432047Y-105286580D01*
X148432047Y-105286580D02*
X148384428Y-105334200D01*
X148384428Y-105334200D02*
X148289190Y-105381819D01*
X148289190Y-105381819D02*
X148003476Y-105381819D01*
X148003476Y-105381819D02*
X147908238Y-105334200D01*
X147908238Y-105334200D02*
X147860619Y-105286580D01*
X140593047Y-144965200D02*
X140735904Y-145012819D01*
X140735904Y-145012819D02*
X140973999Y-145012819D01*
X140973999Y-145012819D02*
X141069237Y-144965200D01*
X141069237Y-144965200D02*
X141116856Y-144917580D01*
X141116856Y-144917580D02*
X141164475Y-144822342D01*
X141164475Y-144822342D02*
X141164475Y-144727104D01*
X141164475Y-144727104D02*
X141116856Y-144631866D01*
X141116856Y-144631866D02*
X141069237Y-144584247D01*
X141069237Y-144584247D02*
X140973999Y-144536628D01*
X140973999Y-144536628D02*
X140783523Y-144489009D01*
X140783523Y-144489009D02*
X140688285Y-144441390D01*
X140688285Y-144441390D02*
X140640666Y-144393771D01*
X140640666Y-144393771D02*
X140593047Y-144298533D01*
X140593047Y-144298533D02*
X140593047Y-144203295D01*
X140593047Y-144203295D02*
X140640666Y-144108057D01*
X140640666Y-144108057D02*
X140688285Y-144060438D01*
X140688285Y-144060438D02*
X140783523Y-144012819D01*
X140783523Y-144012819D02*
X141021618Y-144012819D01*
X141021618Y-144012819D02*
X141164475Y-144060438D01*
X141497809Y-144012819D02*
X141735904Y-145012819D01*
X141735904Y-145012819D02*
X141926380Y-144298533D01*
X141926380Y-144298533D02*
X142116856Y-145012819D01*
X142116856Y-145012819D02*
X142354952Y-144012819D01*
X142497809Y-145108057D02*
X143259713Y-145108057D01*
X143450190Y-144965200D02*
X143593047Y-145012819D01*
X143593047Y-145012819D02*
X143831142Y-145012819D01*
X143831142Y-145012819D02*
X143926380Y-144965200D01*
X143926380Y-144965200D02*
X143973999Y-144917580D01*
X143973999Y-144917580D02*
X144021618Y-144822342D01*
X144021618Y-144822342D02*
X144021618Y-144727104D01*
X144021618Y-144727104D02*
X143973999Y-144631866D01*
X143973999Y-144631866D02*
X143926380Y-144584247D01*
X143926380Y-144584247D02*
X143831142Y-144536628D01*
X143831142Y-144536628D02*
X143640666Y-144489009D01*
X143640666Y-144489009D02*
X143545428Y-144441390D01*
X143545428Y-144441390D02*
X143497809Y-144393771D01*
X143497809Y-144393771D02*
X143450190Y-144298533D01*
X143450190Y-144298533D02*
X143450190Y-144203295D01*
X143450190Y-144203295D02*
X143497809Y-144108057D01*
X143497809Y-144108057D02*
X143545428Y-144060438D01*
X143545428Y-144060438D02*
X143640666Y-144012819D01*
X143640666Y-144012819D02*
X143878761Y-144012819D01*
X143878761Y-144012819D02*
X144021618Y-144060438D01*
X144307333Y-144012819D02*
X144878761Y-144012819D01*
X144593047Y-145012819D02*
X144593047Y-144012819D01*
X145164476Y-144727104D02*
X145640666Y-144727104D01*
X145069238Y-145012819D02*
X145402571Y-144012819D01*
X145402571Y-144012819D02*
X145735904Y-145012819D01*
X146640666Y-145012819D02*
X146307333Y-144536628D01*
X146069238Y-145012819D02*
X146069238Y-144012819D01*
X146069238Y-144012819D02*
X146450190Y-144012819D01*
X146450190Y-144012819D02*
X146545428Y-144060438D01*
X146545428Y-144060438D02*
X146593047Y-144108057D01*
X146593047Y-144108057D02*
X146640666Y-144203295D01*
X146640666Y-144203295D02*
X146640666Y-144346152D01*
X146640666Y-144346152D02*
X146593047Y-144441390D01*
X146593047Y-144441390D02*
X146545428Y-144489009D01*
X146545428Y-144489009D02*
X146450190Y-144536628D01*
X146450190Y-144536628D02*
X146069238Y-144536628D01*
X146926381Y-144012819D02*
X147497809Y-144012819D01*
X147212095Y-145012819D02*
X147212095Y-144012819D01*
X148354952Y-145012819D02*
X147783524Y-145012819D01*
X148069238Y-145012819D02*
X148069238Y-144012819D01*
X148069238Y-144012819D02*
X147974000Y-144155676D01*
X147974000Y-144155676D02*
X147878762Y-144250914D01*
X147878762Y-144250914D02*
X147783524Y-144298533D01*
X102436819Y-120920166D02*
X101960628Y-121253499D01*
X102436819Y-121491594D02*
X101436819Y-121491594D01*
X101436819Y-121491594D02*
X101436819Y-121110642D01*
X101436819Y-121110642D02*
X101484438Y-121015404D01*
X101484438Y-121015404D02*
X101532057Y-120967785D01*
X101532057Y-120967785D02*
X101627295Y-120920166D01*
X101627295Y-120920166D02*
X101770152Y-120920166D01*
X101770152Y-120920166D02*
X101865390Y-120967785D01*
X101865390Y-120967785D02*
X101913009Y-121015404D01*
X101913009Y-121015404D02*
X101960628Y-121110642D01*
X101960628Y-121110642D02*
X101960628Y-121491594D01*
X101770152Y-120063023D02*
X102436819Y-120063023D01*
X101389200Y-120301118D02*
X102103485Y-120539213D01*
X102103485Y-120539213D02*
X102103485Y-119920166D01*
X156512000Y-139408819D02*
X156702476Y-139408819D01*
X156702476Y-139408819D02*
X156797714Y-139456438D01*
X156797714Y-139456438D02*
X156892952Y-139551676D01*
X156892952Y-139551676D02*
X156940571Y-139742152D01*
X156940571Y-139742152D02*
X156940571Y-140075485D01*
X156940571Y-140075485D02*
X156892952Y-140265961D01*
X156892952Y-140265961D02*
X156797714Y-140361200D01*
X156797714Y-140361200D02*
X156702476Y-140408819D01*
X156702476Y-140408819D02*
X156512000Y-140408819D01*
X156512000Y-140408819D02*
X156416762Y-140361200D01*
X156416762Y-140361200D02*
X156321524Y-140265961D01*
X156321524Y-140265961D02*
X156273905Y-140075485D01*
X156273905Y-140075485D02*
X156273905Y-139742152D01*
X156273905Y-139742152D02*
X156321524Y-139551676D01*
X156321524Y-139551676D02*
X156416762Y-139456438D01*
X156416762Y-139456438D02*
X156512000Y-139408819D01*
X157369143Y-140408819D02*
X157369143Y-139408819D01*
X157369143Y-139408819D02*
X157940571Y-140408819D01*
X157940571Y-140408819D02*
X157940571Y-139408819D01*
X159131047Y-139361200D02*
X158273905Y-140646914D01*
X159654857Y-139408819D02*
X159845333Y-139408819D01*
X159845333Y-139408819D02*
X159940571Y-139456438D01*
X159940571Y-139456438D02*
X160035809Y-139551676D01*
X160035809Y-139551676D02*
X160083428Y-139742152D01*
X160083428Y-139742152D02*
X160083428Y-140075485D01*
X160083428Y-140075485D02*
X160035809Y-140265961D01*
X160035809Y-140265961D02*
X159940571Y-140361200D01*
X159940571Y-140361200D02*
X159845333Y-140408819D01*
X159845333Y-140408819D02*
X159654857Y-140408819D01*
X159654857Y-140408819D02*
X159559619Y-140361200D01*
X159559619Y-140361200D02*
X159464381Y-140265961D01*
X159464381Y-140265961D02*
X159416762Y-140075485D01*
X159416762Y-140075485D02*
X159416762Y-139742152D01*
X159416762Y-139742152D02*
X159464381Y-139551676D01*
X159464381Y-139551676D02*
X159559619Y-139456438D01*
X159559619Y-139456438D02*
X159654857Y-139408819D01*
X160845333Y-139885009D02*
X160512000Y-139885009D01*
X160512000Y-140408819D02*
X160512000Y-139408819D01*
X160512000Y-139408819D02*
X160988190Y-139408819D01*
X161702476Y-139885009D02*
X161369143Y-139885009D01*
X161369143Y-140408819D02*
X161369143Y-139408819D01*
X161369143Y-139408819D02*
X161845333Y-139408819D01*
X162750095Y-140408819D02*
X162178667Y-140408819D01*
X162464381Y-140408819D02*
X162464381Y-139408819D01*
X162464381Y-139408819D02*
X162369143Y-139551676D01*
X162369143Y-139551676D02*
X162273905Y-139646914D01*
X162273905Y-139646914D02*
X162178667Y-139694533D01*
X127139047Y-145219200D02*
X127281904Y-145266819D01*
X127281904Y-145266819D02*
X127519999Y-145266819D01*
X127519999Y-145266819D02*
X127615237Y-145219200D01*
X127615237Y-145219200D02*
X127662856Y-145171580D01*
X127662856Y-145171580D02*
X127710475Y-145076342D01*
X127710475Y-145076342D02*
X127710475Y-144981104D01*
X127710475Y-144981104D02*
X127662856Y-144885866D01*
X127662856Y-144885866D02*
X127615237Y-144838247D01*
X127615237Y-144838247D02*
X127519999Y-144790628D01*
X127519999Y-144790628D02*
X127329523Y-144743009D01*
X127329523Y-144743009D02*
X127234285Y-144695390D01*
X127234285Y-144695390D02*
X127186666Y-144647771D01*
X127186666Y-144647771D02*
X127139047Y-144552533D01*
X127139047Y-144552533D02*
X127139047Y-144457295D01*
X127139047Y-144457295D02*
X127186666Y-144362057D01*
X127186666Y-144362057D02*
X127234285Y-144314438D01*
X127234285Y-144314438D02*
X127329523Y-144266819D01*
X127329523Y-144266819D02*
X127567618Y-144266819D01*
X127567618Y-144266819D02*
X127710475Y-144314438D01*
X128043809Y-144266819D02*
X128281904Y-145266819D01*
X128281904Y-145266819D02*
X128472380Y-144552533D01*
X128472380Y-144552533D02*
X128662856Y-145266819D01*
X128662856Y-145266819D02*
X128900952Y-144266819D01*
X129043809Y-145362057D02*
X129805713Y-145362057D01*
X129996190Y-145219200D02*
X130139047Y-145266819D01*
X130139047Y-145266819D02*
X130377142Y-145266819D01*
X130377142Y-145266819D02*
X130472380Y-145219200D01*
X130472380Y-145219200D02*
X130519999Y-145171580D01*
X130519999Y-145171580D02*
X130567618Y-145076342D01*
X130567618Y-145076342D02*
X130567618Y-144981104D01*
X130567618Y-144981104D02*
X130519999Y-144885866D01*
X130519999Y-144885866D02*
X130472380Y-144838247D01*
X130472380Y-144838247D02*
X130377142Y-144790628D01*
X130377142Y-144790628D02*
X130186666Y-144743009D01*
X130186666Y-144743009D02*
X130091428Y-144695390D01*
X130091428Y-144695390D02*
X130043809Y-144647771D01*
X130043809Y-144647771D02*
X129996190Y-144552533D01*
X129996190Y-144552533D02*
X129996190Y-144457295D01*
X129996190Y-144457295D02*
X130043809Y-144362057D01*
X130043809Y-144362057D02*
X130091428Y-144314438D01*
X130091428Y-144314438D02*
X130186666Y-144266819D01*
X130186666Y-144266819D02*
X130424761Y-144266819D01*
X130424761Y-144266819D02*
X130567618Y-144314438D01*
X130996190Y-144743009D02*
X131329523Y-144743009D01*
X131472380Y-145266819D02*
X130996190Y-145266819D01*
X130996190Y-145266819D02*
X130996190Y-144266819D01*
X130996190Y-144266819D02*
X131472380Y-144266819D01*
X132377142Y-145266819D02*
X131900952Y-145266819D01*
X131900952Y-145266819D02*
X131900952Y-144266819D01*
X132710476Y-144743009D02*
X133043809Y-144743009D01*
X133186666Y-145266819D02*
X132710476Y-145266819D01*
X132710476Y-145266819D02*
X132710476Y-144266819D01*
X132710476Y-144266819D02*
X133186666Y-144266819D01*
X134186666Y-145171580D02*
X134139047Y-145219200D01*
X134139047Y-145219200D02*
X133996190Y-145266819D01*
X133996190Y-145266819D02*
X133900952Y-145266819D01*
X133900952Y-145266819D02*
X133758095Y-145219200D01*
X133758095Y-145219200D02*
X133662857Y-145123961D01*
X133662857Y-145123961D02*
X133615238Y-145028723D01*
X133615238Y-145028723D02*
X133567619Y-144838247D01*
X133567619Y-144838247D02*
X133567619Y-144695390D01*
X133567619Y-144695390D02*
X133615238Y-144504914D01*
X133615238Y-144504914D02*
X133662857Y-144409676D01*
X133662857Y-144409676D02*
X133758095Y-144314438D01*
X133758095Y-144314438D02*
X133900952Y-144266819D01*
X133900952Y-144266819D02*
X133996190Y-144266819D01*
X133996190Y-144266819D02*
X134139047Y-144314438D01*
X134139047Y-144314438D02*
X134186666Y-144362057D01*
X134472381Y-144266819D02*
X135043809Y-144266819D01*
X134758095Y-145266819D02*
X134758095Y-144266819D01*
X135900952Y-145266819D02*
X135329524Y-145266819D01*
X135615238Y-145266819D02*
X135615238Y-144266819D01*
X135615238Y-144266819D02*
X135520000Y-144409676D01*
X135520000Y-144409676D02*
X135424762Y-144504914D01*
X135424762Y-144504914D02*
X135329524Y-144552533D01*
X168545143Y-116299200D02*
X168688000Y-116346819D01*
X168688000Y-116346819D02*
X168926095Y-116346819D01*
X168926095Y-116346819D02*
X169021333Y-116299200D01*
X169021333Y-116299200D02*
X169068952Y-116251580D01*
X169068952Y-116251580D02*
X169116571Y-116156342D01*
X169116571Y-116156342D02*
X169116571Y-116061104D01*
X169116571Y-116061104D02*
X169068952Y-115965866D01*
X169068952Y-115965866D02*
X169021333Y-115918247D01*
X169021333Y-115918247D02*
X168926095Y-115870628D01*
X168926095Y-115870628D02*
X168735619Y-115823009D01*
X168735619Y-115823009D02*
X168640381Y-115775390D01*
X168640381Y-115775390D02*
X168592762Y-115727771D01*
X168592762Y-115727771D02*
X168545143Y-115632533D01*
X168545143Y-115632533D02*
X168545143Y-115537295D01*
X168545143Y-115537295D02*
X168592762Y-115442057D01*
X168592762Y-115442057D02*
X168640381Y-115394438D01*
X168640381Y-115394438D02*
X168735619Y-115346819D01*
X168735619Y-115346819D02*
X168973714Y-115346819D01*
X168973714Y-115346819D02*
X169116571Y-115394438D01*
X169449905Y-115346819D02*
X169688000Y-116346819D01*
X169688000Y-116346819D02*
X169878476Y-115632533D01*
X169878476Y-115632533D02*
X170068952Y-116346819D01*
X170068952Y-116346819D02*
X170307048Y-115346819D01*
X170449905Y-116442057D02*
X171211809Y-116442057D01*
X171402286Y-116061104D02*
X171878476Y-116061104D01*
X171307048Y-116346819D02*
X171640381Y-115346819D01*
X171640381Y-115346819D02*
X171973714Y-116346819D01*
X172830857Y-116346819D02*
X172259429Y-116346819D01*
X172545143Y-116346819D02*
X172545143Y-115346819D01*
X172545143Y-115346819D02*
X172449905Y-115489676D01*
X172449905Y-115489676D02*
X172354667Y-115584914D01*
X172354667Y-115584914D02*
X172259429Y-115632533D01*
X113625333Y-131138819D02*
X113292000Y-130662628D01*
X113053905Y-131138819D02*
X113053905Y-130138819D01*
X113053905Y-130138819D02*
X113434857Y-130138819D01*
X113434857Y-130138819D02*
X113530095Y-130186438D01*
X113530095Y-130186438D02*
X113577714Y-130234057D01*
X113577714Y-130234057D02*
X113625333Y-130329295D01*
X113625333Y-130329295D02*
X113625333Y-130472152D01*
X113625333Y-130472152D02*
X113577714Y-130567390D01*
X113577714Y-130567390D02*
X113530095Y-130615009D01*
X113530095Y-130615009D02*
X113434857Y-130662628D01*
X113434857Y-130662628D02*
X113053905Y-130662628D01*
X114530095Y-130138819D02*
X114053905Y-130138819D01*
X114053905Y-130138819D02*
X114006286Y-130615009D01*
X114006286Y-130615009D02*
X114053905Y-130567390D01*
X114053905Y-130567390D02*
X114149143Y-130519771D01*
X114149143Y-130519771D02*
X114387238Y-130519771D01*
X114387238Y-130519771D02*
X114482476Y-130567390D01*
X114482476Y-130567390D02*
X114530095Y-130615009D01*
X114530095Y-130615009D02*
X114577714Y-130710247D01*
X114577714Y-130710247D02*
X114577714Y-130948342D01*
X114577714Y-130948342D02*
X114530095Y-131043580D01*
X114530095Y-131043580D02*
X114482476Y-131091200D01*
X114482476Y-131091200D02*
X114387238Y-131138819D01*
X114387238Y-131138819D02*
X114149143Y-131138819D01*
X114149143Y-131138819D02*
X114053905Y-131091200D01*
X114053905Y-131091200D02*
X114006286Y-131043580D01*
X107418667Y-138397200D02*
X107561524Y-138444819D01*
X107561524Y-138444819D02*
X107799619Y-138444819D01*
X107799619Y-138444819D02*
X107894857Y-138397200D01*
X107894857Y-138397200D02*
X107942476Y-138349580D01*
X107942476Y-138349580D02*
X107990095Y-138254342D01*
X107990095Y-138254342D02*
X107990095Y-138159104D01*
X107990095Y-138159104D02*
X107942476Y-138063866D01*
X107942476Y-138063866D02*
X107894857Y-138016247D01*
X107894857Y-138016247D02*
X107799619Y-137968628D01*
X107799619Y-137968628D02*
X107609143Y-137921009D01*
X107609143Y-137921009D02*
X107513905Y-137873390D01*
X107513905Y-137873390D02*
X107466286Y-137825771D01*
X107466286Y-137825771D02*
X107418667Y-137730533D01*
X107418667Y-137730533D02*
X107418667Y-137635295D01*
X107418667Y-137635295D02*
X107466286Y-137540057D01*
X107466286Y-137540057D02*
X107513905Y-137492438D01*
X107513905Y-137492438D02*
X107609143Y-137444819D01*
X107609143Y-137444819D02*
X107847238Y-137444819D01*
X107847238Y-137444819D02*
X107990095Y-137492438D01*
X108323429Y-137444819D02*
X108561524Y-138444819D01*
X108561524Y-138444819D02*
X108752000Y-137730533D01*
X108752000Y-137730533D02*
X108942476Y-138444819D01*
X108942476Y-138444819D02*
X109180572Y-137444819D01*
X109323429Y-138540057D02*
X110085333Y-138540057D01*
X110323429Y-138444819D02*
X110323429Y-137444819D01*
X110323429Y-137444819D02*
X110561524Y-137444819D01*
X110561524Y-137444819D02*
X110704381Y-137492438D01*
X110704381Y-137492438D02*
X110799619Y-137587676D01*
X110799619Y-137587676D02*
X110847238Y-137682914D01*
X110847238Y-137682914D02*
X110894857Y-137873390D01*
X110894857Y-137873390D02*
X110894857Y-138016247D01*
X110894857Y-138016247D02*
X110847238Y-138206723D01*
X110847238Y-138206723D02*
X110799619Y-138301961D01*
X110799619Y-138301961D02*
X110704381Y-138397200D01*
X110704381Y-138397200D02*
X110561524Y-138444819D01*
X110561524Y-138444819D02*
X110323429Y-138444819D01*
X111513905Y-137444819D02*
X111704381Y-137444819D01*
X111704381Y-137444819D02*
X111799619Y-137492438D01*
X111799619Y-137492438D02*
X111894857Y-137587676D01*
X111894857Y-137587676D02*
X111942476Y-137778152D01*
X111942476Y-137778152D02*
X111942476Y-138111485D01*
X111942476Y-138111485D02*
X111894857Y-138301961D01*
X111894857Y-138301961D02*
X111799619Y-138397200D01*
X111799619Y-138397200D02*
X111704381Y-138444819D01*
X111704381Y-138444819D02*
X111513905Y-138444819D01*
X111513905Y-138444819D02*
X111418667Y-138397200D01*
X111418667Y-138397200D02*
X111323429Y-138301961D01*
X111323429Y-138301961D02*
X111275810Y-138111485D01*
X111275810Y-138111485D02*
X111275810Y-137778152D01*
X111275810Y-137778152D02*
X111323429Y-137587676D01*
X111323429Y-137587676D02*
X111418667Y-137492438D01*
X111418667Y-137492438D02*
X111513905Y-137444819D01*
X112275810Y-137444819D02*
X112513905Y-138444819D01*
X112513905Y-138444819D02*
X112704381Y-137730533D01*
X112704381Y-137730533D02*
X112894857Y-138444819D01*
X112894857Y-138444819D02*
X113132953Y-137444819D01*
X113513905Y-138444819D02*
X113513905Y-137444819D01*
X113513905Y-137444819D02*
X114085333Y-138444819D01*
X114085333Y-138444819D02*
X114085333Y-137444819D01*
X115085333Y-138444819D02*
X114513905Y-138444819D01*
X114799619Y-138444819D02*
X114799619Y-137444819D01*
X114799619Y-137444819D02*
X114704381Y-137587676D01*
X114704381Y-137587676D02*
X114609143Y-137682914D01*
X114609143Y-137682914D02*
X114513905Y-137730533D01*
X106580666Y-67520819D02*
X106580666Y-68235104D01*
X106580666Y-68235104D02*
X106533047Y-68377961D01*
X106533047Y-68377961D02*
X106437809Y-68473200D01*
X106437809Y-68473200D02*
X106294952Y-68520819D01*
X106294952Y-68520819D02*
X106199714Y-68520819D01*
X107485428Y-67854152D02*
X107485428Y-68520819D01*
X107247333Y-67473200D02*
X107009238Y-68187485D01*
X107009238Y-68187485D02*
X107628285Y-68187485D01*
X150641714Y-116335200D02*
X150784571Y-116382819D01*
X150784571Y-116382819D02*
X151022666Y-116382819D01*
X151022666Y-116382819D02*
X151117904Y-116335200D01*
X151117904Y-116335200D02*
X151165523Y-116287580D01*
X151165523Y-116287580D02*
X151213142Y-116192342D01*
X151213142Y-116192342D02*
X151213142Y-116097104D01*
X151213142Y-116097104D02*
X151165523Y-116001866D01*
X151165523Y-116001866D02*
X151117904Y-115954247D01*
X151117904Y-115954247D02*
X151022666Y-115906628D01*
X151022666Y-115906628D02*
X150832190Y-115859009D01*
X150832190Y-115859009D02*
X150736952Y-115811390D01*
X150736952Y-115811390D02*
X150689333Y-115763771D01*
X150689333Y-115763771D02*
X150641714Y-115668533D01*
X150641714Y-115668533D02*
X150641714Y-115573295D01*
X150641714Y-115573295D02*
X150689333Y-115478057D01*
X150689333Y-115478057D02*
X150736952Y-115430438D01*
X150736952Y-115430438D02*
X150832190Y-115382819D01*
X150832190Y-115382819D02*
X151070285Y-115382819D01*
X151070285Y-115382819D02*
X151213142Y-115430438D01*
X151546476Y-115382819D02*
X151784571Y-116382819D01*
X151784571Y-116382819D02*
X151975047Y-115668533D01*
X151975047Y-115668533D02*
X152165523Y-116382819D01*
X152165523Y-116382819D02*
X152403619Y-115382819D01*
X152546476Y-116478057D02*
X153308380Y-116478057D01*
X153879809Y-115859009D02*
X154022666Y-115906628D01*
X154022666Y-115906628D02*
X154070285Y-115954247D01*
X154070285Y-115954247D02*
X154117904Y-116049485D01*
X154117904Y-116049485D02*
X154117904Y-116192342D01*
X154117904Y-116192342D02*
X154070285Y-116287580D01*
X154070285Y-116287580D02*
X154022666Y-116335200D01*
X154022666Y-116335200D02*
X153927428Y-116382819D01*
X153927428Y-116382819D02*
X153546476Y-116382819D01*
X153546476Y-116382819D02*
X153546476Y-115382819D01*
X153546476Y-115382819D02*
X153879809Y-115382819D01*
X153879809Y-115382819D02*
X153975047Y-115430438D01*
X153975047Y-115430438D02*
X154022666Y-115478057D01*
X154022666Y-115478057D02*
X154070285Y-115573295D01*
X154070285Y-115573295D02*
X154070285Y-115668533D01*
X154070285Y-115668533D02*
X154022666Y-115763771D01*
X154022666Y-115763771D02*
X153975047Y-115811390D01*
X153975047Y-115811390D02*
X153879809Y-115859009D01*
X153879809Y-115859009D02*
X153546476Y-115859009D01*
X155070285Y-116382819D02*
X154498857Y-116382819D01*
X154784571Y-116382819D02*
X154784571Y-115382819D01*
X154784571Y-115382819D02*
X154689333Y-115525676D01*
X154689333Y-115525676D02*
X154594095Y-115620914D01*
X154594095Y-115620914D02*
X154498857Y-115668533D01*
X109223905Y-118077200D02*
X109366762Y-118124819D01*
X109366762Y-118124819D02*
X109604857Y-118124819D01*
X109604857Y-118124819D02*
X109700095Y-118077200D01*
X109700095Y-118077200D02*
X109747714Y-118029580D01*
X109747714Y-118029580D02*
X109795333Y-117934342D01*
X109795333Y-117934342D02*
X109795333Y-117839104D01*
X109795333Y-117839104D02*
X109747714Y-117743866D01*
X109747714Y-117743866D02*
X109700095Y-117696247D01*
X109700095Y-117696247D02*
X109604857Y-117648628D01*
X109604857Y-117648628D02*
X109414381Y-117601009D01*
X109414381Y-117601009D02*
X109319143Y-117553390D01*
X109319143Y-117553390D02*
X109271524Y-117505771D01*
X109271524Y-117505771D02*
X109223905Y-117410533D01*
X109223905Y-117410533D02*
X109223905Y-117315295D01*
X109223905Y-117315295D02*
X109271524Y-117220057D01*
X109271524Y-117220057D02*
X109319143Y-117172438D01*
X109319143Y-117172438D02*
X109414381Y-117124819D01*
X109414381Y-117124819D02*
X109652476Y-117124819D01*
X109652476Y-117124819D02*
X109795333Y-117172438D01*
X110128667Y-117124819D02*
X110366762Y-118124819D01*
X110366762Y-118124819D02*
X110557238Y-117410533D01*
X110557238Y-117410533D02*
X110747714Y-118124819D01*
X110747714Y-118124819D02*
X110985810Y-117124819D01*
X111128667Y-118220057D02*
X111890571Y-118220057D01*
X112128667Y-117124819D02*
X112128667Y-117934342D01*
X112128667Y-117934342D02*
X112176286Y-118029580D01*
X112176286Y-118029580D02*
X112223905Y-118077200D01*
X112223905Y-118077200D02*
X112319143Y-118124819D01*
X112319143Y-118124819D02*
X112509619Y-118124819D01*
X112509619Y-118124819D02*
X112604857Y-118077200D01*
X112604857Y-118077200D02*
X112652476Y-118029580D01*
X112652476Y-118029580D02*
X112700095Y-117934342D01*
X112700095Y-117934342D02*
X112700095Y-117124819D01*
X113176286Y-118124819D02*
X113176286Y-117124819D01*
X113176286Y-117124819D02*
X113557238Y-117124819D01*
X113557238Y-117124819D02*
X113652476Y-117172438D01*
X113652476Y-117172438D02*
X113700095Y-117220057D01*
X113700095Y-117220057D02*
X113747714Y-117315295D01*
X113747714Y-117315295D02*
X113747714Y-117458152D01*
X113747714Y-117458152D02*
X113700095Y-117553390D01*
X113700095Y-117553390D02*
X113652476Y-117601009D01*
X113652476Y-117601009D02*
X113557238Y-117648628D01*
X113557238Y-117648628D02*
X113176286Y-117648628D01*
X114700095Y-118124819D02*
X114128667Y-118124819D01*
X114414381Y-118124819D02*
X114414381Y-117124819D01*
X114414381Y-117124819D02*
X114319143Y-117267676D01*
X114319143Y-117267676D02*
X114223905Y-117362914D01*
X114223905Y-117362914D02*
X114128667Y-117410533D01*
X96869180Y-114000476D02*
X96154895Y-114000476D01*
X96154895Y-114000476D02*
X96012038Y-113952857D01*
X96012038Y-113952857D02*
X95916800Y-113857619D01*
X95916800Y-113857619D02*
X95869180Y-113714762D01*
X95869180Y-113714762D02*
X95869180Y-113619524D01*
X95869180Y-115000476D02*
X95869180Y-114429048D01*
X95869180Y-114714762D02*
X96869180Y-114714762D01*
X96869180Y-114714762D02*
X96726323Y-114619524D01*
X96726323Y-114619524D02*
X96631085Y-114524286D01*
X96631085Y-114524286D02*
X96583466Y-114429048D01*
X96773942Y-115381429D02*
X96821561Y-115429048D01*
X96821561Y-115429048D02*
X96869180Y-115524286D01*
X96869180Y-115524286D02*
X96869180Y-115762381D01*
X96869180Y-115762381D02*
X96821561Y-115857619D01*
X96821561Y-115857619D02*
X96773942Y-115905238D01*
X96773942Y-115905238D02*
X96678704Y-115952857D01*
X96678704Y-115952857D02*
X96583466Y-115952857D01*
X96583466Y-115952857D02*
X96440609Y-115905238D01*
X96440609Y-115905238D02*
X95869180Y-115333810D01*
X95869180Y-115333810D02*
X95869180Y-115952857D01*
X133365642Y-139774819D02*
X133032309Y-139298628D01*
X132794214Y-139774819D02*
X132794214Y-138774819D01*
X132794214Y-138774819D02*
X133175166Y-138774819D01*
X133175166Y-138774819D02*
X133270404Y-138822438D01*
X133270404Y-138822438D02*
X133318023Y-138870057D01*
X133318023Y-138870057D02*
X133365642Y-138965295D01*
X133365642Y-138965295D02*
X133365642Y-139108152D01*
X133365642Y-139108152D02*
X133318023Y-139203390D01*
X133318023Y-139203390D02*
X133270404Y-139251009D01*
X133270404Y-139251009D02*
X133175166Y-139298628D01*
X133175166Y-139298628D02*
X132794214Y-139298628D01*
X134318023Y-139774819D02*
X133746595Y-139774819D01*
X134032309Y-139774819D02*
X134032309Y-138774819D01*
X134032309Y-138774819D02*
X133937071Y-138917676D01*
X133937071Y-138917676D02*
X133841833Y-139012914D01*
X133841833Y-139012914D02*
X133746595Y-139060533D01*
X134937071Y-138774819D02*
X135032309Y-138774819D01*
X135032309Y-138774819D02*
X135127547Y-138822438D01*
X135127547Y-138822438D02*
X135175166Y-138870057D01*
X135175166Y-138870057D02*
X135222785Y-138965295D01*
X135222785Y-138965295D02*
X135270404Y-139155771D01*
X135270404Y-139155771D02*
X135270404Y-139393866D01*
X135270404Y-139393866D02*
X135222785Y-139584342D01*
X135222785Y-139584342D02*
X135175166Y-139679580D01*
X135175166Y-139679580D02*
X135127547Y-139727200D01*
X135127547Y-139727200D02*
X135032309Y-139774819D01*
X135032309Y-139774819D02*
X134937071Y-139774819D01*
X134937071Y-139774819D02*
X134841833Y-139727200D01*
X134841833Y-139727200D02*
X134794214Y-139679580D01*
X134794214Y-139679580D02*
X134746595Y-139584342D01*
X134746595Y-139584342D02*
X134698976Y-139393866D01*
X134698976Y-139393866D02*
X134698976Y-139155771D01*
X134698976Y-139155771D02*
X134746595Y-138965295D01*
X134746595Y-138965295D02*
X134794214Y-138870057D01*
X134794214Y-138870057D02*
X134841833Y-138822438D01*
X134841833Y-138822438D02*
X134937071Y-138774819D01*
X97711047Y-128237200D02*
X97853904Y-128284819D01*
X97853904Y-128284819D02*
X98091999Y-128284819D01*
X98091999Y-128284819D02*
X98187237Y-128237200D01*
X98187237Y-128237200D02*
X98234856Y-128189580D01*
X98234856Y-128189580D02*
X98282475Y-128094342D01*
X98282475Y-128094342D02*
X98282475Y-127999104D01*
X98282475Y-127999104D02*
X98234856Y-127903866D01*
X98234856Y-127903866D02*
X98187237Y-127856247D01*
X98187237Y-127856247D02*
X98091999Y-127808628D01*
X98091999Y-127808628D02*
X97901523Y-127761009D01*
X97901523Y-127761009D02*
X97806285Y-127713390D01*
X97806285Y-127713390D02*
X97758666Y-127665771D01*
X97758666Y-127665771D02*
X97711047Y-127570533D01*
X97711047Y-127570533D02*
X97711047Y-127475295D01*
X97711047Y-127475295D02*
X97758666Y-127380057D01*
X97758666Y-127380057D02*
X97806285Y-127332438D01*
X97806285Y-127332438D02*
X97901523Y-127284819D01*
X97901523Y-127284819D02*
X98139618Y-127284819D01*
X98139618Y-127284819D02*
X98282475Y-127332438D01*
X98615809Y-127284819D02*
X98853904Y-128284819D01*
X98853904Y-128284819D02*
X99044380Y-127570533D01*
X99044380Y-127570533D02*
X99234856Y-128284819D01*
X99234856Y-128284819D02*
X99472952Y-127284819D01*
X99615809Y-128380057D02*
X100377713Y-128380057D01*
X101091999Y-128284819D02*
X100615809Y-128284819D01*
X100615809Y-128284819D02*
X100615809Y-127284819D01*
X101425333Y-127761009D02*
X101758666Y-127761009D01*
X101901523Y-128284819D02*
X101425333Y-128284819D01*
X101425333Y-128284819D02*
X101425333Y-127284819D01*
X101425333Y-127284819D02*
X101901523Y-127284819D01*
X102663428Y-127761009D02*
X102330095Y-127761009D01*
X102330095Y-128284819D02*
X102330095Y-127284819D01*
X102330095Y-127284819D02*
X102806285Y-127284819D01*
X103044381Y-127284819D02*
X103615809Y-127284819D01*
X103330095Y-128284819D02*
X103330095Y-127284819D01*
X104472952Y-128284819D02*
X103901524Y-128284819D01*
X104187238Y-128284819D02*
X104187238Y-127284819D01*
X104187238Y-127284819D02*
X104092000Y-127427676D01*
X104092000Y-127427676D02*
X103996762Y-127522914D01*
X103996762Y-127522914D02*
X103901524Y-127570533D01*
X119363833Y-71446819D02*
X119030500Y-70970628D01*
X118792405Y-71446819D02*
X118792405Y-70446819D01*
X118792405Y-70446819D02*
X119173357Y-70446819D01*
X119173357Y-70446819D02*
X119268595Y-70494438D01*
X119268595Y-70494438D02*
X119316214Y-70542057D01*
X119316214Y-70542057D02*
X119363833Y-70637295D01*
X119363833Y-70637295D02*
X119363833Y-70780152D01*
X119363833Y-70780152D02*
X119316214Y-70875390D01*
X119316214Y-70875390D02*
X119268595Y-70923009D01*
X119268595Y-70923009D02*
X119173357Y-70970628D01*
X119173357Y-70970628D02*
X118792405Y-70970628D01*
X120316214Y-71446819D02*
X119744786Y-71446819D01*
X120030500Y-71446819D02*
X120030500Y-70446819D01*
X120030500Y-70446819D02*
X119935262Y-70589676D01*
X119935262Y-70589676D02*
X119840024Y-70684914D01*
X119840024Y-70684914D02*
X119744786Y-70732533D01*
X153399833Y-144344819D02*
X153066500Y-143868628D01*
X152828405Y-144344819D02*
X152828405Y-143344819D01*
X152828405Y-143344819D02*
X153209357Y-143344819D01*
X153209357Y-143344819D02*
X153304595Y-143392438D01*
X153304595Y-143392438D02*
X153352214Y-143440057D01*
X153352214Y-143440057D02*
X153399833Y-143535295D01*
X153399833Y-143535295D02*
X153399833Y-143678152D01*
X153399833Y-143678152D02*
X153352214Y-143773390D01*
X153352214Y-143773390D02*
X153304595Y-143821009D01*
X153304595Y-143821009D02*
X153209357Y-143868628D01*
X153209357Y-143868628D02*
X152828405Y-143868628D01*
X153733167Y-143344819D02*
X154352214Y-143344819D01*
X154352214Y-143344819D02*
X154018881Y-143725771D01*
X154018881Y-143725771D02*
X154161738Y-143725771D01*
X154161738Y-143725771D02*
X154256976Y-143773390D01*
X154256976Y-143773390D02*
X154304595Y-143821009D01*
X154304595Y-143821009D02*
X154352214Y-143916247D01*
X154352214Y-143916247D02*
X154352214Y-144154342D01*
X154352214Y-144154342D02*
X154304595Y-144249580D01*
X154304595Y-144249580D02*
X154256976Y-144297200D01*
X154256976Y-144297200D02*
X154161738Y-144344819D01*
X154161738Y-144344819D02*
X153876024Y-144344819D01*
X153876024Y-144344819D02*
X153780786Y-144297200D01*
X153780786Y-144297200D02*
X153733167Y-144249580D01*
X117554857Y-128237200D02*
X117697714Y-128284819D01*
X117697714Y-128284819D02*
X117935809Y-128284819D01*
X117935809Y-128284819D02*
X118031047Y-128237200D01*
X118031047Y-128237200D02*
X118078666Y-128189580D01*
X118078666Y-128189580D02*
X118126285Y-128094342D01*
X118126285Y-128094342D02*
X118126285Y-127999104D01*
X118126285Y-127999104D02*
X118078666Y-127903866D01*
X118078666Y-127903866D02*
X118031047Y-127856247D01*
X118031047Y-127856247D02*
X117935809Y-127808628D01*
X117935809Y-127808628D02*
X117745333Y-127761009D01*
X117745333Y-127761009D02*
X117650095Y-127713390D01*
X117650095Y-127713390D02*
X117602476Y-127665771D01*
X117602476Y-127665771D02*
X117554857Y-127570533D01*
X117554857Y-127570533D02*
X117554857Y-127475295D01*
X117554857Y-127475295D02*
X117602476Y-127380057D01*
X117602476Y-127380057D02*
X117650095Y-127332438D01*
X117650095Y-127332438D02*
X117745333Y-127284819D01*
X117745333Y-127284819D02*
X117983428Y-127284819D01*
X117983428Y-127284819D02*
X118126285Y-127332438D01*
X118459619Y-127284819D02*
X118697714Y-128284819D01*
X118697714Y-128284819D02*
X118888190Y-127570533D01*
X118888190Y-127570533D02*
X119078666Y-128284819D01*
X119078666Y-128284819D02*
X119316762Y-127284819D01*
X119459619Y-128380057D02*
X120221523Y-128380057D01*
X121031047Y-128284819D02*
X120697714Y-127808628D01*
X120459619Y-128284819D02*
X120459619Y-127284819D01*
X120459619Y-127284819D02*
X120840571Y-127284819D01*
X120840571Y-127284819D02*
X120935809Y-127332438D01*
X120935809Y-127332438D02*
X120983428Y-127380057D01*
X120983428Y-127380057D02*
X121031047Y-127475295D01*
X121031047Y-127475295D02*
X121031047Y-127618152D01*
X121031047Y-127618152D02*
X120983428Y-127713390D01*
X120983428Y-127713390D02*
X120935809Y-127761009D01*
X120935809Y-127761009D02*
X120840571Y-127808628D01*
X120840571Y-127808628D02*
X120459619Y-127808628D01*
X121459619Y-128284819D02*
X121459619Y-127284819D01*
X122459618Y-127332438D02*
X122364380Y-127284819D01*
X122364380Y-127284819D02*
X122221523Y-127284819D01*
X122221523Y-127284819D02*
X122078666Y-127332438D01*
X122078666Y-127332438D02*
X121983428Y-127427676D01*
X121983428Y-127427676D02*
X121935809Y-127522914D01*
X121935809Y-127522914D02*
X121888190Y-127713390D01*
X121888190Y-127713390D02*
X121888190Y-127856247D01*
X121888190Y-127856247D02*
X121935809Y-128046723D01*
X121935809Y-128046723D02*
X121983428Y-128141961D01*
X121983428Y-128141961D02*
X122078666Y-128237200D01*
X122078666Y-128237200D02*
X122221523Y-128284819D01*
X122221523Y-128284819D02*
X122316761Y-128284819D01*
X122316761Y-128284819D02*
X122459618Y-128237200D01*
X122459618Y-128237200D02*
X122507237Y-128189580D01*
X122507237Y-128189580D02*
X122507237Y-127856247D01*
X122507237Y-127856247D02*
X122316761Y-127856247D01*
X122935809Y-128284819D02*
X122935809Y-127284819D01*
X122935809Y-127761009D02*
X123507237Y-127761009D01*
X123507237Y-128284819D02*
X123507237Y-127284819D01*
X123840571Y-127284819D02*
X124411999Y-127284819D01*
X124126285Y-128284819D02*
X124126285Y-127284819D01*
X125269142Y-128284819D02*
X124697714Y-128284819D01*
X124983428Y-128284819D02*
X124983428Y-127284819D01*
X124983428Y-127284819D02*
X124888190Y-127427676D01*
X124888190Y-127427676D02*
X124792952Y-127522914D01*
X124792952Y-127522914D02*
X124697714Y-127570533D01*
X123851905Y-67976819D02*
X123851905Y-66976819D01*
X123851905Y-66976819D02*
X124090000Y-66976819D01*
X124090000Y-66976819D02*
X124232857Y-67024438D01*
X124232857Y-67024438D02*
X124328095Y-67119676D01*
X124328095Y-67119676D02*
X124375714Y-67214914D01*
X124375714Y-67214914D02*
X124423333Y-67405390D01*
X124423333Y-67405390D02*
X124423333Y-67548247D01*
X124423333Y-67548247D02*
X124375714Y-67738723D01*
X124375714Y-67738723D02*
X124328095Y-67833961D01*
X124328095Y-67833961D02*
X124232857Y-67929200D01*
X124232857Y-67929200D02*
X124090000Y-67976819D01*
X124090000Y-67976819D02*
X123851905Y-67976819D01*
X124756667Y-66976819D02*
X125375714Y-66976819D01*
X125375714Y-66976819D02*
X125042381Y-67357771D01*
X125042381Y-67357771D02*
X125185238Y-67357771D01*
X125185238Y-67357771D02*
X125280476Y-67405390D01*
X125280476Y-67405390D02*
X125328095Y-67453009D01*
X125328095Y-67453009D02*
X125375714Y-67548247D01*
X125375714Y-67548247D02*
X125375714Y-67786342D01*
X125375714Y-67786342D02*
X125328095Y-67881580D01*
X125328095Y-67881580D02*
X125280476Y-67929200D01*
X125280476Y-67929200D02*
X125185238Y-67976819D01*
X125185238Y-67976819D02*
X124899524Y-67976819D01*
X124899524Y-67976819D02*
X124804286Y-67929200D01*
X124804286Y-67929200D02*
X124756667Y-67881580D01*
X119363833Y-77542819D02*
X119030500Y-77066628D01*
X118792405Y-77542819D02*
X118792405Y-76542819D01*
X118792405Y-76542819D02*
X119173357Y-76542819D01*
X119173357Y-76542819D02*
X119268595Y-76590438D01*
X119268595Y-76590438D02*
X119316214Y-76638057D01*
X119316214Y-76638057D02*
X119363833Y-76733295D01*
X119363833Y-76733295D02*
X119363833Y-76876152D01*
X119363833Y-76876152D02*
X119316214Y-76971390D01*
X119316214Y-76971390D02*
X119268595Y-77019009D01*
X119268595Y-77019009D02*
X119173357Y-77066628D01*
X119173357Y-77066628D02*
X118792405Y-77066628D01*
X119744786Y-76638057D02*
X119792405Y-76590438D01*
X119792405Y-76590438D02*
X119887643Y-76542819D01*
X119887643Y-76542819D02*
X120125738Y-76542819D01*
X120125738Y-76542819D02*
X120220976Y-76590438D01*
X120220976Y-76590438D02*
X120268595Y-76638057D01*
X120268595Y-76638057D02*
X120316214Y-76733295D01*
X120316214Y-76733295D02*
X120316214Y-76828533D01*
X120316214Y-76828533D02*
X120268595Y-76971390D01*
X120268595Y-76971390D02*
X119697167Y-77542819D01*
X119697167Y-77542819D02*
X120316214Y-77542819D01*
X139160642Y-139774819D02*
X138827309Y-139298628D01*
X138589214Y-139774819D02*
X138589214Y-138774819D01*
X138589214Y-138774819D02*
X138970166Y-138774819D01*
X138970166Y-138774819D02*
X139065404Y-138822438D01*
X139065404Y-138822438D02*
X139113023Y-138870057D01*
X139113023Y-138870057D02*
X139160642Y-138965295D01*
X139160642Y-138965295D02*
X139160642Y-139108152D01*
X139160642Y-139108152D02*
X139113023Y-139203390D01*
X139113023Y-139203390D02*
X139065404Y-139251009D01*
X139065404Y-139251009D02*
X138970166Y-139298628D01*
X138970166Y-139298628D02*
X138589214Y-139298628D01*
X140113023Y-139774819D02*
X139541595Y-139774819D01*
X139827309Y-139774819D02*
X139827309Y-138774819D01*
X139827309Y-138774819D02*
X139732071Y-138917676D01*
X139732071Y-138917676D02*
X139636833Y-139012914D01*
X139636833Y-139012914D02*
X139541595Y-139060533D01*
X141065404Y-139774819D02*
X140493976Y-139774819D01*
X140779690Y-139774819D02*
X140779690Y-138774819D01*
X140779690Y-138774819D02*
X140684452Y-138917676D01*
X140684452Y-138917676D02*
X140589214Y-139012914D01*
X140589214Y-139012914D02*
X140493976Y-139060533D01*
X144854819Y-119800666D02*
X144378628Y-120133999D01*
X144854819Y-120372094D02*
X143854819Y-120372094D01*
X143854819Y-120372094D02*
X143854819Y-119991142D01*
X143854819Y-119991142D02*
X143902438Y-119895904D01*
X143902438Y-119895904D02*
X143950057Y-119848285D01*
X143950057Y-119848285D02*
X144045295Y-119800666D01*
X144045295Y-119800666D02*
X144188152Y-119800666D01*
X144188152Y-119800666D02*
X144283390Y-119848285D01*
X144283390Y-119848285D02*
X144331009Y-119895904D01*
X144331009Y-119895904D02*
X144378628Y-119991142D01*
X144378628Y-119991142D02*
X144378628Y-120372094D01*
X144854819Y-119324475D02*
X144854819Y-119133999D01*
X144854819Y-119133999D02*
X144807200Y-119038761D01*
X144807200Y-119038761D02*
X144759580Y-118991142D01*
X144759580Y-118991142D02*
X144616723Y-118895904D01*
X144616723Y-118895904D02*
X144426247Y-118848285D01*
X144426247Y-118848285D02*
X144045295Y-118848285D01*
X144045295Y-118848285D02*
X143950057Y-118895904D01*
X143950057Y-118895904D02*
X143902438Y-118943523D01*
X143902438Y-118943523D02*
X143854819Y-119038761D01*
X143854819Y-119038761D02*
X143854819Y-119229237D01*
X143854819Y-119229237D02*
X143902438Y-119324475D01*
X143902438Y-119324475D02*
X143950057Y-119372094D01*
X143950057Y-119372094D02*
X144045295Y-119419713D01*
X144045295Y-119419713D02*
X144283390Y-119419713D01*
X144283390Y-119419713D02*
X144378628Y-119372094D01*
X144378628Y-119372094D02*
X144426247Y-119324475D01*
X144426247Y-119324475D02*
X144473866Y-119229237D01*
X144473866Y-119229237D02*
X144473866Y-119038761D01*
X144473866Y-119038761D02*
X144426247Y-118943523D01*
X144426247Y-118943523D02*
X144378628Y-118895904D01*
X144378628Y-118895904D02*
X144283390Y-118848285D01*
X99909333Y-126818819D02*
X99576000Y-126342628D01*
X99337905Y-126818819D02*
X99337905Y-125818819D01*
X99337905Y-125818819D02*
X99718857Y-125818819D01*
X99718857Y-125818819D02*
X99814095Y-125866438D01*
X99814095Y-125866438D02*
X99861714Y-125914057D01*
X99861714Y-125914057D02*
X99909333Y-126009295D01*
X99909333Y-126009295D02*
X99909333Y-126152152D01*
X99909333Y-126152152D02*
X99861714Y-126247390D01*
X99861714Y-126247390D02*
X99814095Y-126295009D01*
X99814095Y-126295009D02*
X99718857Y-126342628D01*
X99718857Y-126342628D02*
X99337905Y-126342628D01*
X100242667Y-125818819D02*
X100909333Y-125818819D01*
X100909333Y-125818819D02*
X100480762Y-126818819D01*
X93891200Y-81505332D02*
X93938819Y-81362475D01*
X93938819Y-81362475D02*
X93938819Y-81124380D01*
X93938819Y-81124380D02*
X93891200Y-81029142D01*
X93891200Y-81029142D02*
X93843580Y-80981523D01*
X93843580Y-80981523D02*
X93748342Y-80933904D01*
X93748342Y-80933904D02*
X93653104Y-80933904D01*
X93653104Y-80933904D02*
X93557866Y-80981523D01*
X93557866Y-80981523D02*
X93510247Y-81029142D01*
X93510247Y-81029142D02*
X93462628Y-81124380D01*
X93462628Y-81124380D02*
X93415009Y-81314856D01*
X93415009Y-81314856D02*
X93367390Y-81410094D01*
X93367390Y-81410094D02*
X93319771Y-81457713D01*
X93319771Y-81457713D02*
X93224533Y-81505332D01*
X93224533Y-81505332D02*
X93129295Y-81505332D01*
X93129295Y-81505332D02*
X93034057Y-81457713D01*
X93034057Y-81457713D02*
X92986438Y-81410094D01*
X92986438Y-81410094D02*
X92938819Y-81314856D01*
X92938819Y-81314856D02*
X92938819Y-81076761D01*
X92938819Y-81076761D02*
X92986438Y-80933904D01*
X92938819Y-80600570D02*
X93938819Y-80362475D01*
X93938819Y-80362475D02*
X93224533Y-80171999D01*
X93224533Y-80171999D02*
X93938819Y-79981523D01*
X93938819Y-79981523D02*
X92938819Y-79743428D01*
X93938819Y-78838666D02*
X93938819Y-79410094D01*
X93938819Y-79124380D02*
X92938819Y-79124380D01*
X92938819Y-79124380D02*
X93081676Y-79219618D01*
X93081676Y-79219618D02*
X93176914Y-79314856D01*
X93176914Y-79314856D02*
X93224533Y-79410094D01*
X130135333Y-131898819D02*
X129802000Y-131422628D01*
X129563905Y-131898819D02*
X129563905Y-130898819D01*
X129563905Y-130898819D02*
X129944857Y-130898819D01*
X129944857Y-130898819D02*
X130040095Y-130946438D01*
X130040095Y-130946438D02*
X130087714Y-130994057D01*
X130087714Y-130994057D02*
X130135333Y-131089295D01*
X130135333Y-131089295D02*
X130135333Y-131232152D01*
X130135333Y-131232152D02*
X130087714Y-131327390D01*
X130087714Y-131327390D02*
X130040095Y-131375009D01*
X130040095Y-131375009D02*
X129944857Y-131422628D01*
X129944857Y-131422628D02*
X129563905Y-131422628D01*
X130992476Y-130898819D02*
X130802000Y-130898819D01*
X130802000Y-130898819D02*
X130706762Y-130946438D01*
X130706762Y-130946438D02*
X130659143Y-130994057D01*
X130659143Y-130994057D02*
X130563905Y-131136914D01*
X130563905Y-131136914D02*
X130516286Y-131327390D01*
X130516286Y-131327390D02*
X130516286Y-131708342D01*
X130516286Y-131708342D02*
X130563905Y-131803580D01*
X130563905Y-131803580D02*
X130611524Y-131851200D01*
X130611524Y-131851200D02*
X130706762Y-131898819D01*
X130706762Y-131898819D02*
X130897238Y-131898819D01*
X130897238Y-131898819D02*
X130992476Y-131851200D01*
X130992476Y-131851200D02*
X131040095Y-131803580D01*
X131040095Y-131803580D02*
X131087714Y-131708342D01*
X131087714Y-131708342D02*
X131087714Y-131470247D01*
X131087714Y-131470247D02*
X131040095Y-131375009D01*
X131040095Y-131375009D02*
X130992476Y-131327390D01*
X130992476Y-131327390D02*
X130897238Y-131279771D01*
X130897238Y-131279771D02*
X130706762Y-131279771D01*
X130706762Y-131279771D02*
X130611524Y-131327390D01*
X130611524Y-131327390D02*
X130563905Y-131375009D01*
X130563905Y-131375009D02*
X130516286Y-131470247D01*
X111190819Y-97615333D02*
X111905104Y-97615333D01*
X111905104Y-97615333D02*
X112047961Y-97662952D01*
X112047961Y-97662952D02*
X112143200Y-97758190D01*
X112143200Y-97758190D02*
X112190819Y-97901047D01*
X112190819Y-97901047D02*
X112190819Y-97996285D01*
X111190819Y-96710571D02*
X111190819Y-96901047D01*
X111190819Y-96901047D02*
X111238438Y-96996285D01*
X111238438Y-96996285D02*
X111286057Y-97043904D01*
X111286057Y-97043904D02*
X111428914Y-97139142D01*
X111428914Y-97139142D02*
X111619390Y-97186761D01*
X111619390Y-97186761D02*
X112000342Y-97186761D01*
X112000342Y-97186761D02*
X112095580Y-97139142D01*
X112095580Y-97139142D02*
X112143200Y-97091523D01*
X112143200Y-97091523D02*
X112190819Y-96996285D01*
X112190819Y-96996285D02*
X112190819Y-96805809D01*
X112190819Y-96805809D02*
X112143200Y-96710571D01*
X112143200Y-96710571D02*
X112095580Y-96662952D01*
X112095580Y-96662952D02*
X112000342Y-96615333D01*
X112000342Y-96615333D02*
X111762247Y-96615333D01*
X111762247Y-96615333D02*
X111667009Y-96662952D01*
X111667009Y-96662952D02*
X111619390Y-96710571D01*
X111619390Y-96710571D02*
X111571771Y-96805809D01*
X111571771Y-96805809D02*
X111571771Y-96996285D01*
X111571771Y-96996285D02*
X111619390Y-97091523D01*
X111619390Y-97091523D02*
X111667009Y-97139142D01*
X111667009Y-97139142D02*
X111762247Y-97186761D01*
X162126819Y-119292666D02*
X161650628Y-119625999D01*
X162126819Y-119864094D02*
X161126819Y-119864094D01*
X161126819Y-119864094D02*
X161126819Y-119483142D01*
X161126819Y-119483142D02*
X161174438Y-119387904D01*
X161174438Y-119387904D02*
X161222057Y-119340285D01*
X161222057Y-119340285D02*
X161317295Y-119292666D01*
X161317295Y-119292666D02*
X161460152Y-119292666D01*
X161460152Y-119292666D02*
X161555390Y-119340285D01*
X161555390Y-119340285D02*
X161603009Y-119387904D01*
X161603009Y-119387904D02*
X161650628Y-119483142D01*
X161650628Y-119483142D02*
X161650628Y-119864094D01*
X161555390Y-118721237D02*
X161507771Y-118816475D01*
X161507771Y-118816475D02*
X161460152Y-118864094D01*
X161460152Y-118864094D02*
X161364914Y-118911713D01*
X161364914Y-118911713D02*
X161317295Y-118911713D01*
X161317295Y-118911713D02*
X161222057Y-118864094D01*
X161222057Y-118864094D02*
X161174438Y-118816475D01*
X161174438Y-118816475D02*
X161126819Y-118721237D01*
X161126819Y-118721237D02*
X161126819Y-118530761D01*
X161126819Y-118530761D02*
X161174438Y-118435523D01*
X161174438Y-118435523D02*
X161222057Y-118387904D01*
X161222057Y-118387904D02*
X161317295Y-118340285D01*
X161317295Y-118340285D02*
X161364914Y-118340285D01*
X161364914Y-118340285D02*
X161460152Y-118387904D01*
X161460152Y-118387904D02*
X161507771Y-118435523D01*
X161507771Y-118435523D02*
X161555390Y-118530761D01*
X161555390Y-118530761D02*
X161555390Y-118721237D01*
X161555390Y-118721237D02*
X161603009Y-118816475D01*
X161603009Y-118816475D02*
X161650628Y-118864094D01*
X161650628Y-118864094D02*
X161745866Y-118911713D01*
X161745866Y-118911713D02*
X161936342Y-118911713D01*
X161936342Y-118911713D02*
X162031580Y-118864094D01*
X162031580Y-118864094D02*
X162079200Y-118816475D01*
X162079200Y-118816475D02*
X162126819Y-118721237D01*
X162126819Y-118721237D02*
X162126819Y-118530761D01*
X162126819Y-118530761D02*
X162079200Y-118435523D01*
X162079200Y-118435523D02*
X162031580Y-118387904D01*
X162031580Y-118387904D02*
X161936342Y-118340285D01*
X161936342Y-118340285D02*
X161745866Y-118340285D01*
X161745866Y-118340285D02*
X161650628Y-118387904D01*
X161650628Y-118387904D02*
X161603009Y-118435523D01*
X161603009Y-118435523D02*
X161555390Y-118530761D01*
X123845905Y-74072819D02*
X123845905Y-73072819D01*
X123845905Y-73072819D02*
X124084000Y-73072819D01*
X124084000Y-73072819D02*
X124226857Y-73120438D01*
X124226857Y-73120438D02*
X124322095Y-73215676D01*
X124322095Y-73215676D02*
X124369714Y-73310914D01*
X124369714Y-73310914D02*
X124417333Y-73501390D01*
X124417333Y-73501390D02*
X124417333Y-73644247D01*
X124417333Y-73644247D02*
X124369714Y-73834723D01*
X124369714Y-73834723D02*
X124322095Y-73929961D01*
X124322095Y-73929961D02*
X124226857Y-74025200D01*
X124226857Y-74025200D02*
X124084000Y-74072819D01*
X124084000Y-74072819D02*
X123845905Y-74072819D01*
X124798286Y-73168057D02*
X124845905Y-73120438D01*
X124845905Y-73120438D02*
X124941143Y-73072819D01*
X124941143Y-73072819D02*
X125179238Y-73072819D01*
X125179238Y-73072819D02*
X125274476Y-73120438D01*
X125274476Y-73120438D02*
X125322095Y-73168057D01*
X125322095Y-73168057D02*
X125369714Y-73263295D01*
X125369714Y-73263295D02*
X125369714Y-73358533D01*
X125369714Y-73358533D02*
X125322095Y-73501390D01*
X125322095Y-73501390D02*
X124750667Y-74072819D01*
X124750667Y-74072819D02*
X125369714Y-74072819D01*
D13*
%TO.C,J3*%
X155941000Y-94199000D02*
X138101000Y-94199000D01*
X155941000Y-94199000D02*
X155941000Y-96859000D01*
X138101000Y-94199000D02*
X138101000Y-96859000D01*
X158541000Y-95529000D02*
X158541000Y-96859000D01*
X158541000Y-96859000D02*
X157211000Y-96859000D01*
X155941000Y-96859000D02*
X138101000Y-96859000D01*
%TO.C,SW_START1*%
X140974000Y-148058000D02*
X140974000Y-149558000D01*
X142224000Y-152058000D02*
X146724000Y-152058000D01*
X146724000Y-145558000D02*
X142224000Y-145558000D01*
X147974000Y-149558000D02*
X147974000Y-148058000D01*
%TO.C,R4*%
X102897000Y-120980564D02*
X102897000Y-120526436D01*
X104367000Y-120980564D02*
X104367000Y-120526436D01*
%TO.C,ON/OFF1*%
X157357000Y-141105000D02*
X157357000Y-143375000D01*
X157357000Y-143375000D02*
X161242000Y-143375000D01*
X161242000Y-141105000D02*
X157357000Y-141105000D01*
%TO.C,SW_SELECT1*%
X128020000Y-148312000D02*
X128020000Y-149812000D01*
X129270000Y-152312000D02*
X133770000Y-152312000D01*
X133770000Y-145812000D02*
X129270000Y-145812000D01*
X135020000Y-149812000D02*
X135020000Y-148312000D01*
%TO.C,SW_A1*%
X167188000Y-119392000D02*
X167188000Y-120892000D01*
X168438000Y-123392000D02*
X172938000Y-123392000D01*
X172938000Y-116892000D02*
X168438000Y-116892000D01*
X174188000Y-120892000D02*
X174188000Y-119392000D01*
%TO.C,R5*%
X113564936Y-131599000D02*
X114019064Y-131599000D01*
X113564936Y-133069000D02*
X114019064Y-133069000D01*
%TO.C,SW_DOWN1*%
X107752000Y-141490000D02*
X107752000Y-142990000D01*
X109002000Y-145490000D02*
X113502000Y-145490000D01*
X113502000Y-138990000D02*
X109002000Y-138990000D01*
X114752000Y-142990000D02*
X114752000Y-141490000D01*
%TO.C,J4*%
X102754000Y-70976000D02*
X102754000Y-73476000D01*
X102754000Y-73476000D02*
X105254000Y-73476000D01*
X103054000Y-69156000D02*
X103054000Y-73176000D01*
X103054000Y-70866000D02*
X103554000Y-70866000D01*
X103054000Y-71676000D02*
X104054000Y-71676000D01*
X103054000Y-73176000D02*
X110774000Y-73176000D01*
X103554000Y-69656000D02*
X110274000Y-69656000D01*
X103554000Y-70866000D02*
X103554000Y-69656000D01*
X104054000Y-71676000D02*
X104054000Y-73176000D01*
X109774000Y-71676000D02*
X109774000Y-73176000D01*
X110274000Y-69656000D02*
X110274000Y-70866000D01*
X110274000Y-70866000D02*
X110774000Y-70866000D01*
X110774000Y-69156000D02*
X103054000Y-69156000D01*
X110774000Y-71676000D02*
X109774000Y-71676000D01*
X110774000Y-73176000D02*
X110774000Y-69156000D01*
%TO.C,SW_B1*%
X149356000Y-119428000D02*
X149356000Y-120928000D01*
X150606000Y-123428000D02*
X155106000Y-123428000D01*
X155106000Y-116928000D02*
X150606000Y-116928000D01*
X156356000Y-120928000D02*
X156356000Y-119428000D01*
%TO.C,SW_UP1*%
X108462000Y-121170000D02*
X108462000Y-122670000D01*
X109712000Y-125170000D02*
X114212000Y-125170000D01*
X114212000Y-118670000D02*
X109712000Y-118670000D01*
X115462000Y-122670000D02*
X115462000Y-121170000D01*
%TO.C,J12*%
X91474000Y-110140000D02*
X93174000Y-110140000D01*
X91474000Y-119480000D02*
X93174000Y-119480000D01*
%TO.C,R10*%
X133781436Y-140235000D02*
X134235564Y-140235000D01*
X133781436Y-141705000D02*
X134235564Y-141705000D01*
%TO.C,SW_LEFT1*%
X97592000Y-131330000D02*
X97592000Y-132830000D01*
X98842000Y-135330000D02*
X103342000Y-135330000D01*
X103342000Y-128830000D02*
X98842000Y-128830000D01*
X104592000Y-132830000D02*
X104592000Y-131330000D01*
%TO.C,R1*%
X119757564Y-70077000D02*
X119303436Y-70077000D01*
X119757564Y-68607000D02*
X119303436Y-68607000D01*
%TO.C,R3*%
X153793564Y-142975000D02*
X153339436Y-142975000D01*
X153793564Y-141505000D02*
X153339436Y-141505000D01*
%TO.C,SW_RIGHT1*%
X117912000Y-131330000D02*
X117912000Y-132830000D01*
X119162000Y-135330000D02*
X123662000Y-135330000D01*
X123662000Y-128830000D02*
X119162000Y-128830000D01*
X124912000Y-132830000D02*
X124912000Y-131330000D01*
%TO.C,D3*%
X122305000Y-68207000D02*
X122305000Y-70477000D01*
X122305000Y-70477000D02*
X126190000Y-70477000D01*
X126190000Y-68207000D02*
X122305000Y-68207000D01*
%TO.C,R2*%
X119757564Y-76173000D02*
X119303436Y-76173000D01*
X119757564Y-74703000D02*
X119303436Y-74703000D01*
%TO.C,R11*%
X139576436Y-140235000D02*
X140030564Y-140235000D01*
X139576436Y-141705000D02*
X140030564Y-141705000D01*
%TO.C,R9*%
X145315000Y-119861064D02*
X145315000Y-119406936D01*
X146785000Y-119861064D02*
X146785000Y-119406936D01*
%TO.C,R7*%
X100303064Y-125449000D02*
X99848936Y-125449000D01*
X100303064Y-123979000D02*
X99848936Y-123979000D01*
%TO.C,SW1*%
X92184000Y-76472000D02*
X92184000Y-85072000D01*
X87584000Y-76472000D02*
X87584000Y-78672000D01*
X87584000Y-82772000D02*
X87584000Y-85072000D01*
%TO.C,R6*%
X130529064Y-130529000D02*
X130074936Y-130529000D01*
X130529064Y-129059000D02*
X130074936Y-129059000D01*
%TO.C,J6*%
X107696000Y-95952000D02*
X102556000Y-95952000D01*
X107696000Y-95952000D02*
X107696000Y-98612000D01*
X102556000Y-95952000D02*
X102556000Y-98612000D01*
X110296000Y-97282000D02*
X110296000Y-98612000D01*
X110296000Y-98612000D02*
X108966000Y-98612000D01*
X107696000Y-98612000D02*
X102556000Y-98612000D01*
%TO.C,R8*%
X162587000Y-119353064D02*
X162587000Y-118898936D01*
X164057000Y-119353064D02*
X164057000Y-118898936D01*
%TO.C,D2*%
X122299000Y-74303000D02*
X122299000Y-76573000D01*
X122299000Y-76573000D02*
X126184000Y-76573000D01*
X126184000Y-74303000D02*
X122299000Y-74303000D01*
%TD*%
M02*
